<svg width="38" height="24" viewBox="0 0 64 48" fill="none" xmlns="http://www.w3.org/2000/svg">
<mask id="mask0_1121_433" style="mask-type:luminance" maskUnits="userSpaceOnUse" x="8" y="13" width="48" height="21">
<path d="M56 13H8V33.5128H56V13Z" fill="white"/>
</mask>
<g mask="url(#mask0_1121_433)">
<path d="M54.9071 32.461H9.15601V24.1404H54.9071V32.461Z" fill="#ED1C24"/>
<path d="M12.8017 28.7739L13.2796 27.3827L13.7576 28.7739H12.8017ZM13.8762 26.3694H12.7159L11.2721 30.2754H12.2889L12.5617 29.4839H13.9976L14.2707 30.2754H15.32L13.8762 26.3694Z" fill="#FFF200"/>
<mask id="mask1_1121_433" style="mask-type:luminance" maskUnits="userSpaceOnUse" x="-353" y="-241" width="431" height="294">
<path d="M-352.128 52.944H77.1878V-240.696H-352.128V52.944Z" fill="white"/>
</mask>
<g mask="url(#mask1_1121_433)">
<path d="M18.4029 28.1792V30.2753H17.4596V28.798C17.4596 28.6541 17.4559 28.5317 17.449 28.4308C17.4422 28.3296 17.423 28.2476 17.3916 28.1843C17.3601 28.1214 17.3126 28.0753 17.249 28.0462C17.1851 28.0175 17.0959 28.0028 16.9807 28.0028C16.8883 28.0028 16.7981 28.0216 16.7109 28.0592C16.6237 28.0971 16.5451 28.1371 16.4757 28.1792V30.2753H15.5321V27.333H16.4757V27.6493C16.6374 27.5214 16.7923 27.4216 16.9403 27.3498C17.0883 27.278 17.2521 27.2418 17.4313 27.2418C17.6248 27.2418 17.7954 27.2852 17.9434 27.372C18.0914 27.4589 18.2073 27.5864 18.2907 27.7546C18.4788 27.5953 18.6617 27.4698 18.8391 27.3789C19.0169 27.2876 19.1909 27.2418 19.3615 27.2418C19.6784 27.2418 19.9191 27.3375 20.0836 27.5286C20.248 27.7194 20.3304 27.9946 20.3304 28.3536V30.2753H19.3871V28.798C19.3871 28.6524 19.3837 28.5296 19.3776 28.4291C19.3718 28.3293 19.353 28.2476 19.3215 28.1843C19.2918 28.1214 19.2449 28.0753 19.1803 28.0462C19.1157 28.0175 19.0248 28.0028 18.9082 28.0028C18.8295 28.0028 18.7526 28.0165 18.6777 28.0438C18.6029 28.0708 18.5109 28.116 18.4029 28.1792Z" fill="#FFF200"/>
<path d="M22.9778 27.6937C22.9497 27.7583 22.8906 27.8103 22.8003 27.851C22.7357 27.8807 22.6475 27.8985 22.5361 27.9033C22.4246 27.9091 22.2899 27.9115 22.1316 27.9115H21.9747V27.0797H22.0687C22.2656 27.0797 22.4184 27.0811 22.5272 27.0838C22.6359 27.0862 22.7268 27.1019 22.8003 27.13C22.8817 27.1618 22.9388 27.21 22.9709 27.2749C23.0034 27.3402 23.0195 27.4055 23.0195 27.4705C23.0195 27.5549 23.0058 27.6291 22.9778 27.6937ZM24.0834 28.4479C23.9333 28.2886 23.7309 28.1836 23.4752 28.1327V28.1122C23.6561 28.0318 23.7962 27.9197 23.8954 27.7758C23.9945 27.6312 24.0441 27.465 24.0441 27.2763C24.0441 27.1139 24.0078 26.9693 23.9357 26.8424C23.8632 26.716 23.7528 26.6151 23.6044 26.5399C23.4615 26.4681 23.3172 26.4223 23.1716 26.4011C23.026 26.3802 22.7962 26.3696 22.4824 26.3696H20.9706V30.2753H22.6731C22.9559 30.2753 23.1897 30.251 23.374 30.2018C23.5579 30.1529 23.7272 30.0705 23.8807 29.9546C24.0137 29.8568 24.1176 29.7337 24.1938 29.5847C24.2697 29.4363 24.308 29.2671 24.308 29.0777C24.308 28.8175 24.2328 28.6072 24.0834 28.4479ZM23.2044 29.317C23.1651 29.3905 23.0933 29.4493 22.989 29.4934C22.8865 29.5378 22.7743 29.5607 22.6526 29.5624C22.5309 29.5642 22.3292 29.5648 22.0478 29.5648H21.9747V28.5813H22.1938C22.3432 28.5813 22.4865 28.5819 22.6243 28.584C22.7614 28.5854 22.869 28.5977 22.9473 28.6209C23.0622 28.6544 23.1432 28.7054 23.1911 28.7734C23.239 28.8414 23.2629 28.9382 23.2629 29.0636C23.2629 29.1594 23.2434 29.2438 23.2044 29.317Z" fill="#FFF200"/>
<path d="M26.2319 29.6691C26.1375 29.7078 26.0445 29.7273 25.9526 29.7273C25.8374 29.7273 25.7522 29.7191 25.6979 29.702C25.6435 29.6852 25.5967 29.6592 25.5577 29.624C25.517 29.5888 25.4914 29.5519 25.4811 29.5129C25.4709 29.4739 25.4661 29.4233 25.4661 29.3618C25.4661 29.2681 25.49 29.1926 25.5386 29.1355C25.5871 29.0777 25.6572 29.0339 25.7488 29.0042C25.8233 28.9792 25.9331 28.958 26.0777 28.9392C26.222 28.9208 26.3563 28.9061 26.4804 28.8955V29.5153C26.409 29.5789 26.3263 29.6305 26.2319 29.6691ZM26.4804 30.2753H27.424V28.2688C27.424 27.915 27.3051 27.6555 27.0678 27.4903C26.8305 27.3245 26.4449 27.2418 25.9112 27.2418C25.6866 27.2418 25.463 27.2599 25.2398 27.2951C25.0162 27.331 24.8548 27.3618 24.756 27.3878V28.0941H24.8415C24.917 28.064 25.0425 28.0206 25.2168 27.9649C25.3912 27.9091 25.555 27.8811 25.7088 27.8811C25.9642 27.8811 26.1577 27.9129 26.289 27.9765C26.4203 28.0401 26.4856 28.155 26.4856 28.3214V28.3375C26.211 28.3532 25.9461 28.3782 25.6907 28.4114C25.4353 28.4452 25.221 28.5013 25.0486 28.5806C24.8743 28.6596 24.7396 28.7683 24.6445 28.9054C24.5495 29.0428 24.5023 29.2199 24.5023 29.4363C24.5023 29.7078 24.5953 29.9303 24.782 30.105C24.9683 30.2791 25.1994 30.3666 25.4757 30.3666C25.5933 30.3666 25.7013 30.3546 25.7994 30.3314C25.8979 30.3078 25.9926 30.2746 26.0842 30.2305C26.1498 30.1994 26.2196 30.1563 26.2938 30.1023C26.368 30.0479 26.4302 30.0018 26.4804 29.9632V30.2753Z" fill="#FFF200"/>
<path d="M30.9595 30.2752H30.0159V28.8086C30.0159 28.6893 30.0101 28.5706 29.9974 28.452C29.9851 28.3334 29.9642 28.2458 29.9345 28.1898C29.8996 28.1248 29.8483 28.0776 29.781 28.0479C29.7136 28.0178 29.6196 28.0028 29.4989 28.0028C29.4131 28.0028 29.3263 28.0168 29.2381 28.0452C29.1499 28.0732 29.0538 28.118 28.9509 28.1792V30.2752H28.0073V27.3334H28.9509V27.6496C29.1181 27.518 29.2788 27.4171 29.4333 27.347C29.5878 27.277 29.7591 27.2421 29.9475 27.2421C30.2648 27.2421 30.5126 27.3347 30.6914 27.5207C30.8699 27.7064 30.9595 27.984 30.9595 28.3539V30.2752Z" fill="#FFF200"/>
</g>
<path d="M34.6627 30.2753H33.5717L32.7406 28.9884L32.4815 29.3054V30.2753H31.5382V26.197H32.4815V28.6195L33.4924 27.3334H34.5919L33.5276 28.6014L34.6627 30.2753Z" fill="#FFF200"/>
<mask id="mask2_1121_433" style="mask-type:luminance" maskUnits="userSpaceOnUse" x="-353" y="-241" width="431" height="294">
<path d="M-352.128 52.944H77.1878V-240.696H-352.128V52.944Z" fill="white"/>
</mask>
<g mask="url(#mask2_1121_433)">
<path d="M39.8861 30.052C39.7118 30.1201 39.4807 30.1881 39.1931 30.2555C38.9049 30.3225 38.6184 30.3563 38.3326 30.3563C37.6697 30.3563 37.1511 30.1758 36.776 29.8141C36.401 29.4527 36.2136 28.9529 36.2136 28.316C36.2136 27.7081 36.4027 27.2185 36.7808 26.8466C37.1586 26.4746 37.6854 26.2883 38.361 26.2883C38.6171 26.2883 38.8608 26.3115 39.0926 26.3577C39.3244 26.4042 39.5819 26.4958 39.866 26.6336V27.5464H39.7535C39.7049 27.5105 39.6335 27.4599 39.5395 27.3946C39.4454 27.3293 39.3552 27.2739 39.2683 27.2278C39.1675 27.1734 39.0492 27.1266 38.9145 27.0876C38.7798 27.0486 38.6366 27.0288 38.4851 27.0288C38.3077 27.0288 38.1466 27.0551 38.0027 27.1078C37.8581 27.1604 37.7282 27.2408 37.6136 27.3491C37.5039 27.4541 37.4174 27.5874 37.3542 27.7495C37.2902 27.9115 37.2588 28.0982 37.2588 28.3102C37.2588 28.7423 37.3726 29.0732 37.6 29.3023C37.8277 29.5314 38.1637 29.6462 38.6085 29.6462C38.6468 29.6462 38.6892 29.6456 38.735 29.6435C38.7808 29.6418 38.8232 29.6394 38.8615 29.6356V28.865H38.0906V28.1245H39.8861V30.052Z" fill="#FFF200"/>
<path d="M42.5772 28.2463H42.4934C42.4534 28.2326 42.3888 28.2224 42.3003 28.2159C42.211 28.209 42.1372 28.2056 42.078 28.2056C41.9437 28.2056 41.825 28.2142 41.7221 28.2316C41.6192 28.2494 41.5088 28.2784 41.3902 28.3202V30.275H40.4469V27.3331H41.3902V27.7656C41.5977 27.5875 41.7779 27.4709 41.9314 27.4159C42.0849 27.3608 42.2257 27.3331 42.355 27.3331C42.3878 27.3331 42.4254 27.3342 42.4671 27.3359C42.5091 27.3379 42.5457 27.3403 42.5772 27.3437V28.2463Z" fill="#FFF200"/>
<path d="M44.4688 29.664C44.3912 29.6931 44.3098 29.7071 44.224 29.7071C44.1242 29.7071 44.0353 29.6913 43.958 29.6602C43.8801 29.6288 43.8131 29.5792 43.7573 29.5112C43.6996 29.4397 43.6561 29.3454 43.6264 29.2278C43.5967 29.1101 43.5823 28.971 43.5823 28.8107C43.5823 28.6312 43.599 28.4825 43.6332 28.3642C43.6671 28.2455 43.7129 28.1522 43.7707 28.0842C43.8353 28.0113 43.903 27.9625 43.9737 27.9378C44.0445 27.9139 44.1252 27.9013 44.2161 27.9013C44.3067 27.9013 44.3915 27.9163 44.4702 27.946C44.5488 27.9754 44.6158 28.026 44.6722 28.0975C44.7279 28.1672 44.7717 28.2606 44.8028 28.3772C44.8343 28.4937 44.8503 28.6383 44.8503 28.8107C44.8503 28.997 44.8346 29.1433 44.8042 29.2486C44.7737 29.3542 44.7279 29.4442 44.6667 29.519C44.6124 29.5871 44.5467 29.6353 44.4688 29.664ZM45.4042 27.6609C45.1245 27.3819 44.7286 27.2421 44.2161 27.2421C43.7105 27.2421 43.316 27.3809 43.0332 27.6585C42.7498 27.9361 42.6083 28.3183 42.6083 28.8055C42.6083 29.2893 42.7491 29.6705 43.0305 29.9488C43.3119 30.2274 43.7071 30.3666 44.2161 30.3666C44.7252 30.3666 45.1204 30.2274 45.4018 29.9488C45.6835 29.6705 45.824 29.2893 45.824 28.8055C45.824 28.3221 45.6842 27.9402 45.4042 27.6609Z" fill="#FFF200"/>
<path d="M49.1448 30.2752H48.2015V29.9589C48.0272 30.0923 47.8675 30.1935 47.7229 30.2625C47.5783 30.3319 47.4053 30.3665 47.205 30.3665C46.8809 30.3665 46.6309 30.2728 46.4556 30.0854C46.2805 29.8977 46.193 29.6208 46.193 29.2547V27.3333H47.1362V28.8C47.1362 28.9494 47.141 29.0735 47.1506 29.1726C47.1602 29.2718 47.1824 29.3538 47.2176 29.4188C47.2508 29.4837 47.3014 29.5312 47.3684 29.561C47.4357 29.5907 47.5297 29.6058 47.6504 29.6058C47.7311 29.6058 47.82 29.5907 47.9181 29.561C48.0159 29.5312 48.1103 29.4871 48.2015 29.429V27.3333H49.1448V30.2752Z" fill="#FFF200"/>
<path d="M51.6601 29.4466C51.5377 29.5933 51.3514 29.6665 51.1015 29.6665C51.0314 29.6665 50.9606 29.663 50.8892 29.6559C50.8174 29.649 50.7501 29.633 50.6871 29.6083V28.1201C50.773 28.0695 50.8629 28.0302 50.9572 28.0032C51.0516 27.9759 51.1436 27.9625 51.2328 27.9625C51.4441 27.9625 51.5989 28.0271 51.6967 28.1571C51.7948 28.287 51.8437 28.4962 51.8437 28.7841C51.8437 29.0791 51.7825 29.3 51.6601 29.4466ZM52.5118 27.647C52.308 27.3769 52.0225 27.2418 51.6553 27.2418C51.4574 27.2418 51.283 27.2798 51.1316 27.3543C50.9805 27.4295 50.8321 27.5246 50.6871 27.6398V27.3331H49.7439V31.3502H50.6871V30.1318C50.8095 30.1964 50.9295 30.2463 51.0465 30.2822C51.1637 30.3181 51.3063 30.3362 51.4745 30.3362C51.6564 30.3362 51.827 30.301 51.9859 30.2309C52.1449 30.1605 52.2875 30.0572 52.4133 29.9201C52.534 29.7906 52.6318 29.6258 52.7059 29.4254C52.7801 29.2258 52.8174 29.0039 52.8174 28.7601C52.8174 28.2883 52.7155 27.9174 52.5118 27.647Z" fill="#FFF200"/>
<path d="M30.3588 18.9846C30.0613 19.3292 29.623 19.5469 29.1318 19.5469C28.2388 19.5469 27.5154 18.8239 27.5154 17.9309C27.5154 17.0382 28.2388 16.3148 29.1318 16.3148C30.0248 16.3148 30.7489 17.0382 30.7489 17.9309V22.0485H33.2525L33.2504 17.948C33.2504 15.6728 31.4066 13.8293 29.1318 13.8293C26.8579 13.8293 25.0142 15.6728 25.0142 17.948C25.0142 20.2225 26.8579 22.0659 29.1318 22.0659C29.5581 22.0659 29.9697 22.0013 30.3567 21.8803L30.3588 18.9846Z" fill="#ED1C24"/>
<path d="M30.3588 18.9846C30.0613 19.3292 29.623 19.5469 29.1318 19.5469C28.2388 19.5469 27.5154 18.8239 27.5154 17.9309C27.5154 17.0382 28.2388 16.3148 29.1318 16.3148C30.0248 16.3148 30.7489 17.0382 30.7489 17.9309V22.0485H33.2525L33.2504 17.948C33.2504 15.6728 31.4066 13.8293 29.1318 13.8293C26.8579 13.8293 25.0142 15.6728 25.0142 17.948C25.0142 20.2225 26.8579 22.0659 29.1318 22.0659C29.5581 22.0659 29.9697 22.0013 30.3567 21.8803L30.3588 18.9846Z" stroke="#ED1C24" stroke-width="0.275"/>
<path d="M34.4072 22.0314C34.5857 22.055 34.7686 22.0673 34.9525 22.0673C37.227 22.0673 39.0705 20.2235 39.0705 17.9497C39.0705 15.6748 37.227 13.8307 34.9525 13.8307C33.958 13.8307 33.0438 14.1845 32.3313 14.7729L32.3361 14.7821C32.9563 15.4126 33.3912 16.2249 33.5535 17.1312L33.5597 17.1288C33.8411 16.6515 34.3597 16.3329 34.9525 16.3329C35.8462 16.3329 36.5696 17.0563 36.5696 17.9497C36.5696 18.8413 35.8462 19.5661 34.9525 19.5661C34.7607 19.5661 34.5764 19.5322 34.4041 19.47L34.4072 22.0314Z" fill="#ED1C24"/>
<path d="M34.4072 22.0314C34.5857 22.055 34.7686 22.0673 34.9525 22.0673C37.227 22.0673 39.0705 20.2235 39.0705 17.9497C39.0705 15.6748 37.227 13.8307 34.9525 13.8307C33.958 13.8307 33.0438 14.1845 32.3313 14.7729L32.3361 14.7821C32.9563 15.4126 33.3912 16.2249 33.5535 17.1312L33.5597 17.1288C33.8411 16.6515 34.3597 16.3329 34.9525 16.3329C35.8462 16.3329 36.5696 17.0563 36.5696 17.9497C36.5696 18.8413 35.8462 19.5661 34.9525 19.5661C34.7607 19.5661 34.5764 19.5322 34.4041 19.47L34.4072 22.0314Z" stroke="#ED1C24" stroke-width="0.275"/>
</g>
</g>
</svg>