<svg width="38" height="24" viewBox="0 0 64 48" fill="none" xmlns="http://www.w3.org/2000/svg">
<g clip-path="url(#clip0_1072_611)">
<path d="M15.4217 20.9948H8.72742V27.4138H15.4217V20.9948Z" fill="#2A3768"/>
<path d="M15.4217 26.5302H8.72742V27.4138H15.4217V26.5302Z" fill="#E20613"/>
<path d="M12.0999 20.204L8 26.5302H16.1998L12.0999 20.204Z" fill="#2A3768"/>
<path d="M12.1 20.7155V24.4609L10.9246 26.2746H8.49646L12.1 20.7155Z" fill="url(#paint0_linear_1072_611)"/>
<path d="M12.1 20.7155V24.4609L13.2753 26.2746H15.7034L12.1 20.7155Z" fill="url(#paint1_linear_1072_611)"/>
<path d="M21.3719 26.5067H20.646L20.3575 25.6876H19.0366L18.7639 26.5067H18.0562L19.3432 22.9012H20.0487L21.3719 26.5067ZM20.1434 25.0802L19.688 23.7424L19.2418 25.0802H20.1434Z" fill="#2A3768"/>
<path d="M21.7437 26.5067V22.9308H22.4107V25.8992H24.0697V26.5066L21.7437 26.5067Z" fill="#2A3768"/>
<path d="M24.5635 26.5067V22.9308H25.2307V25.8992H26.8896V26.5066L24.5635 26.5067Z" fill="#2A3768"/>
<path d="M27.3448 26.5067V22.9012H28.012V26.5067H27.3448Z" fill="#2A3768"/>
<path d="M31.6275 26.5067H30.9018L30.6132 25.6876H29.2924L29.0197 26.5067H28.3119L29.5989 22.9012H30.3044L31.6275 26.5067ZM30.399 25.0802L29.9437 23.7424L29.4974 25.0802H30.399Z" fill="#2A3768"/>
<path d="M31.9882 26.5067V22.9012H32.6373L33.9898 25.3088V22.9012H34.6095V26.5067H33.9399L32.608 24.1554V26.5068L31.9882 26.5067Z" fill="#2A3768"/>
<path d="M37.7741 26.3964C37.4528 26.5571 37.0581 26.5683 36.7034 26.5683C36.2649 26.5683 35.9042 26.4047 35.6218 26.0774C35.3391 25.7506 35.1979 25.3035 35.1979 24.7358C35.1979 24.1357 35.3398 23.6699 35.624 23.3376C35.9081 23.0058 36.2815 22.8397 36.7441 22.8397C37.1484 22.8397 37.5208 22.9338 37.7292 23.2308C37.889 23.4582 37.8661 23.642 37.889 24.0669H37.2234C37.1842 23.8802 37.2862 23.7325 37.1625 23.6245C37.0385 23.5162 36.8878 23.462 36.7105 23.462C36.4655 23.462 36.2667 23.5579 36.1141 23.7498C35.9616 23.9416 35.8854 24.2522 35.8854 24.6819C35.8854 25.1375 35.9605 25.4622 36.1108 25.6559C36.2609 25.8493 36.5248 26.0075 36.7643 26.0293C37.1761 26.0664 37.6696 25.9456 37.7972 25.8227L37.7741 26.3964Z" fill="#2A3768"/>
<path d="M38.6488 26.5067V22.9012H41.0988V23.5112H39.3159V24.3105H40.9748V24.9179H39.3159V25.8992H41.1621V26.5066L38.6488 26.5067Z" fill="#2A3768"/>
<path d="M43.0124 22.9012H44.3332C44.5946 22.9012 44.7897 22.9132 44.9182 22.937C45.0466 22.9607 45.1616 23.0101 45.2631 23.0858C45.3645 23.1612 45.449 23.2617 45.5167 23.3869C45.5843 23.5125 45.6179 23.653 45.6179 23.8087C45.6179 23.9778 45.5765 24.1325 45.4927 24.2737C45.4096 24.4146 45.2966 24.5204 45.1535 24.5908C45.355 24.6546 45.5097 24.7635 45.6179 24.918C45.7262 25.0721 45.7803 25.2531 45.7803 25.4613C45.7803 25.6254 45.7451 25.785 45.6757 25.9396C45.6055 26.0948 45.51 26.2186 45.3892 26.3112C45.2684 26.404 45.1189 26.4607 44.9418 26.4819C44.8304 26.4952 44.5623 26.5035 44.1369 26.5067H43.0122L43.0124 22.9012ZM43.6795 23.5013V24.3351H44.1168C44.377 24.3351 44.5384 24.331 44.6015 24.3227C44.7156 24.3079 44.8054 24.2651 44.8708 24.1936C44.9362 24.1224 44.9687 24.0285 44.9687 23.912C44.9687 23.8007 44.9407 23.71 44.8842 23.6404C44.828 23.5707 44.744 23.5284 44.633 23.5136C44.5669 23.5055 44.3769 23.5013 44.0628 23.5013H43.6795ZM43.6795 24.9352V25.8992H44.2971C44.5376 25.8992 44.6901 25.8916 44.7547 25.8769C44.854 25.8575 44.9347 25.8097 44.9971 25.7332C45.0595 25.6571 45.0906 25.5549 45.0906 25.4271C45.0906 25.3187 45.0667 25.227 45.0185 25.1514C44.9701 25.0761 44.9006 25.0211 44.8101 24.9868C44.7189 24.9523 44.522 24.9352 44.2183 24.9352H43.6795Z" fill="#2A3768"/>
<path d="M49.3237 26.5067H48.5979L48.3093 25.6876H46.9885L46.7158 26.5067H46.0081L47.2952 22.9012H48.0005L49.3237 26.5067ZM48.0951 25.0802L47.64 23.7424L47.1934 25.0802H48.0951Z" fill="#2A3768"/>
<path d="M49.6844 26.5067V22.9012H50.3335L51.6857 25.3088V22.9012H52.3059V26.5067H51.6362L50.3042 24.1553V26.5067H49.6844Z" fill="#2A3768"/>
<path d="M53.0203 26.5067V22.9012H53.6874V24.2813L55.0353 22.9012H56L54.2402 24.688L56 26.5067H55.0354L53.6875 25.1571V26.5067H53.0203Z" fill="#2A3768"/>
</g>
<defs>
<linearGradient id="paint0_linear_1072_611" x1="12.0678" y1="24.5167" x2="10.1505" y2="23.4097" gradientUnits="userSpaceOnUse">
<stop stop-color="#636362"/>
<stop offset="0.0132" stop-color="#6B6B6A"/>
<stop offset="0.0958" stop-color="#989897"/>
<stop offset="0.1788" stop-color="#BDBDBD"/>
<stop offset="0.2612" stop-color="#DADADA"/>
<stop offset="0.3426" stop-color="#EEEEEE"/>
<stop offset="0.4227" stop-color="#FBFBFB"/>
<stop offset="0.5" stop-color="white"/>
</linearGradient>
<linearGradient id="paint1_linear_1072_611" x1="12.1321" y1="24.5167" x2="14.0494" y2="23.4098" gradientUnits="userSpaceOnUse">
<stop stop-color="#636362"/>
<stop offset="0.0132" stop-color="#6B6B6A"/>
<stop offset="0.0958" stop-color="#989897"/>
<stop offset="0.1788" stop-color="#BDBDBD"/>
<stop offset="0.2612" stop-color="#DADADA"/>
<stop offset="0.3426" stop-color="#EEEEEE"/>
<stop offset="0.4227" stop-color="#FBFBFB"/>
<stop offset="0.5" stop-color="white"/>
</linearGradient>
<clipPath id="clip0_1072_611">
<rect width="48" height="8" fill="white" transform="translate(8 20)"/>
</clipPath>
</defs>
</svg>