<svg width="38" height="24" viewBox="0 0 64 48" fill="none" xmlns="http://www.w3.org/2000/svg">
<g clip-path="url(#clip0_1072_396)">
<mask id="mask0_1072_396" style="mask-type:luminance" maskUnits="userSpaceOnUse" x="8" y="16" width="48" height="16">
<path d="M56 16H8V31.3905H56V16Z" fill="white"/>
</mask>
<g mask="url(#mask0_1072_396)">
<path d="M34.3826 26.1202C34.3826 24.5664 33.0104 24.3027 32.0953 24.3027H29.5647V31.3905H32.0953C32.9898 31.3905 34.5963 31.1262 34.5963 29.3394C34.5963 28.4661 33.935 27.8163 32.9698 27.7247V27.7043C33.8134 27.5523 34.3826 26.963 34.3826 26.1202ZM30.988 28.2222H31.7093C32.4208 28.2222 33.1733 28.3647 33.1733 29.2884C33.1733 30.1106 32.3697 30.2736 31.7093 30.2736H30.988V28.2222ZM32.9594 26.3031C32.9594 27.0343 32.2174 27.1662 31.6179 27.1662H30.9879V25.4198H31.587C32.238 25.4198 32.9594 25.4807 32.9594 26.3031Z" fill="#231F20"/>
<path d="M48.4744 18.0417C48.4744 16.0718 46.6551 16.1226 45.13 16.1226H43.595V23.2104H45.0183V20.2655H45.4759C46.0753 20.2655 46.2588 20.4687 46.4618 20.9967L47.3158 23.2103H48.9018L47.7633 20.4377C47.6213 20.1231 47.3972 19.7374 47.011 19.707V19.6866C47.9158 19.5651 48.4744 18.8745 48.4744 18.0417ZM46.99 18.1638C46.99 19.0466 46.1877 19.1487 45.4859 19.1487H45.0183V17.2396H45.4859C46.1973 17.2396 46.99 17.3105 46.99 18.1638Z" fill="#231F20"/>
<path d="M55.9888 19.6462C55.9888 17.5032 54.738 16.0007 52.5121 16.0007C50.2555 16.0007 49.0352 17.4729 49.0352 19.6462C49.0352 21.8191 50.2349 23.3323 52.5121 23.3323C54.7589 23.3324 55.9888 21.7887 55.9888 19.6462ZM54.5049 19.6462C54.5049 20.9254 53.9655 22.2154 52.5121 22.2154C51.0581 22.2154 50.5192 20.9254 50.5192 19.6462C50.5192 18.3971 51.099 17.1174 52.5121 17.1174C53.9247 17.1175 54.5049 18.3971 54.5049 19.6462Z" fill="#231F20"/>
<path d="M36.3763 23.2104L33.5909 16.1226H31.9848L29.2194 23.2104H30.694L31.3138 21.5858H34.1905L34.8002 23.2104H36.3763ZM33.794 20.4687H31.7204L32.747 17.5443H32.7676L33.794 20.4687Z" fill="#231F20"/>
<path d="M42.3118 16.295C41.7016 16.1121 41.051 16.0009 40.2271 16.0009C37.8184 16.0009 36.334 17.3613 36.334 19.7885C36.334 22.1846 37.93 23.3325 40.2271 23.3325C40.99 23.3325 41.7728 23.1699 42.5251 22.9668V19.1488H39.6585V20.2655H41.1626V22.1137C40.9189 22.1745 40.6138 22.215 40.2273 22.215C38.7131 22.215 37.8185 21.1287 37.8185 19.6866C37.8185 18.235 38.7331 17.1174 40.3901 17.1174C40.9601 17.1174 41.6716 17.2395 42.2203 17.4933L42.3118 16.295Z" fill="#231F20"/>
<path d="M42.1376 31.3904L39.3514 24.3026H37.7457L34.9805 31.3904H36.4544L37.0748 29.7658H39.9515L40.5615 31.3904H42.1376ZM39.555 28.649H37.481L38.5082 25.7243H38.5281L39.555 28.649Z" fill="#231F20"/>
<path d="M42.881 31.3904H44.2433V26.0897H44.2631L46.9778 31.3904H48.7159V24.3027H47.3541V29.603H47.3334L44.6292 24.3027H42.881V31.3904Z" fill="#231F20"/>
<path d="M27.4621 16.1199H27.1432V31.3904H27.4621V16.1199Z" fill="#231F20"/>
<path d="M49.9701 31.3904H51.3934V28.1007H51.414L53.9655 31.3904H55.8255L52.786 27.6431L55.7037 24.3022H53.9552L51.3934 27.3489V24.3022H49.9701V31.3904Z" fill="#231F20"/>
<path d="M25.8021 31.3904H17.9824C18.6743 31.0105 19.1432 30.2754 19.1432 29.4317C19.1432 28.1974 18.1415 27.1966 16.9061 27.1966C15.6709 27.1966 14.6697 28.1974 14.6697 29.4317C14.6697 30.2754 15.1386 31.0105 15.8305 31.3904H8.01123L16.9062 16L25.8021 31.3904Z" fill="#E31B23"/>
</g>
</g>
<defs>
<clipPath id="clip0_1072_396">
<rect width="48" height="16" fill="white" transform="translate(8 16)"/>
</clipPath>
</defs>
</svg>