<svg xmlns="http://www.w3.org/2000/svg" width="38" height="24" fill="none"><path fill="#fff" d="M35 1a2 2 0 0 1 2 2v18a2 2 0 0 1-2 2H3a2 2 0 0 1-2-2V3a2 2 0 0 1 2-2h32Z"/><g fill="#0060AF" clip-path="url(#a)"><path d="M21.933 2.108c-.081.1-.148.164-.168.164-.005 0-.07-.016-.147-.036a2.509 2.509 0 0 0-.867-.106 6.868 6.868 0 0 0-2.132.389 6.35 6.35 0 0 0-1.661.87c-.44.324-.898.761-1.228 1.177-.597.755-1.008 1.638-1.16 2.498a3.756 3.756 0 0 0-.067.796c-.002.33.007.443.055.703.276 1.527 1.358 2.584 3.002 2.932.454.097 1.117.151 1.565.13.454-.022.603-.04 1.053-.13l.345-.069a.319.319 0 0 0 .188-.097c.015-.019.06-.102.101-.186.041-.082.31-.624.601-1.203.728-1.458.718-1.437.718-1.464 0-.014-.008-.027-.017-.03a.575.575 0 0 0-.159.073c-.282.156-.737.35-1.054.451-.599.19-1.17.221-1.736.09-.631-.145-1.067-.45-1.34-.933a1.671 1.671 0 0 1-.178-1.22c.169-.798.643-1.407 1.367-1.753a3.123 3.123 0 0 1 1.041-.297c.19-.02.724-.018.885.006.54.08 1.01.261 1.461.57.195.132.208.138.246.099.04-.043 1.454-2.469 1.454-2.497 0-.02-.011-.037-.038-.056a25.3 25.3 0 0 0-.698-.355C22.162 2.027 22.105 2 22.061 2c-.037 0-.045.006-.128.108ZM8.484 2.063a.257.257 0 0 0-.134.091c-.015.022-.124.217-.242.433l-.56 1.016c-.439.794-.62 1.134-.62 1.168 0 .013.009.029.02.035.01.005.153.01.317.013.295.004.3.004.32.028.025.03.044-.051-.234.955-.204.739-.619 2.249-1.234 4.493-.135.493-.25.918-.253.945-.013.091-.276.083 2.545.079 2.33-.003 2.505-.005 2.615-.021.713-.114 1.198-.284 1.702-.6.379-.236.758-.587.988-.91.231-.33.381-.687.444-1.058.023-.143.033-.516.016-.683a2.531 2.531 0 0 0-.142-.669c-.143-.358-.404-.63-.781-.813a.964.964 0 0 1-.122-.066c-.013-.01.013-.03.146-.104.551-.309.967-.671 1.279-1.111.372-.525.507-1.073.404-1.626-.115-.614-.475-1.063-1.069-1.333-.292-.133-.542-.199-.951-.254-.113-.014-4.405-.023-4.454-.008Zm3.094 2.472c.234.023.362.093.435.24.027.053.029.07.029.195a.792.792 0 0 1-.618.78c-.179.046-.26.052-.72.052a9.26 9.26 0 0 1-.453-.006c-.025-.01-.022-.045.02-.226l.135-.564c.059-.25.103-.414.116-.43.039-.05.044-.052.508-.052.24 0 .487.006.548.01Zm-.588 2.958a.63.63 0 0 1 .518.456.7.7 0 0 1-.056.445c-.083.183-.291.36-.534.452-.252.097-.393.11-1.037.107-.443-.004-.495-.006-.511-.021-.023-.021-.034.027.207-.842.148-.536.157-.566.19-.594l.035-.03.547.005c.444.004.564.007.641.022ZM25.575 2.073c-.054.023-.074.048-.138.168-.026.05-.07.125-.095.168-.091.15-1.209 2.087-1.252 2.169-.046.085-.055.128-.03.142.007.004.165.01.35.014.29.004.338.007.354.022.017.017.007.037-.127.283-.276.509-.808 1.493-1.805 3.345-1.482 2.753-1.532 2.847-1.54 2.877-.005.019-.001.034.011.044.016.015.184.017 1.686.017 1.131 0 1.677-.003 1.692-.01a.192.192 0 0 0 .048-.061c.028-.053.332-.732.518-1.156.116-.265.13-.292.183-.328.03-.022.041-.022 1-.025.535 0 .988 0 1.007.003.02.004.042.016.05.03.01.018.015.195.02.763.005.694.006.742.025.76.02.017.098.018 1.53.022.83 0 1.526 0 1.545-.004.023-.003.04-.014.047-.032.018-.035.017-.178-.003-.544a58.234 58.234 0 0 1-.034-.728c-.008-.233-.03-.688-.044-1.01a2732.255 2732.255 0 0 1-.228-4.975 87.763 87.763 0 0 1-.056-1.296 11.26 11.26 0 0 0-.032-.619c-.024-.058.143-.054-2.343-.056-2.22-.003-2.295-.002-2.34.017Zm1.903 3.05c.01.073.029 1.254.029 1.85v.548l-.028.025-.027.026h-.52c-.287 0-.533-.003-.546-.006-.034-.008-.037-.025-.014-.084a191.02 191.02 0 0 1 1.017-2.272c.067-.151.079-.163.089-.087ZM9.713 14.614l-.023.02v2.891c0 2.835 0 2.892.017 2.912l.017.02h1.322l.021-.02.02-.02V14.635l-.024-.02-.025-.021H9.734l-.021.021ZM12.098 14.61l-.021.015v.981l.02.02.02.02.659.002c.361.002.68 0 .706-.003.082-.009.078.021.078-.52 0-.257-.004-.479-.007-.492a.049.049 0 0 0-.03-.032 13.89 13.89 0 0 0-.714-.008c-.666 0-.691 0-.71.016ZM14.547 14.613l-.025.021v5.784l.02.02.021.02.635.002c.35.002.65 0 .666-.002a.071.071 0 0 0 .045-.029c.014-.02.015-.073.016-.74 0-.54.003-.727.012-.757a.631.631 0 0 1 .11-.196c.05-.064.073-.08.093-.06.012.011.402.61.865 1.326.132.203.248.382.261.397a.181.181 0 0 0 .06.045c.037.018.05.018.808.018.514 0 .777-.003.789-.009a.037.037 0 0 0 .017-.029c0-.027-.04-.085-1.088-1.6a60.69 60.69 0 0 1-.506-.737c-.019-.034-.019-.034 0-.065.009-.017.345-.416.747-.89.505-.592.73-.864.73-.877a.038.038 0 0 0-.017-.03 34.386 34.386 0 0 0-1.547 0c-.08.021-.105.047-.338.345-.543.69-.941 1.191-.962 1.208-.013.011-.026.02-.031.02-.005 0-.009-.596-.009-1.585v-1.585l-.023-.017c-.023-.018-.03-.018-.674-.018h-.65l-.025.02ZM4.057 14.843a.094.094 0 0 0-.044.027c-.011.017-.013.304-.013 2.775 0 1.675.004 2.764.008 2.777.005.012.02.024.038.03.038.013 1.38.014 1.415.001a.064.064 0 0 0 .032-.031c.006-.016.01-.316.012-.897.002-.867.002-.872.022-.935a.83.83 0 0 1 .206-.328c.035-.039.036-.039.055-.022.01.008.284.395.61.86l.752 1.074c.144.205.168.235.206.258l.045.026.852.002c.767.002.853.001.865-.012.024-.021.017-.045-.028-.105a2264.05 2264.05 0 0 0-1.229-1.694c-.891-1.23-.85-1.17-.85-1.194 0-.029.01-.044.171-.241l.975-1.212.855-1.06c.036-.04.04-.076.011-.095-.018-.012-.109-.014-.803-.014-.855 0-.84 0-.9.05-.016.013-.195.246-.4.518-.355.474-1.39 1.848-1.397 1.855-.002.002-.007 0-.01-.003-.005-.003-.01-.54-.012-1.192l-.004-1.184-.021-.02-.02-.02-.686-.001c-.407 0-.696.002-.713.007ZM19.66 14.843c-.06.017-.055-.212-.055 2.807 0 1.929.002 2.748.01 2.767.006.017.019.03.037.035.03.01 1.348.014 1.4.005.062-.012.058.045.063-.917l.004-.867.022-.016c.02-.016.04-.017.324-.017.712 0 1.004-.035 1.357-.16.405-.143.817-.457 1.026-.78.095-.148.19-.384.237-.59.07-.304.07-.655 0-.971-.115-.524-.467-.906-1.029-1.12-.297-.113-.567-.16-.994-.177-.281-.01-2.362-.01-2.402 0Zm2.172 1.091c.173.018.359.077.467.145a.65.65 0 0 1 .275.394 1.34 1.34 0 0 1 0 .472c-.073.296-.26.48-.562.557-.122.03-.254.046-.46.055-.232.012-.398.004-.42-.018-.016-.015-.017-.049-.017-.788 0-.825-.001-.807.045-.819.037-.009.578-.008.672.002ZM25.978 16.102a8.082 8.082 0 0 0-1.127.168c-.147.034-.154.039-.163.137-.003.04-.004.256-.002.48.002.37.004.41.019.436.03.054.062.05.276-.028.613-.226.992-.28 1.463-.214.247.036.405.096.502.195a.472.472 0 0 1 .134.293c.006.049.004.057-.012.073-.022.02-.039.023-.28.04-.316.023-.703.065-.918.1-.695.111-1.154.355-1.38.734a1.238 1.238 0 0 0-.153.464c-.019.131-.014.422.01.545.091.484.472.881.955.998.17.041.295.053.506.048.213-.004.313-.02.5-.079.22-.069.391-.162.6-.323.14-.108.133-.103.149-.094.01.006.014.041.018.175.005.161.005.17.025.188l.02.02.632.002c.347.002.644 0 .66-.002.062-.01.057.116.057-1.578 0-1.35-.002-1.543-.014-1.61a1.204 1.204 0 0 0-.71-.928 2.287 2.287 0 0 0-.661-.19 3.789 3.789 0 0 0-.724-.051h-.382Zm1.074 2.405a.094.094 0 0 1 .018.041c.003.016.005.194.003.398l-.003.37-.025.036c-.041.06-.193.158-.323.208-.161.062-.336.08-.508.056-.176-.025-.263-.057-.34-.126-.088-.08-.124-.183-.125-.36 0-.096.004-.126.02-.177.076-.233.316-.355.816-.416.377-.046.445-.05.467-.03ZM12.156 16.225a.067.067 0 0 0-.029.025c-.007.012-.01.64-.01 2.092 0 2.03 0 2.075.017 2.095l.017.02h1.322l.021-.02.021-.02.003-2.057c0-1.384-.001-2.07-.007-2.092-.008-.026-.016-.035-.038-.042a25.815 25.815 0 0 0-1.317 0ZM28.63 16.232c-.019.015-.02.02-.012.05.01.034.733 1.878 1.285 3.273.281.713.285.723.285.787 0 .062-.004.073-.114.343-.256.62-.502 1.235-.506 1.26-.01.058-.058.055.738.055.675 0 .723 0 .741-.015.02-.017.084-.177 1.422-3.644.492-1.274.79-2.058.79-2.077 0-.025-.004-.032-.023-.039a27.964 27.964 0 0 0-1.365 0 .085.085 0 0 0-.037.031c-.01.012-.199.58-.423 1.26a51.2 51.2 0 0 1-.42 1.251c-.011.01-.014.01-.023-.006-.005-.01-.204-.57-.44-1.245a93.814 93.814 0 0 0-.445-1.255.083.083 0 0 0-.038-.036 13.866 13.866 0 0 0-.71-.008c-.652 0-.686 0-.706.015Z"/></g><defs><clipPath id="a"><path fill="#fff" d="M4 2h30v20H4z"/></clipPath></defs></svg>