<svg width="38" height="24" viewBox="0 0 64 48" fill="none" xmlns="http://www.w3.org/2000/svg">
<g clip-path="url(#clip0_1072_80)">
<mask id="mask0_1072_80" style="mask-type:luminance" maskUnits="userSpaceOnUse" x="8" y="17" width="48" height="14">
<path d="M56 17.4032H8V30.997H56V17.4032Z" fill="white"/>
</mask>
<g mask="url(#mask0_1072_80)">
<path fill-rule="evenodd" clip-rule="evenodd" d="M15.5929 25.5097L13.1574 25.509C13.1574 25.509 13.0837 25.5008 13.0465 25.4362C13.01 25.3731 13.0196 25.3395 13.0196 25.3395V23.0694C13.0196 23.0694 13.0167 22.9887 13.0599 22.9405C13.1014 22.8942 13.1778 22.892 13.1778 22.892H16.3868C16.3868 22.892 16.4382 22.8841 16.4972 22.917C16.5483 22.9446 16.5764 23.0511 16.5764 23.0511V25.3808C16.5764 25.3808 16.5483 25.4456 16.5202 25.4684C16.495 25.49 16.4422 25.5082 16.4422 25.5082L15.5929 25.5097ZM15.5742 21.4318V18.9205C18.1532 19.2958 20.1344 21.5163 20.1344 24.1993C20.1344 26.882 18.1578 29.1056 15.579 29.4822L15.5746 26.9535H16.5754C17.4109 26.9535 18.0246 26.3274 18.0246 25.4922V22.8754C18.0246 22.0405 17.3593 21.4306 16.5238 21.4306L15.5742 21.4318ZM11.5414 22.8754C11.5414 22.0405 12.0495 21.4266 12.8842 21.4266L13.9962 21.4232V18.9265C11.4301 19.3136 9.46184 21.5254 9.46184 24.1993C9.46184 26.8736 11.4303 29.0912 13.9962 29.4778L13.9921 26.9718L13.0621 26.971C12.2264 26.971 11.5414 26.3271 11.5414 25.4922V22.8754ZM8 24.1993C8 20.4459 11.0439 17.4032 14.798 17.4032C18.5526 17.4032 21.5958 20.4462 21.5958 24.1993C21.5958 27.9543 18.5523 30.9968 14.798 30.9968C11.0439 30.9968 8 27.9546 8 24.1993Z" fill="#B10A32"/>
</g>
<mask id="mask1_1072_80" style="mask-type:luminance" maskUnits="userSpaceOnUse" x="8" y="17" width="48" height="14">
<path d="M56 17.4032H8V30.997H56V17.4032Z" fill="white"/>
</mask>
<g mask="url(#mask1_1072_80)">
<path fill-rule="evenodd" clip-rule="evenodd" d="M53.4181 30.4116C53.4181 30.4116 53.4265 30.3636 53.4471 30.3423C53.4673 30.3219 53.5873 30.2911 53.637 30.2304C53.6833 30.169 54.6786 27.9156 54.6786 27.9156L54.739 27.9005L55.6542 30.0005C55.7156 30.1387 55.7574 30.2314 55.7914 30.2659C55.8284 30.2981 55.9203 30.3372 55.9818 30.342C56.0182 30.3451 55.9971 30.3982 55.9971 30.3982L54.992 30.3975C54.992 30.3975 54.925 30.3459 54.992 30.3202C55.0333 30.3051 55.1946 30.2551 55.2198 30.1531C55.232 30.1073 55.2094 30.0003 55.1636 29.8779C55.1317 29.7915 55.0412 29.6019 54.9901 29.5659C54.9442 29.5337 54.7551 29.5507 54.5809 29.5459C54.423 29.5409 54.2139 29.5354 54.1467 29.5709C54.0642 29.6148 53.9722 29.9621 53.953 30.0154C53.9348 30.0672 53.953 30.1887 53.9984 30.2247C54.0757 30.2854 54.2295 30.3319 54.2842 30.3473C54.3044 30.3531 54.2994 30.4087 54.2994 30.4087L53.4181 30.4116ZM54.9382 29.3823C54.9644 29.3482 54.8689 29.1607 54.7808 28.9635C54.7143 28.8159 54.6022 28.5281 54.5658 28.5399C54.5401 28.5475 54.4496 28.7746 54.3769 28.9378C54.3001 29.1147 54.2077 29.3355 54.2446 29.3719C54.2667 29.394 54.4383 29.4079 54.5811 29.4027C54.7455 29.3967 54.9157 29.413 54.9382 29.3823ZM26.9756 29.8757C27.0296 29.6143 26.9706 29.4415 26.8177 29.3134C26.7452 29.2536 26.551 29.1605 26.3934 29.1605C26.1754 29.1605 26.0334 29.1401 26.0334 29.3827L26.0355 29.9729C26.0355 30.3051 26.4493 30.2698 26.4493 30.2698C26.7862 30.27 26.9348 30.0751 26.9756 29.8757ZM33.5094 30.3149C33.5132 30.3202 33.6378 30.2844 33.6944 30.1983C33.7234 30.1515 33.7609 30.0883 33.7609 29.9323V28.3687C33.7609 28.2723 33.7299 28.1787 33.6886 28.1398C33.6493 28.0995 33.585 28.0579 33.4436 28.0476C33.4436 28.0476 33.3363 27.9807 33.4436 27.9507C33.4486 27.9552 34.389 27.949 34.389 27.949C34.389 27.949 34.4746 27.9761 34.3993 28.0164C34.3314 28.0527 34.2709 28.0272 34.2159 28.0889C34.177 28.1316 34.1545 28.2139 34.154 28.3476V29.1195C34.154 29.1502 34.1835 29.196 34.1934 29.1967C34.245 29.202 34.2759 29.1391 34.3011 29.1252C34.4038 29.0381 34.5618 28.8677 34.7048 28.7311C34.9621 28.4866 35.0919 28.3606 35.1342 28.303C35.1898 28.2259 35.2016 28.1189 35.1692 28.0829C35.1342 28.0421 35.0576 28.0421 34.9911 28.0212C34.9911 28.0212 34.9302 27.9804 35.0014 27.955C35.0014 27.9603 35.8434 27.955 35.8434 27.955C35.8434 27.955 35.8748 28.0315 35.8287 28.0527C35.7116 28.063 35.6684 28.0875 35.599 28.1242C35.5321 28.1578 35.3924 28.2557 35.2724 28.3745C35.2724 28.3745 34.6566 28.9042 34.6798 28.9661C34.7154 29.0635 35.0708 29.4799 35.3122 29.8147C35.4159 29.9578 35.5194 30.1373 35.5784 30.1824C35.636 30.2239 35.7265 30.3099 35.8035 30.3099C35.8926 30.3099 35.8498 30.3912 35.8498 30.3912C35.8498 30.3912 35.3698 30.3742 35.2873 30.3823C35.2306 30.3864 35.1634 30.2844 35.1649 30.2844C34.976 30.0394 34.4398 29.2887 34.399 29.2419C34.3784 29.2267 34.1581 29.3899 34.154 29.5284C34.1583 29.5234 34.154 29.9832 34.154 29.9832C34.154 30.1195 34.1854 30.1884 34.2238 30.2283C34.2918 30.294 34.46 30.3147 34.46 30.3099C34.5368 30.3307 34.485 30.3823 34.485 30.3823H33.4688C33.4688 30.3823 33.434 30.331 33.5094 30.3149ZM30.3601 30.3166C30.4294 30.2897 30.555 30.211 30.603 30.1572C30.6493 30.1023 30.6848 30.0555 30.6848 29.8611C30.6848 29.8611 30.6742 28.6752 30.6742 28.5007C30.6742 28.3594 30.6241 28.1703 30.5576 28.1184C30.4902 28.0671 30.411 28.0356 30.3274 28.0318C30.3274 28.0318 30.261 27.9605 30.3325 27.9449C30.3529 27.9406 30.9704 27.9449 30.9704 27.9449L32.4826 29.6151C32.4826 29.6151 32.5417 29.6885 32.5746 29.6719C32.581 29.6681 32.5887 29.598 32.5892 29.5901C32.5952 29.4624 32.5906 28.4796 32.5906 28.4796C32.5906 28.3745 32.6113 28.2567 32.539 28.1746C32.4476 28.0702 32.2657 28.0517 32.2126 28.0315C32.1711 28.0164 32.1711 27.9701 32.2172 27.955C32.2172 27.9689 33.0248 27.955 33.0248 27.955C33.081 27.9603 33.0394 28.0164 33.0394 28.0164C32.9485 28.0421 32.8585 28.0623 32.8158 28.1184C32.7646 28.1849 32.7385 28.2852 32.7385 28.4796V30.426H32.6696C32.6696 30.426 31.0098 28.6217 30.9094 28.5226C30.8638 28.4763 30.8485 28.5377 30.8485 28.5987C30.8485 28.6601 30.8434 29.8395 30.8434 29.8395C30.8434 30.043 30.8845 30.1673 31.0134 30.2347C31.0638 30.2604 31.1936 30.2938 31.2519 30.3048C31.2778 30.3099 31.2906 30.3835 31.2906 30.3835H30.3603C30.3601 30.384 30.3354 30.3255 30.3601 30.3166ZM27.6054 30.3898C27.6054 30.3898 27.6145 30.3413 27.6354 30.3204C27.6553 30.2995 27.7753 30.2693 27.824 30.2081C27.8703 30.1467 28.8663 27.8938 28.8663 27.8938L28.928 27.8789L29.8426 29.9787C29.9036 30.1157 29.9439 30.2093 29.9806 30.2436C30.0164 30.2765 30.1083 30.3149 30.1693 30.3202C30.2058 30.3231 30.1854 30.3759 30.1854 30.3759L29.168 30.4018C29.168 30.4018 29.1327 30.3456 29.1987 30.3199C29.2398 30.3039 29.383 30.2333 29.4078 30.1303C29.4198 30.0843 29.3982 29.9784 29.3523 29.8546C29.3199 29.7689 29.2294 29.5793 29.1778 29.5438C29.1327 29.5109 28.9434 29.5284 28.7696 29.5234C28.611 29.5183 28.4019 29.5123 28.3359 29.5488C28.2524 29.5937 28.1607 29.9391 28.1408 29.9931C28.123 30.0454 28.1408 30.1673 28.1871 30.2026C28.2639 30.2628 28.4175 30.3096 28.4737 30.3245C28.4931 30.3305 28.4883 30.3862 28.4883 30.3862L27.6054 30.3898ZM29.1272 29.3602C29.1519 29.3271 29.0569 29.1391 28.9686 28.9416C28.9018 28.7928 28.79 28.506 28.7535 28.5173C28.7276 28.5247 28.6362 28.7523 28.5649 28.9159C28.4871 29.0916 28.3942 29.3131 28.4317 29.3496C28.4538 29.3719 28.6258 29.3849 28.7686 29.3799C28.9328 29.3751 29.1039 29.3909 29.1272 29.3602ZM26.8534 28.579C26.8554 28.4151 26.7601 28.2624 26.6538 28.1746C26.5926 28.1242 26.475 28.0623 26.3422 28.0623C26.1579 28.0623 26.037 28.0872 26.037 28.2612L26.0355 28.9099C26.0206 29.0635 26.3876 29.0251 26.3876 29.0251C26.695 29.0254 26.8479 28.9824 26.8534 28.579ZM25.3052 30.3139C25.4278 30.2796 25.5178 30.2489 25.555 30.2031C25.5963 30.1515 25.611 30.1191 25.6119 29.9823V28.3447C25.6117 28.2463 25.5865 28.1904 25.5298 28.129C25.4197 28.009 25.2901 28.0877 25.2697 28.0426C25.2536 28.0078 25.2589 27.9468 25.2589 27.9468H26.2897C26.5842 27.9468 26.7793 27.9595 26.955 28.0481C27.0877 28.1139 27.2463 28.2727 27.2463 28.5101C27.2463 28.8399 26.9804 28.9572 26.8731 29.034C27.0776 29.0892 27.4148 29.2073 27.4148 29.5906C27.4148 29.988 27.1952 30.2391 26.9854 30.3055C26.8422 30.3507 26.6629 30.3785 26.4577 30.3799H25.305V30.3139H25.3052ZM40.1154 30.3351C40.1154 30.3423 40.2433 30.2945 40.2992 30.2491C40.3395 30.2165 40.371 30.1483 40.371 29.9878L40.376 28.4412C40.376 28.3107 40.3606 28.2516 40.3146 28.1803C40.2687 28.1093 40.1557 28.0932 40.0234 28.0728C40.0234 28.0728 39.9265 28.0013 39.9949 27.9715C39.9884 27.9706 40.712 27.9766 41.0602 27.9809C41.4183 27.9867 41.7752 27.9516 41.8117 27.9763C41.8575 28.0071 41.8338 28.35 41.8417 28.4153C41.8472 28.4506 41.8186 28.5231 41.7867 28.5274C41.745 28.5324 41.7356 28.4599 41.7356 28.4153C41.7356 28.3236 41.6569 28.2163 41.6382 28.1904C41.589 28.1244 41.4942 28.1131 41.4488 28.1131H40.8994C40.8507 28.1131 40.837 28.1112 40.8207 28.1287C40.8075 28.1451 40.7864 28.1849 40.7842 28.2367V28.9159C40.7842 28.9567 40.7866 29.0136 40.8109 29.0227C40.8666 29.0427 41.2347 29.0379 41.2347 29.0379C41.2962 29.0379 41.367 28.9762 41.3886 28.9414C41.4195 28.8852 41.4726 28.8187 41.5002 28.7369C41.5155 28.6906 41.5971 28.6543 41.5971 28.7573C41.5971 28.8216 41.6074 29.5531 41.6074 29.5531C41.5666 29.61 41.5311 29.5385 41.5311 29.5385C41.504 29.3962 41.4786 29.3451 41.4327 29.2985C41.39 29.2519 41.3269 29.1963 41.235 29.1963C41.235 29.1963 40.9256 29.1917 40.9177 29.191C40.8001 29.1804 40.7948 29.3079 40.7907 29.3549C40.7907 29.3599 40.7847 30.0087 40.7847 30.0087C40.7907 30.0749 40.8054 30.1635 40.8471 30.2028C40.8884 30.2383 40.9928 30.313 41.133 30.3247C41.1985 30.3307 41.1531 30.4061 41.1531 30.4061H40.0904C40.0904 30.4061 40.0395 30.3715 40.1154 30.3351ZM37.5716 28.2461C37.7974 28.0303 38.1253 27.9367 38.4553 27.9353C38.7862 27.9353 39.0601 27.9864 39.2883 28.2053C39.5331 28.4407 39.6591 28.7311 39.6615 29.1252C39.6615 29.5236 39.5336 29.8483 39.278 30.0845C39.0512 30.2955 38.7325 30.42 38.4085 30.421C38.0643 30.421 37.7334 30.3286 37.5051 30.0955C37.2754 29.8594 37.1905 29.5409 37.1888 29.1653C37.1886 28.7746 37.3237 28.4854 37.5716 28.2461ZM37.8879 30.0243C38.0905 30.2542 38.2311 30.3053 38.5114 30.3053C38.7056 30.3053 38.9014 30.1903 39.0529 30.0091C39.1803 29.8551 39.2418 29.5851 39.2418 29.1859C39.2418 28.7854 39.1321 28.5185 38.9811 28.3342C38.8076 28.1187 38.6202 28.0692 38.4042 28.068C38.1858 28.068 37.965 28.1244 37.821 28.2876C37.665 28.4659 37.5942 28.7511 37.5922 29.1406C37.5922 29.5258 37.7751 29.8963 37.8879 30.0243ZM50.7058 30.3149C50.7058 30.3202 50.8695 30.264 50.931 30.1716C50.9694 30.1145 50.9938 30.0598 50.9938 29.8659L50.9718 28.338C50.9614 28.2214 50.8734 28.1381 50.834 28.1184C50.7829 28.093 50.6994 28.0987 50.655 28.0625C50.655 28.0625 50.5532 27.9867 50.6398 27.9703C50.6334 27.9735 51.2576 27.9499 51.2655 27.9735C51.3349 28.0167 52.3105 29.0991 52.713 29.5647C52.8466 29.7226 52.8978 29.6967 52.8925 29.5443C52.8975 29.5443 52.8975 28.3995 52.8975 28.3995C52.8975 28.2367 52.8159 28.1801 52.7809 28.1544C52.7062 28.1011 52.6364 28.0625 52.5147 28.0416C52.5147 28.0416 52.4125 28.0068 52.5147 27.9735C52.5198 27.9763 53.3163 27.9735 53.3163 27.9735C53.3725 27.9703 53.3725 28.0167 53.3163 28.0318C53.245 28.0318 53.1598 28.0896 53.1128 28.1439C53.067 28.1983 53.043 28.3198 53.043 28.5142L53.0406 30.3826C53.0355 30.4687 52.9539 30.4227 52.9539 30.4227C52.9539 30.4227 51.4309 28.7628 51.2499 28.5593C51.2485 28.5569 51.2218 28.507 51.1777 28.5384C51.1501 28.5583 51.1472 28.5679 51.1501 28.6138C51.1501 28.6195 51.1549 29.8659 51.1549 29.8659C51.1549 30.0672 51.2247 30.1781 51.2833 30.2386C51.3207 30.2779 51.3836 30.3118 51.5182 30.3247C51.5998 30.3202 51.5852 30.4063 51.5852 30.4063L50.6502 30.4071C50.6502 30.4071 50.6348 30.3351 50.7058 30.3149ZM49.2855 30.3408C49.321 30.331 49.3995 30.2883 49.4444 30.2542C49.4871 30.2194 49.5118 30.1515 49.5133 30.0084L49.5202 28.4304C49.5152 28.3282 49.5152 28.2055 49.465 28.1547C49.3904 28.0807 49.3066 28.0488 49.1557 28.0419C49.1557 28.0419 49.0914 28.0071 49.1557 27.9737C49.1586 27.9809 50.1706 27.9737 50.1706 27.9737C50.2518 27.9869 50.1598 28.0419 50.1598 28.0419C50.0773 28.0426 50.0132 28.0858 49.9803 28.1247C49.9345 28.1803 49.9362 28.2948 49.9292 28.3798V30.0087C49.9292 30.1503 49.9765 30.234 50.0216 30.2705C50.0643 30.3019 50.1159 30.3288 50.2666 30.3418C50.3636 30.3567 50.2666 30.4075 50.2666 30.4075L49.2855 30.4068C49.2082 30.3826 49.2855 30.3408 49.2855 30.3408ZM46.0971 30.331C46.0923 30.3315 46.2505 30.2278 46.2865 30.1875C46.3225 30.1498 46.3534 30.0869 46.3534 29.9271L46.3638 28.4052C46.3638 28.273 46.3371 28.1995 46.3076 28.1496C46.2716 28.0875 46.1886 28.0783 46.0513 28.0678C46.0513 28.0678 45.8581 28.0215 46.0366 27.9761C46.0352 27.9833 46.9918 27.9761 46.9918 27.9761C47.0941 27.9807 47.0077 28.0414 47.0077 28.0414C46.9309 28.0421 46.869 28.0675 46.8306 28.1143C46.7958 28.1587 46.7617 28.2367 46.7696 28.3714V28.9099C46.7696 28.9099 46.7617 29.0379 46.8742 29.0333C47.0384 29.0254 47.7723 29.0472 47.8868 29.0381C48.019 29.0275 48.0447 28.9455 48.0447 28.8845C48.0502 28.7311 48.0447 28.387 48.0447 28.387C48.0447 28.2559 48.0087 28.1556 47.9694 28.1143C47.931 28.0755 47.8419 28.0527 47.7058 28.0414C47.6098 28.027 47.6768 27.9732 47.6768 27.9732L48.693 27.9739C48.693 27.9739 48.7441 28.0315 48.663 28.0421C48.5799 28.0373 48.5473 28.0735 48.5065 28.1143C48.4662 28.1542 48.4474 28.2389 48.4474 28.3714L48.4479 29.9933C48.4479 30.1263 48.4741 30.1683 48.5144 30.2081C48.5538 30.2436 48.5974 30.3065 48.7338 30.3204C48.8055 30.331 48.836 30.4023 48.7549 30.4071C48.7597 30.4169 47.8249 30.4277 47.8249 30.4277C47.8249 30.4277 47.7015 30.3715 47.8402 30.3247C47.8402 30.3307 47.9475 30.2897 47.9888 30.2232C48.015 30.1786 48.0346 30.0598 48.0346 29.9787C48.0346 29.9787 48.0394 29.4111 48.0394 29.3237C48.0394 29.263 48.0188 29.1807 47.9362 29.1967C47.9362 29.1967 46.9407 29.1934 46.8586 29.1857C46.8025 29.1807 46.7662 29.2111 46.7662 29.3191C46.7691 29.3167 46.7662 29.9638 46.7662 29.9638C46.7662 30.0958 46.8385 30.204 46.8793 30.2439C46.9186 30.2813 46.9938 30.3185 47.1301 30.331C47.2477 30.3461 47.1601 30.4071 47.1601 30.4071L46.0731 30.4063C46.0731 30.4063 46.0114 30.3511 46.0971 30.331ZM45.081 28.0423C45.2108 28.1091 45.3159 28.165 45.3735 28.1602C45.4074 28.1563 45.4364 28.0853 45.4489 28.0423C45.5055 27.9655 45.5252 28.1038 45.5252 28.0987L45.572 28.7878C45.572 28.7878 45.5252 28.8545 45.4801 28.7878C45.4304 28.6248 45.3025 28.4439 45.2139 28.3486C45.0807 28.2053 44.8402 28.0625 44.5854 28.0572C44.2952 28.0527 44.0922 28.1724 43.9422 28.3594C43.8138 28.5173 43.7377 28.783 43.7377 29.059C43.7377 29.3849 43.8764 29.7639 44.0706 29.9475C44.258 30.1263 44.4591 30.2167 44.725 30.2182C44.9139 30.2182 45.0212 30.1663 45.183 30.0751C45.2749 30.0247 45.399 29.8903 45.5115 29.784C45.577 29.7279 45.6118 29.8044 45.6118 29.8044C45.6222 29.8608 45.4112 30.0804 45.2401 30.2182C45.1117 30.3204 44.7793 30.4383 44.612 30.4383C44.2155 30.4383 43.987 30.4169 43.6407 30.1061C43.4444 29.9292 43.3338 29.5639 43.3314 29.2135C43.3314 28.8569 43.4458 28.5562 43.6712 28.3131C43.9093 28.0579 44.2167 27.93 44.6017 27.93C44.7354 27.9303 44.9535 27.9761 45.081 28.0423Z" fill="black"/>
</g>
<mask id="mask2_1072_80" style="mask-type:luminance" maskUnits="userSpaceOnUse" x="8" y="17" width="48" height="14">
<path d="M56 17.4032H8V30.997H56V17.4032Z" fill="white"/>
</mask>
<g mask="url(#mask2_1072_80)">
<mask id="mask3_1072_80" style="mask-type:luminance" maskUnits="userSpaceOnUse" x="8" y="17" width="49" height="14">
<path d="M56.0523 17.4032H8V30.997H56.0523V17.4032Z" fill="white"/>
</mask>
<g mask="url(#mask3_1072_80)">
<path fill-rule="evenodd" clip-rule="evenodd" d="M35.0463 21.0042C35.0622 20.9732 35.067 21.0298 35.1418 21.1126C35.217 21.1947 35.1709 21.2199 35.2165 21.2864C35.2616 21.3536 35.2623 21.3186 35.2508 21.3944C35.24 21.4702 35.2251 21.4554 35.1574 21.5101C35.0919 21.5658 35.1471 21.541 35.0821 21.4743C35.0161 21.4064 35.0737 21.3111 35.0084 21.2538C34.9424 21.1966 34.9371 21.1966 34.9532 21.1054C34.97 21.0135 35.031 21.0344 35.0463 21.0042ZM34.789 21.2554C34.8195 21.2355 34.8735 21.3289 34.9141 21.4261C34.953 21.5233 34.9534 21.5026 34.9882 21.6104C35.023 21.7177 35.0132 21.6668 34.9254 21.7676C34.8368 21.8684 34.7197 21.8562 34.6018 21.9622C34.4833 22.0683 34.4322 22.0371 34.3239 22.1122C34.2162 22.1874 34.232 22.1614 34.1401 22.125C34.0486 22.088 34.0539 22.063 34.1161 21.9867C34.178 21.9114 34.1677 21.9519 34.2135 21.9114C34.2603 21.8713 34.1583 21.865 34.2097 21.8247C34.2618 21.7846 34.256 21.841 34.3381 21.7498C34.4216 21.6584 34.3957 21.6438 34.4271 21.5881C34.4581 21.5322 34.4941 21.4664 34.5819 21.4258C34.67 21.387 34.7581 21.2761 34.789 21.2554ZM35.4594 19.0818C35.4908 19.0664 35.5563 19.0676 35.6281 19.0784C35.6689 19.0846 35.5966 19.0676 35.7762 19.0599C35.8681 19.0558 35.9178 19.1026 35.9994 19.1497C36.1897 19.2591 36.3234 19.298 36.3642 19.3575C36.3992 19.4091 36.4256 19.5078 36.4124 19.5834C36.4011 19.6441 36.3946 19.761 36.3174 19.8258C36.2499 19.8834 36.2122 19.935 36.1791 19.9676C36.1477 19.9978 36.1594 20.0893 36.1045 20.1094C36.039 20.1344 35.9883 20.0878 35.9067 20.0866C35.8191 20.0859 35.7529 20.1358 35.7282 20.1097C35.7099 20.0914 35.6893 20.0598 35.6564 20.0377C35.6269 20.017 35.5822 20.0319 35.5762 19.9954C35.5669 19.939 35.4961 19.7898 35.4421 19.7343C35.4214 19.7134 35.4735 19.6062 35.444 19.5706C35.4135 19.5349 35.4188 19.4785 35.4145 19.4427C35.4094 19.4058 35.4106 19.3746 35.4106 19.3357C35.4111 19.3006 35.3638 19.2435 35.3862 19.1974C35.4027 19.1677 35.4265 19.0978 35.4594 19.0818ZM34.6335 19.724C34.6148 19.6268 34.7264 19.6537 34.8289 19.599C34.9321 19.544 34.881 19.5584 34.91 19.6402C34.939 19.7228 34.88 19.6458 34.8534 19.7569C34.8262 19.8687 34.8262 19.8488 34.754 19.8987C34.6822 19.9484 34.6926 19.8932 34.658 19.8363C34.6227 19.7799 34.6532 19.821 34.6335 19.724ZM33.4095 19.1079C33.3889 19.0597 33.5137 18.8946 33.8449 18.4808C34.1394 18.1126 34.7499 17.87 35.0012 17.7814C35.0542 17.7615 35.2323 17.7102 35.2928 17.6974C35.3386 17.6886 35.5244 17.6799 35.5688 17.665C35.6554 17.6355 35.8023 17.6468 35.829 17.6326C35.8928 17.6019 35.9602 17.5856 36.0342 17.5695C36.1194 17.5503 36.2274 17.5971 36.3037 17.583C36.4542 17.5546 36.5708 17.6403 36.6548 17.6835C36.9435 17.8357 37.2582 18.3697 37.3772 18.6723C37.4953 18.9742 37.7396 19.8238 37.7826 20.5184C37.8102 20.9636 37.7938 22.1298 37.777 22.3083C37.7456 22.6261 37.7324 23.3739 37.7106 23.5162C37.6844 23.6883 37.6647 23.9847 37.6018 24.0913C37.4866 24.2876 37.0167 24.6378 36.9157 24.7297C36.8331 24.8055 36.477 25.1149 36.4371 25.1118C36.385 25.1086 36.3255 25.0033 36.2144 24.8955C36.0166 24.7006 35.4994 24.5194 35.282 24.399C35.0682 24.2814 34.3669 24.2163 33.9385 24.1892C33.6325 24.1695 33.164 24.1287 33.1486 24.0939C33.1328 24.0522 33.098 24.0668 33.0517 24.0654C33.0099 24.0654 33.0058 24.1172 32.9955 24.1366C32.9797 24.1676 33.0152 24.153 32.9998 24.2391C32.9835 24.326 33.0248 24.2701 33.0337 24.3414C33.043 24.4136 33.074 24.3829 33.0483 24.4486C33.0222 24.5142 33.1542 24.5624 33.1782 24.6337C33.2082 24.7191 33.2067 24.8281 33.1148 24.8319C33.0154 24.836 32.9293 24.8756 32.8237 24.8382C32.7478 24.812 32.4853 24.5746 32.4716 24.4263C32.4603 24.2996 32.4421 24.0075 32.4322 23.9158C32.4135 23.7529 32.3526 23.3238 32.3346 23.1085C32.317 22.8946 32.2959 22.9402 32.3379 22.8538C32.3799 22.7679 32.2726 22.754 32.3101 22.6393C32.3365 22.5577 32.3031 22.4002 32.3499 22.298C32.371 22.2519 32.3156 22.2529 32.3204 22.2061C32.3264 22.1444 32.3322 22.1038 32.348 22.0431C32.3607 21.9958 32.3545 21.9409 32.3504 21.8547C32.3461 21.7681 32.3466 21.7323 32.3828 21.6714C32.4054 21.6337 32.3636 21.6145 32.3696 21.5384C32.373 21.4947 32.4262 21.0949 32.4478 20.943C32.4704 20.7901 32.504 20.385 32.5323 20.3319C32.6106 20.185 32.6562 19.8536 32.6874 19.737C32.7217 19.6131 32.8294 19.5022 32.8542 19.4072C32.865 19.3671 32.9314 19.3321 32.9574 19.3472C32.9922 19.3693 33.0066 19.4763 33.0061 19.5166C33.0051 19.5759 32.9667 19.8342 32.9406 19.8877C32.9091 19.9542 32.8755 20.193 32.8702 20.2287C32.8604 20.2926 32.8585 20.3662 32.852 20.4123C32.847 20.4574 32.816 20.5189 32.7994 20.5695C32.7862 20.6115 32.8098 20.696 32.7975 20.738C32.7812 20.7939 32.7862 20.8299 32.7601 20.8753C32.7351 20.9192 32.7747 20.9619 32.7586 20.9974C32.739 21.0416 32.7778 21.0843 32.7469 21.135C32.714 21.1878 32.768 21.1995 32.7507 21.2677C32.7286 21.3493 32.7325 21.4155 32.7123 21.4558C32.6917 21.4964 32.7507 21.5497 32.7301 21.6248C32.7039 21.7261 32.7222 22.3042 32.7061 22.4199C32.6888 22.5368 32.6943 22.9045 32.709 22.9712C32.7193 23.0163 32.7231 23.1082 32.7634 23.1034C32.8141 23.0982 32.823 22.9328 32.8736 22.9424C32.9026 22.9477 32.8834 23.0418 32.8909 23.1056C32.9046 23.2225 32.8959 23.1224 32.9238 23.3302C32.9425 23.468 32.9187 23.6974 32.9391 23.7694C32.9588 23.8407 32.9475 23.9074 33.0236 23.9077C33.0901 23.9079 33.0658 23.8568 33.117 23.792C33.1695 23.726 33.1726 23.7157 33.2149 23.7471C33.2499 23.773 33.5002 23.7711 33.5818 23.757C33.6877 23.7382 33.7614 23.6504 33.8336 23.5964C33.9212 23.5318 34.2615 23.2093 34.4326 23.0638C34.509 22.9976 34.7214 22.7456 34.8044 22.6652C34.9407 22.5315 35.1531 22.3112 35.186 22.2726C35.2122 22.2414 35.2225 22.201 35.1925 22.1444C35.1752 22.1096 35.1474 22.1031 35.1118 22.1238C35.0233 22.1727 34.9102 22.3198 34.8236 22.3738C34.6688 22.4713 34.4763 22.6014 34.3712 22.6652C34.2522 22.7348 34.083 22.8142 33.9752 22.874C33.8355 22.9518 33.6802 23.0022 33.657 23.013C33.6058 23.0382 33.5871 23.0533 33.5403 23.0166C33.4995 22.9861 33.5127 23.0031 33.5521 22.874C33.5782 22.7881 33.5103 22.694 33.607 22.5685C33.669 22.4883 33.7275 22.2798 33.8264 22.1583C33.8614 22.1156 34.0515 21.877 34.0899 21.8151C34.1223 21.7645 34.1847 21.7366 34.1936 21.7191C34.225 21.6574 34.2639 21.5821 34.2826 21.5725C34.347 21.5389 34.4115 21.4426 34.4218 21.4316C34.443 21.4066 34.4514 21.3915 34.4382 21.35C34.4331 21.3339 34.4002 21.2773 34.3614 21.3241C34.3206 21.3742 34.2447 21.3879 34.2133 21.4086C34.1557 21.446 34.171 21.5151 34.1139 21.5194C34.0318 21.5262 34.0398 21.3918 34.0506 21.3457C34.0633 21.2914 34.0206 21.2785 34.0467 21.2223C34.1072 21.0942 34.0894 21.0805 34.1053 21.0546C34.1211 21.0296 34.1343 21.049 34.1672 21.0102C34.1878 20.9842 34.1466 20.9485 34.1732 20.9182C34.2248 20.8566 34.2406 20.7841 34.2927 20.7514C34.3489 20.7166 34.4475 20.5851 34.4578 20.5494C34.4715 20.5054 34.4742 20.4618 34.4898 20.4169C34.4953 20.4018 34.4372 20.3938 34.4146 20.3658C34.389 20.3348 34.4098 20.3149 34.4211 20.2585C34.4262 20.2278 34.3654 20.1913 34.3654 20.1505C34.3674 20.1042 34.3611 20.0842 34.3059 20.0886C34.2488 20.0929 34.1269 20.2196 34.028 20.2381C33.9258 20.2575 33.8456 20.185 33.8972 20.0833C33.9622 19.958 34.1146 19.7751 34.1461 19.7401C34.1919 19.6878 34.183 19.6383 34.178 19.5872C34.1746 19.5344 34.1269 19.4187 34.111 19.2954C34.1017 19.2241 34.0244 18.9596 34.0083 18.927C33.999 18.9061 33.9754 18.843 34.035 18.8197C34.0611 18.8098 34.1118 18.8672 34.1461 18.9188C34.1996 18.9958 34.2812 19.1394 34.3064 19.1907C34.3374 19.2538 34.3674 19.3201 34.381 19.3705C34.3904 19.406 34.4149 19.472 34.4662 19.4785C34.5159 19.484 34.5474 19.4797 34.5788 19.449C34.6314 19.3976 34.9038 19.2913 35.0194 19.2502C35.0756 19.231 35.107 19.2214 35.1675 19.2577C35.2018 19.2776 35.2426 19.3957 35.263 19.4062C35.3048 19.4278 35.3235 19.4228 35.3127 19.453C35.3062 19.473 35.3118 19.4626 35.2606 19.5236C35.2095 19.5841 35.2551 19.6054 35.203 19.6866C35.1505 19.7672 35.1087 19.8786 35.0878 19.9294C35.0677 19.9791 35.0204 20.0002 34.9842 20.036C34.9429 20.0763 34.9575 20.1318 34.9369 20.1423C34.8735 20.173 34.875 20.1637 34.8553 20.2074C34.8332 20.2532 34.8229 20.3247 34.8726 20.4169C34.8975 20.4627 34.9443 20.4733 34.9527 20.5102C34.971 20.5784 35.0182 20.577 35.0442 20.6125C35.0864 20.6744 35.0792 20.6708 35.1042 20.7102C35.1483 20.7829 35.144 20.7524 35.1992 20.7932C35.2342 20.8189 35.2642 20.9012 35.3046 20.9427C35.3706 21.0099 35.456 21.062 35.516 21.134C35.5647 21.1918 35.5662 21.2206 35.5606 21.272C35.5513 21.3579 35.571 21.3075 35.5386 21.3685C35.516 21.4141 35.5386 21.4755 35.5381 21.5062C35.5371 21.5626 35.5366 21.6034 35.5002 21.6538C35.4637 21.7047 35.36 21.8358 35.3389 21.8866C35.3211 21.9286 35.3074 21.9728 35.3276 21.9932C35.3557 22.0225 35.3773 22.035 35.4147 22.01C35.4795 21.9649 35.673 21.6454 35.839 21.4338C35.9276 21.3205 36.11 21.0188 36.1518 20.9372C36.1945 20.8544 36.3229 20.6982 36.349 20.6648C36.3644 20.6442 36.4105 20.6449 36.4194 20.6809C36.4287 20.7126 36.4143 20.7474 36.4244 20.7678C36.4376 20.7956 36.4746 20.7788 36.4789 20.8249C36.4837 20.8712 36.4887 20.8914 36.4734 20.9163C36.4616 20.9353 36.5019 20.9461 36.4777 20.9881C36.4566 21.0231 36.4825 21.0954 36.4246 21.1602C36.3426 21.2535 36.1443 21.5185 36.0613 21.6253C35.9473 21.7717 35.6168 22.1653 35.565 22.2106C35.5374 22.2354 35.5021 22.2884 35.5177 22.323C35.5426 22.3782 35.6372 22.538 35.6922 22.5848C35.7644 22.6446 35.9163 22.7348 35.9818 22.7362C36.0606 22.7372 36.1126 22.7137 36.1402 22.6911C36.2641 22.5961 36.3634 22.3885 36.4052 22.2872C36.4642 22.1456 36.559 21.855 36.565 21.8098C36.573 21.7378 36.5406 21.661 36.5458 21.6358C36.5533 21.6037 36.5984 21.6109 36.6073 21.6416C36.621 21.6826 36.6322 21.7587 36.6416 21.8101C36.6574 21.895 36.529 22.3287 36.5058 22.4758C36.4782 22.6549 36.2629 22.958 36.2442 23.0038C36.2338 23.0288 36.2382 23.0698 36.187 23.0739C36.128 23.0794 36.1054 23.0619 36.0704 23.0526C35.9386 23.0146 35.8266 22.9218 35.7423 22.8445C35.6557 22.7672 35.4541 22.5195 35.4291 22.4787C35.4104 22.4485 35.3439 22.401 35.3125 22.4266C35.2573 22.4718 35.1723 22.5978 35.1325 22.6275C35.0996 22.651 35.0382 22.6758 35.0031 22.713C34.9515 22.7682 34.8901 22.8392 34.8282 22.8944C34.7823 22.9354 34.5848 23.0804 34.5493 23.1154C34.4926 23.1706 34.4245 23.2616 34.3842 23.2914C34.3429 23.3221 34.2042 23.407 34.1624 23.4524C34.1161 23.503 34.0508 23.6058 33.997 23.6286C33.9615 23.6437 33.9145 23.7044 33.9502 23.7354C33.9853 23.7661 34.1031 23.7114 34.1804 23.6972C34.2414 23.6854 34.3333 23.6838 34.3988 23.6792C34.4406 23.6761 34.4785 23.6336 34.574 23.605C34.6556 23.5803 34.7118 23.6161 34.7475 23.607C34.7922 23.5947 34.8183 23.5772 34.891 23.558C34.9712 23.5354 35.0799 23.5494 35.126 23.5302C35.1594 23.5158 35.1565 23.5042 35.2184 23.4646C35.2597 23.4382 35.3127 23.4632 35.3566 23.4502C35.4133 23.4366 35.5155 23.4075 35.6228 23.3679C35.708 23.3365 35.9809 23.27 36.0217 23.2659C36.061 23.2609 36.1196 23.1747 36.1858 23.1502C36.271 23.1186 36.4309 23.1481 36.4981 23.1078C36.5374 23.0842 36.6279 23.1363 36.6706 23.2126C36.7258 23.3096 36.6632 23.3598 36.6476 23.4162C36.6068 23.5561 36.5684 23.6194 36.5226 23.6698C36.4758 23.7195 36.4597 23.8114 36.3824 23.8302C36.2948 23.8534 36.2487 23.8664 36.1527 23.8232C35.9802 23.7442 35.8878 23.8196 35.7872 23.7982C35.6348 23.7658 35.5762 23.8417 35.5054 23.8357C35.469 23.8328 35.355 23.8136 35.3206 23.833C35.2222 23.8904 35.1426 23.8767 35.0756 23.8969C35.0204 23.913 34.9983 23.9667 35.0293 23.9926C35.0818 24.0375 35.2575 24.0824 35.4006 24.0733C35.6298 24.0601 35.7975 24.1088 35.8894 24.1153C36.0272 24.1251 36.123 24.2002 36.1899 24.2007C36.265 24.2007 36.2958 24.2372 36.3723 24.259C36.4234 24.2722 36.4839 24.291 36.5401 24.2862C36.602 24.2816 36.6478 24.3277 36.6728 24.3178C36.7647 24.2835 36.7647 24.2919 36.8158 24.2797C36.8571 24.2698 36.9392 24.1628 36.9963 24.1244C37.069 24.0733 37.219 23.9329 37.25 23.847C37.2824 23.7582 37.2918 23.7193 37.3242 23.6077C37.3518 23.5134 37.31 23.5052 37.3472 23.3528C37.3801 23.2198 37.3467 23.0062 37.3734 22.9244C37.3897 22.8735 37.3846 22.8483 37.4 22.8022C37.4216 22.741 37.4005 22.6954 37.3966 22.6705C37.3916 22.639 37.4384 22.5738 37.4384 22.5325C37.4398 22.4972 37.4 22.4658 37.4252 22.3957C37.459 22.3057 37.4331 22.2114 37.459 22.1818C37.4842 22.1516 37.4295 22.1002 37.4449 22.0534C37.4689 21.9846 37.471 21.7016 37.4557 21.5542C37.4384 21.3697 37.466 21.1201 37.4734 21.0284C37.4754 20.9821 37.413 20.9466 37.4331 20.906C37.4617 20.8506 37.4293 20.7627 37.4209 20.6919C37.4077 20.5969 37.3777 20.4212 37.3741 20.3137C37.3686 20.1296 37.1955 19.0628 37.0868 18.7906C36.9325 18.4057 36.5257 18.0034 36.357 17.93C36.1981 17.8594 35.991 17.8698 35.8587 17.8676C35.7565 17.8662 35.3934 17.9228 35.0718 18.0262C34.785 18.1177 34.4792 18.2598 34.3794 18.3183C34.2613 18.3884 34.1266 18.5499 34.0386 18.6406C33.9438 18.739 33.9195 18.8562 33.8929 18.9097C33.8197 19.0561 33.8934 19.2406 33.908 19.2918C33.9337 19.3791 33.9118 19.4403 33.8761 19.455C33.7964 19.4878 33.8302 19.49 33.681 19.5085C33.6332 19.5145 33.5442 19.471 33.5389 19.4355C33.5252 19.3474 33.4479 19.1998 33.4095 19.1079Z" fill="black"/>
</g>
<mask id="mask4_1072_80" style="mask-type:luminance" maskUnits="userSpaceOnUse" x="8" y="17" width="49" height="14">
<path d="M56.0523 17.4032H8V30.997H56.0523V17.4032Z" fill="white"/>
</mask>
<g mask="url(#mask4_1072_80)">
<path fill-rule="evenodd" clip-rule="evenodd" d="M56 20.9646C55.9138 21.0112 55.6542 21.3018 55.5874 21.332C55.5226 21.3606 55.43 21.2898 55.3731 21.2989C55.225 21.3224 54.871 21.4076 54.6217 21.4532C54.4131 21.4912 54.0649 21.6203 53.9715 21.6688C53.905 21.7038 53.9031 21.7513 53.9401 21.7859C54.0656 21.9049 54.1722 21.9623 54.2326 22.0393C54.273 22.0924 54.2105 22.1159 54.1947 22.203C54.1745 22.3081 54.1057 22.8083 54.1386 23.079C54.1666 23.3154 54.2914 24.0272 54.3234 24.2236C54.3519 24.3976 54.3759 24.6359 54.3985 24.7244C54.4299 24.8492 54.3848 25.0712 54.338 25.1209C54.1673 25.306 53.8983 25.5798 53.8265 25.6055C53.7188 25.6417 53.5772 25.6374 53.4759 25.5544C53.3442 25.4471 53.2954 25.2515 53.2556 25.1492C53.1882 24.9736 52.994 24.8399 52.8586 24.741C52.6172 24.567 52.0889 24.2977 52.0093 24.1081C51.9975 24.0815 51.9793 24.026 52.0364 24.0066C52.1427 23.9692 52.1929 24.1009 52.2632 24.1525C52.3973 24.2502 52.5121 24.2773 52.609 24.3092C52.76 24.3596 53.0314 24.4264 53.096 24.448C53.2503 24.4988 53.3305 24.5219 53.4471 24.483C53.5282 24.4564 53.6595 24.2051 53.6665 24.0983C53.6818 23.8379 53.6228 23.5309 53.6295 23.4037C53.6482 23.0365 53.6403 22.9681 53.6782 22.69C53.7068 22.4867 53.6533 22.3328 53.6595 22.2412C53.666 22.1274 53.6674 21.9606 53.6993 21.88C53.7255 21.8116 53.6413 21.8144 53.5822 21.832C53.3005 21.9157 53.1692 22.046 52.9256 22.1605C52.7564 22.2402 52.4521 22.425 52.3294 22.4696C52.2437 22.5006 52.1756 22.6206 52.1245 22.5743C52.0678 22.5212 51.9872 22.5366 51.937 22.4447C51.8648 22.3091 51.9807 22.1848 52.0734 22.1298C52.1967 22.0561 52.309 22.1017 52.6832 21.9186C53.0578 21.7336 53.4632 21.4892 53.767 21.3697C54.0622 21.2543 54.8677 21.0131 54.9853 20.9872C55.1024 20.9624 55.358 20.9394 55.3988 20.9209C55.5581 20.8513 55.7002 20.854 55.7514 20.8441C55.8231 20.8307 55.9253 20.8559 55.9863 20.8621C56.0595 20.87 56.0825 20.9197 56 20.9646ZM52.8181 20.0845C52.9254 20.0293 52.9544 20.158 52.9911 20.158C53.0974 20.1592 53.1932 20.1712 53.3276 20.1258C53.4303 20.092 54.0766 19.768 54.2965 19.7144C54.6718 19.6235 55.1974 19.4759 55.3803 19.4881C55.4432 19.492 55.4463 19.5347 55.3851 19.57C55.3148 19.6088 55.2965 19.706 55.2399 19.7615C55.2034 19.7975 55.2178 19.91 55.1864 19.9499C55.149 19.9991 55.093 20.0252 55.0275 20.0245C54.9248 20.0231 54.9149 20.0231 54.8489 20.0224C54.7743 20.0216 54.6221 20.1179 54.5662 20.1311C54.5465 20.1356 54.4949 20.092 54.4462 20.0785C54.3281 20.0461 53.8851 20.2232 53.7125 20.2988C53.534 20.3788 53.2153 20.5352 53.0554 20.7042C52.9935 20.7695 52.9306 20.8914 52.8296 20.834C52.7377 20.7822 52.7002 20.5722 52.6762 20.4796C52.6541 20.4008 52.6645 20.163 52.8181 20.0845ZM52.2421 17.5679C52.3381 17.5844 52.5169 18.0198 52.6162 18.2152C52.6491 18.2783 52.6697 18.3803 52.6894 18.5428C52.6978 18.6188 52.7686 18.7631 52.7514 18.9356C52.742 19.0223 52.7672 19.1785 52.736 19.2524C52.7149 19.3028 52.6333 19.3525 52.6323 19.4245C52.6323 19.4663 52.5649 19.5608 52.5236 19.6012C52.4588 19.6636 52.4182 19.8306 52.3774 19.8851C52.3002 19.9859 52.1026 19.9828 51.9629 20.0226C51.8598 20.0526 51.7361 20.1176 51.6286 20.1923C51.5204 20.2674 51.3262 20.3346 51.1914 20.4263C51.0896 20.4971 50.8777 20.7085 50.816 20.7584C50.7728 20.7935 50.6998 20.8511 50.7678 20.9111C50.8386 20.973 51.0387 20.9404 51.3068 21.0604C51.4844 21.1396 51.6411 21.2488 51.7311 21.3968C51.8065 21.5202 51.7695 21.6277 51.6865 21.6774C51.62 21.7168 51.5753 21.8358 51.4337 21.9546C51.3615 22.0151 51.3099 22.1689 51.1952 22.268C51.1071 22.3429 50.7901 22.6806 50.6694 22.7718C50.6024 22.822 50.6038 22.906 50.713 22.9451C50.8148 22.982 51.1292 23.205 51.2329 23.355C51.343 23.5144 51.3917 23.8578 51.4129 24.1367C51.4251 24.3212 51.2998 24.6008 51.2465 24.7928C51.2199 24.8898 51.2007 24.9313 51.0769 24.9088C51.0435 24.9023 50.9883 24.8276 50.9358 24.7739C50.8599 24.6966 50.7543 24.6654 50.7022 24.6073C50.6417 24.5406 50.5577 24.5024 50.5162 24.4374C50.4665 24.3601 50.4716 24.0073 50.498 23.8504C50.5191 23.7186 50.5412 23.6245 50.5734 23.5247C50.5995 23.4433 50.6521 23.1769 50.5527 23.1575C50.4961 23.1469 50.2856 23.2614 50.1725 23.3161C50.047 23.3771 49.9054 23.4608 49.8435 23.5314C49.7742 23.6101 49.7348 23.7186 49.723 23.8C49.7122 23.8799 49.6556 23.936 49.6193 23.9161C49.5442 23.8751 49.4693 23.9101 49.4144 23.924C49.3385 23.944 49.2884 23.8739 49.202 23.8393C49.0539 23.7817 49.1223 23.8266 48.9939 23.72C48.9137 23.6528 48.7342 23.3891 48.8022 23.2026C48.8386 23.1011 48.8036 23.0548 48.9073 22.959C49.1586 22.726 49.256 22.5964 49.5123 22.3184C49.6455 22.173 49.8733 21.9352 50.0125 21.8197C50.0686 21.7732 50.1207 21.6896 50.1629 21.5922C50.1891 21.5315 50.3365 21.4208 50.2426 21.3587C50.1409 21.2908 50.0105 21.2838 49.9366 21.3138C49.8644 21.3433 49.8185 21.2608 49.7345 21.2144C49.6582 21.1727 49.5742 21.2296 49.5152 21.1868C49.4444 21.1345 49.4093 21.0983 49.3436 21.0512C49.2821 21.0083 49.1679 20.9459 49.2231 20.8309C49.2653 20.7448 49.2305 20.6216 49.3239 20.5513C49.442 20.4613 49.5236 20.3711 49.6076 20.3C49.7674 20.164 50.2066 19.6549 50.5025 19.316C50.8133 18.9604 51.3838 18.1132 51.6061 17.8864C51.6529 17.8391 51.6332 17.7277 51.8696 17.6036C52.0129 17.5292 52.1266 17.5484 52.2421 17.5679Z" fill="black"/>
</g>
</g>
<mask id="mask5_1072_80" style="mask-type:luminance" maskUnits="userSpaceOnUse" x="8" y="17" width="48" height="14">
<path d="M56 17.4032H8V30.997H56V17.4032Z" fill="white"/>
</mask>
<g mask="url(#mask5_1072_80)">
<path fill-rule="evenodd" clip-rule="evenodd" d="M45.3637 18.6929C45.3824 18.7795 45.308 19.0999 45.2175 19.3743C45.127 19.6483 45.1069 19.7398 45.0267 19.9891C44.9907 20.0993 44.9194 20.0496 44.8786 20.0945C44.8309 20.1447 44.9338 20.0544 44.7385 20.2457C44.6189 20.3619 44.3686 20.5159 44.3007 20.5918C44.2642 20.6321 44.1877 20.6115 44.1733 20.5347C44.1644 20.4845 44.1649 20.4379 44.1615 20.3352C44.1565 20.2486 44.2338 20.142 44.251 20.0967C44.2767 20.0256 44.3194 19.8833 44.3194 19.7916C44.3218 19.6181 44.5088 19.386 44.6537 19.2139C44.7977 19.0426 45.3637 18.6929 45.3637 18.6929ZM44.4579 21.4099C44.5352 21.355 44.5282 21.5026 44.6009 21.4877C44.6456 21.4795 44.6835 21.4234 44.7135 21.3876C44.7387 21.3576 44.7783 21.3348 44.8045 21.4654C44.8196 21.5367 44.8325 21.6048 44.7922 21.6538C44.7303 21.7299 44.377 21.8578 44.3151 21.8835C44.2714 21.9005 44.2575 21.919 44.24 21.8311C44.215 21.7183 44.3478 21.6586 44.354 21.6075C44.3648 21.5143 44.3948 21.4553 44.4579 21.4099ZM45.224 22.98C45.2962 22.9911 45.4808 22.8862 45.5583 22.8257C45.614 22.7827 45.6646 22.8483 45.6337 22.9037C45.5998 22.9632 45.4781 23.1055 45.4527 23.1718C45.4364 23.2102 45.3951 23.2371 45.3651 23.2267C45.3051 23.2061 45.2226 23.1694 45.1659 23.137C45.0951 23.0974 45.1592 22.9697 45.224 22.98ZM43.5819 23.0873C43.6054 23.0309 43.7482 23.1967 43.8392 23.2183C43.9371 23.2416 44.0477 23.287 44.1697 23.3191C44.3369 23.3631 44.515 23.4607 44.6413 23.5488C44.7289 23.6098 44.8448 23.6338 44.9446 23.7363C44.9835 23.7749 44.9696 23.8287 44.9391 23.8637C44.9026 23.9047 44.8815 23.9547 44.8143 24.0003C44.6403 24.1176 44.0595 24.4243 43.9822 24.4894C43.8833 24.5727 43.6959 24.5273 43.635 24.4697C43.5819 24.42 43.5257 24.3435 43.5101 24.2395C43.4861 24.0763 43.4758 23.7691 43.4876 23.622C43.4979 23.4823 43.5022 23.2702 43.5819 23.0873ZM41.7176 23.1718C41.719 23.1358 41.9026 23.052 42.0049 23.0021C42.1042 22.9548 42.1957 22.9123 42.2823 22.9035C42.3255 22.8984 42.3747 22.9366 42.3581 22.9913C42.331 23.0767 41.9334 23.4603 41.7942 23.6115C41.7646 23.6436 41.708 23.5289 41.7042 23.4571C41.7008 23.3758 41.7176 23.2503 41.7176 23.1718ZM41.4027 22.3219C41.4589 22.3152 41.4819 22.3968 41.4361 22.4647C41.4056 22.5099 41.318 22.5346 41.2983 22.5091C41.2654 22.4662 41.2945 22.4273 41.3456 22.3923C41.39 22.3606 41.3609 22.326 41.4027 22.3219ZM41.8592 20.8174C41.9614 20.8083 41.9643 20.857 41.9708 20.8647C41.9965 20.8956 42.0509 21.025 42.0903 21.0701C42.1253 21.1114 42.1541 21.1584 42.2117 21.1788C42.2417 21.1889 42.2451 21.3269 42.2394 21.3883C42.2338 21.4546 42.074 21.4817 41.9929 21.5431C41.9417 21.5835 41.9118 21.6163 41.8789 21.6586C41.8381 21.715 41.8273 21.7455 41.7701 21.7956C41.7238 21.8374 41.7805 22.0567 41.7461 22.1571C41.7303 22.2029 41.7913 22.1983 41.8417 22.2003C41.8678 22.2003 41.876 22.152 41.9086 22.1237C41.9504 22.0884 42.0637 22.0071 42.121 21.973C42.1609 21.948 42.1078 21.8095 42.1683 21.7956C42.2091 21.7858 42.2115 21.9367 42.2377 21.9955C42.2564 22.0414 42.3229 22.2125 42.3046 22.2816C42.2878 22.3426 42.2775 22.4105 42.2564 22.4499C42.2353 22.4899 41.9898 22.5963 42.015 22.7011C42.0291 22.7628 42.2113 22.6771 42.3046 22.6839C42.3764 22.6899 42.5127 22.6771 42.5756 22.6771C42.6366 22.6779 42.7546 22.7693 42.8225 22.8893C42.8576 22.9512 42.6061 23.1713 42.4753 23.3391C42.3464 23.5056 41.8414 23.9333 41.738 24.0343C41.6859 24.0852 41.7188 24.2741 41.678 24.2983C41.6293 24.3291 41.5851 24.2991 41.5309 24.3125C41.4891 24.3214 41.4193 24.3495 41.3972 24.3975C41.3761 24.4431 41.3722 24.4788 41.4109 24.4992C41.4615 24.5251 41.9955 24.2563 42.2537 24.025C42.5228 23.7831 42.8931 23.4103 43.0282 23.2387C43.1324 23.1072 43.0921 22.5516 43.2121 22.0073C43.2665 21.7572 43.3878 20.9487 43.4737 20.5671C43.573 20.1312 43.9138 19.4547 43.9789 19.3541C44.005 19.314 43.9769 19.2742 44.0005 19.2372C44.0276 19.1969 44.036 19.1667 44.1284 19.2084C44.1654 19.2257 44.2244 19.2963 44.2597 19.2814C44.3398 19.248 44.2179 19.3164 44.5086 19.0349C44.7963 18.7524 45.0738 18.6127 45.2276 18.4978C45.3824 18.3823 45.4868 18.2513 45.5631 18.2163C45.6274 18.1875 45.6865 18.2151 45.7097 18.2796C45.7349 18.3461 45.7412 18.4438 45.7069 18.5647C45.6862 18.6415 45.6286 18.7491 45.5602 18.9099C45.5326 18.9732 45.4491 19.2972 45.3896 19.4739C45.3305 19.651 45.2597 20.0717 45.218 20.1449C45.1561 20.2563 45.2283 20.2839 45.1842 20.4048C45.1705 20.4444 45.0886 20.6295 45.037 20.7339C44.9849 20.8411 44.8335 21.1762 44.8021 21.2057C44.7627 21.2446 44.7903 21.3255 44.8105 21.3593C44.8354 21.3999 44.9756 21.487 45.0711 21.7193C45.1011 21.7913 45.0917 21.8652 45.0332 21.943C44.9909 21.9987 44.8246 22.0512 44.7303 22.0975C44.6065 22.1571 44.115 22.4062 43.9489 22.5418C43.9134 22.572 43.8529 22.5636 43.8682 22.5096C43.8949 22.4136 43.8632 22.1175 43.8987 22.0162C43.9539 21.8655 43.9316 21.9247 44.0557 21.7524C44.1212 21.661 44.2597 21.3267 44.4092 21.1601C44.4246 21.144 44.455 21.0588 44.4063 21.0279C44.3655 21.0019 44.3154 21.055 44.2633 21.0718C44.2318 21.0819 44.2268 21.1584 44.1901 21.1733C44.1356 21.1961 44.0833 21.1387 44.0322 21.1815C43.9962 21.2107 43.9299 21.3569 43.916 21.4553C43.9117 21.4959 43.8413 21.5499 43.8236 21.5767C43.8029 21.6075 43.8161 21.7395 43.8044 21.8319C43.7912 21.9427 43.6863 22.2264 43.6604 22.3447C43.6446 22.4211 43.6131 22.5912 43.6206 22.6908C43.6249 22.7475 43.6506 22.7866 43.6914 22.7789C43.7372 22.7688 43.7691 22.6908 43.8152 22.6834C43.8709 22.6738 44.0557 22.6707 44.1358 22.6927C44.1737 22.7028 44.2421 22.7501 44.3655 22.7256C44.4349 22.7127 44.5426 22.6824 44.6261 22.6836C44.7068 22.6843 45.1047 22.6839 45.273 22.6863C45.3344 22.687 45.6781 22.5175 45.7858 22.4676C45.8749 22.4273 46.0887 22.2267 46.2349 22.0755C46.3179 21.9898 46.5118 21.931 46.6131 21.9785C46.6642 22.002 46.6337 22.1544 46.555 22.2123C46.4931 22.2571 46.3441 22.3368 46.2718 22.3872C46.1566 22.4671 45.9713 22.6968 45.8837 22.8471C45.8415 22.9176 45.7071 23.1091 45.6394 23.2313C45.6253 23.2553 45.6253 23.3148 45.6778 23.3693C45.7289 23.4211 46.1509 23.5337 46.3481 23.6021C46.3659 23.6083 46.3935 23.6431 46.4353 23.6285C46.4629 23.6187 46.5008 23.6043 46.5061 23.6755C46.508 23.7101 46.7845 23.7173 46.8169 23.7403C46.922 23.8188 47.3288 23.9098 47.4615 23.9928C47.5112 24.0245 47.5266 24.037 47.5722 24.0917C47.6026 24.1275 47.6785 24.1263 47.6681 24.1793C47.6564 24.2352 46.8735 24.4294 46.5932 24.4159C46.3532 24.4039 46.1048 24.3739 45.8756 24.2945C45.6735 24.2247 45.2845 23.9311 45.2269 23.9304C45.1359 23.929 45.1453 23.9494 45.0834 24.0103C45.0666 24.0264 45.0351 24.0826 44.9905 24.126C44.9384 24.1767 44.7584 24.3531 44.7214 24.403C44.6693 24.4743 44.5469 24.5016 44.4701 24.5635C44.4135 24.6082 44.3038 24.7299 44.2376 24.7747C44.1147 24.8578 43.9602 24.96 43.8678 24.9994C43.7739 25.039 43.6095 24.9797 43.4698 24.9591C43.3174 24.9372 43.1314 24.7759 43.0606 24.6375C43.0198 24.5556 43.0213 24.3507 43.0001 24.2292C42.9848 24.1474 43.0503 23.8959 42.9992 23.862C42.9284 23.815 42.8905 23.8683 42.8561 23.9062C42.7985 23.9662 42.7313 24.0823 42.5506 24.2083C42.4719 24.2638 42.4714 24.3022 42.3809 24.3893C42.3135 24.4548 42.1558 24.5491 42.0454 24.6403C41.9386 24.7308 41.7426 24.7858 41.6156 24.8081C41.5698 24.8172 41.4416 24.8957 41.3691 24.9281C41.3026 24.9576 41.0912 25.0315 40.9599 25.0711C40.8773 25.0959 40.8394 24.9168 40.8202 24.7944C40.8015 24.6711 40.8488 24.5441 40.921 24.5052C41.0406 24.4385 41.2294 24.2182 41.3331 24.1073C41.3602 24.078 41.3069 24.0118 41.258 24.0139C41.0897 24.0226 40.9829 23.9494 40.9829 23.9494C41.1063 23.9304 41.3154 23.9237 41.3881 23.8318C41.4008 23.8181 41.4349 23.7862 41.4349 23.7459C41.4363 23.6861 41.4157 23.6712 41.4104 23.6333C41.4056 23.6045 41.4454 23.5543 41.432 23.5263C41.4178 23.4963 41.3888 23.4235 41.337 23.4543C41.2297 23.5176 41.0453 23.701 40.9957 23.7967C40.9647 23.8575 40.9582 23.9237 40.9582 23.9237C40.9278 23.9539 40.8716 23.9275 40.8716 23.9275C40.7732 24.0281 40.6184 24.1997 40.5411 24.2652C40.4845 24.3142 40.4048 24.3499 40.3419 24.3197C40.2661 24.2823 40.2149 24.1239 40.1806 24.0723C40.1516 24.0262 40.1934 23.9602 40.2392 23.9307C40.309 23.8858 40.4914 23.7907 40.5425 23.7454C40.5997 23.6957 40.8426 23.4538 40.8987 23.4084C40.9892 23.3357 41.1152 23.2534 41.1874 23.1768C41.2386 23.1211 41.1752 23.0539 41.1373 23.0844C41.1063 23.1094 41.0605 23.0991 41.0408 23.0535C40.9916 22.9375 40.8874 22.6531 40.8894 22.5459C40.8898 22.4796 40.8908 22.4431 40.916 22.3829C40.9947 22.201 41.2558 21.859 41.337 21.7968C41.4138 21.7368 41.3679 21.6787 41.3434 21.6341C41.3134 21.577 41.1634 21.3919 41.1689 21.3257C41.1769 21.2266 41.3245 21.139 41.468 21.0389C41.6127 20.9359 41.757 20.8265 41.8592 20.8174ZM42.3471 19.2886C42.3846 19.212 42.6339 19.1955 42.7455 19.2159C42.8473 19.2367 42.9687 19.4359 43.0076 19.531C43.0326 19.5922 43.0745 19.722 43.0549 19.7712C43.0287 19.8372 42.9226 19.8372 42.8199 19.8658C42.7829 19.8751 42.6872 19.9104 42.6193 19.9443C42.5326 19.9894 42.4256 20.083 42.3881 20.1202C42.3464 20.1605 42.2775 20.1785 42.2446 20.1696C42.2235 20.1643 42.2245 20.1055 42.26 20.0683C42.3269 19.9973 42.4119 19.7993 42.3922 19.7223C42.3833 19.6827 42.3426 19.6659 42.3387 19.5432C42.3373 19.4813 42.3157 19.3519 42.3471 19.2886ZM42.3125 17.916C42.3538 17.9059 42.3819 17.9758 42.4453 18.0046C42.4904 18.0252 42.5101 18.066 42.5559 18.067C42.6188 18.0672 42.6209 18.1644 42.6562 18.1954C42.6867 18.2211 42.727 18.3183 42.7616 18.3502C42.8019 18.3869 42.8166 18.4332 42.8571 18.4635C42.9013 18.4968 42.9133 18.6118 42.8605 18.6778C42.8187 18.7287 42.7522 18.7971 42.6642 18.8235C42.5826 18.8477 42.4021 18.8535 42.3008 18.9156C42.2182 18.9655 42.0658 19.086 41.9801 19.1775C41.8208 19.3481 41.6389 19.6471 41.4932 19.9003C41.3938 20.0722 41.024 20.7053 40.9138 20.9539C40.868 21.0574 40.6316 21.5614 40.5483 21.7445C40.4377 21.9828 40.1682 22.5024 40.1137 22.6421C40.0395 22.8305 40.0822 22.9882 40.0311 23.0595C39.9843 23.1257 39.8938 23.119 39.837 23.0777C39.782 23.0364 39.6929 22.9529 39.6711 22.8663C39.6524 22.7899 39.6922 22.6116 39.7165 22.5202C39.7323 22.4592 39.7647 22.4182 39.8158 22.3944C39.8463 22.3793 39.8974 22.3942 39.9423 22.3752C39.9771 22.3608 40.1233 22.117 40.1974 21.9804C40.2944 21.7997 40.5509 21.2568 40.6109 21.1287C40.6474 21.0507 40.7948 20.7185 40.9035 20.515C40.9714 20.3883 41.3043 19.4748 41.4656 19.2523C41.5026 19.2012 41.6732 18.8383 41.7783 18.6749C41.8724 18.5275 42.2511 17.9302 42.3125 17.916Z" fill="black"/>
</g>
<mask id="mask6_1072_80" style="mask-type:luminance" maskUnits="userSpaceOnUse" x="8" y="17" width="48" height="14">
<path d="M56 17.4032H8V30.997H56V17.4032Z" fill="white"/>
</mask>
<g mask="url(#mask6_1072_80)">
<path fill-rule="evenodd" clip-rule="evenodd" d="M27.8896 23.8508C27.92 23.8515 27.9402 23.8769 27.9496 23.9278C27.9628 23.9988 27.9536 23.9988 27.9632 24.0598C27.9726 24.12 27.9496 24.1356 27.9611 24.186C27.976 24.2465 27.9702 24.2811 27.975 24.3435C27.9839 24.4493 27.9877 24.5458 27.9666 24.612C27.9457 24.6766 27.9709 24.6972 27.9702 24.763C27.969 24.8237 27.9337 24.92 27.9268 25.0112C27.9203 25.0868 27.9949 25.1643 27.9942 25.2552C27.994 25.3102 27.969 25.3102 27.9181 25.3044C27.8622 25.2992 27.7962 25.2629 27.7772 25.2168C27.7568 25.1703 27.698 25.0188 27.6988 24.9629C27.6995 24.9017 27.7172 24.7908 27.7271 24.7196C27.7384 24.6442 27.7187 24.5537 27.7199 24.4815C27.7206 24.3958 27.8236 24.3065 27.8243 24.2194C27.8257 24.1335 27.806 24.1239 27.807 24.0171C27.8082 23.911 27.849 23.8508 27.8896 23.8508ZM28.7231 19.9152C28.719 19.86 28.9208 19.736 29.0204 19.6714C29.1116 19.6121 29.182 19.5281 29.2597 19.4868C29.3723 19.4273 29.4738 19.446 29.5391 19.4501C29.6404 19.4561 29.7635 19.4016 29.8175 19.4688C29.8672 19.53 29.8525 19.5804 29.8355 19.6508C29.8228 19.7062 29.5304 20.1641 29.3917 20.329C29.247 20.5025 28.888 20.9136 28.8529 20.935C28.8114 20.96 28.7785 20.8997 28.768 20.8128C28.7586 20.737 28.748 20.6729 28.7651 20.6355C28.7857 20.5904 28.7603 20.5613 28.7512 20.5188C28.742 20.4725 28.6957 20.305 28.7048 20.1792C28.7111 20.0878 28.7298 19.9971 28.7231 19.9152ZM26.3101 21.3754C26.3228 21.3444 26.4575 21.276 26.5189 21.2259C26.5616 21.1916 26.667 21.1212 26.7083 21.0862C26.8256 20.9859 26.8108 21.0051 26.9183 20.9319C26.9687 20.8966 27.0402 20.8724 27.0493 20.9789C27.0599 21.1059 27.0448 21.3329 27.0481 21.4145C27.0527 21.4952 27.0318 21.5158 27.0263 21.5811C27.0217 21.637 27.0452 21.6677 27.0496 21.7037C27.0548 21.7388 27.0431 21.7488 27.0335 21.8146C27.0284 21.8552 27.058 21.9161 27.0217 21.9864C26.985 22.0568 26.7908 22.2118 26.7299 22.2312C26.6687 22.2509 26.7102 22.1405 26.6099 22.0676C26.5096 21.9953 26.4851 21.8933 26.4404 21.8225C26.3855 21.734 26.4018 21.6908 26.3368 21.6132C26.2717 21.5362 26.2727 21.4608 26.3101 21.3754ZM25.034 20.15C25.096 20.131 25.2179 20.3688 25.3372 20.4975C25.4572 20.6261 25.6364 20.7874 25.6732 20.8205C25.7135 20.856 25.8078 20.9991 25.8431 21.0003C25.8613 21.0003 25.977 20.9009 26.0732 20.8354C26.175 20.7656 26.4059 20.6076 26.4767 20.5616C26.5336 20.5234 26.7102 20.3955 26.8187 20.3124C26.9274 20.2294 27.1636 20.0758 27.172 20.0535C27.1763 20.04 27.1664 19.9872 27.2032 19.8869C27.2262 19.8245 27.1763 19.7976 27.1744 19.7856C27.17 19.7597 27.201 19.6839 27.206 19.6436C27.2178 19.5682 27.1996 19.4124 27.2101 19.3805C27.236 19.2999 27.2454 19.1309 27.2488 19.0829C27.2608 18.944 27.2442 18.8847 27.262 18.8288C27.3217 18.6444 27.3272 18.4956 27.3133 18.3584C27.3023 18.2434 27.2747 18.2321 27.3071 18.055C27.3371 17.8949 27.4818 17.725 27.5478 17.648C27.5917 17.5978 27.7228 17.5892 27.8231 17.6864C27.86 17.7231 27.9488 17.7641 28.034 17.8508C28.1156 17.9357 28.2707 18.1258 28.3237 18.1736C28.4087 18.2516 28.5733 18.4604 28.6784 18.5936C28.7584 18.6946 28.8013 18.8789 28.8104 18.9447C28.8246 19.045 28.803 19.1777 28.8709 19.1909C28.9688 19.2096 29.1592 19.0452 29.4635 18.9884C29.6656 18.95 29.9956 18.9591 30.2137 18.962C30.31 18.9634 30.4972 18.9545 30.5128 18.9994C30.542 19.082 30.4914 19.3328 30.3678 19.6124C30.2586 19.8586 30.1988 19.9056 30.0738 20.0636C29.9708 20.1946 29.956 20.2774 29.7688 20.5208C29.5883 20.7572 29.23 21.102 29.3003 21.1688C29.3605 21.2254 29.5379 21.1412 29.5674 21.2739C29.5914 21.3802 29.474 21.4493 29.4318 21.5547C29.3749 21.7018 29.4092 21.8079 29.2768 21.8727C29.1548 21.9312 29.0833 21.9106 29.0065 21.9608C28.9151 22.0203 28.9501 22.1729 28.8916 22.2831C28.7876 22.4794 28.8409 22.6673 28.7778 22.826C28.6825 23.0636 28.7056 22.9709 28.6278 23.2193C28.6103 23.2728 28.5724 23.5457 28.5508 23.641C28.5325 23.7226 28.4701 23.7879 28.4672 23.8176C28.4608 23.9012 28.4195 24.1167 28.4231 24.1409C28.4279 24.1716 28.371 24.2122 28.376 24.2672C28.3806 24.3185 28.3264 24.4457 28.317 24.5348C28.2798 24.8856 28.3108 24.9322 28.3249 25.1276C28.3388 25.3227 28.3016 25.3654 28.2805 25.4168C28.2618 25.4643 28.1888 25.476 28.138 25.4902C28.0825 25.5053 28.0866 25.5653 28.0518 25.5771C28.0103 25.5905 27.9517 25.5471 27.9325 25.5807C27.8939 25.6488 27.8519 25.7352 27.8008 25.7393C27.7482 25.7432 27.7304 25.7132 27.7156 25.6323C27.7115 25.6107 27.6608 25.6054 27.6517 25.561C27.6361 25.4883 27.6208 25.5327 27.5557 25.4141C27.5022 25.3152 27.548 25.2802 27.5423 25.1916C27.538 25.123 27.4468 25.0608 27.4698 24.9524C27.4818 24.8955 27.4662 24.7779 27.4542 24.6809C27.4408 24.5691 27.4362 24.4918 27.4362 24.4628C27.4374 24.4119 27.4206 24.4616 27.4338 24.301C27.4458 24.1599 27.4016 24.042 27.4021 24.0017C27.4028 23.9511 27.3827 23.9156 27.3426 23.9156C27.3097 23.9148 27.2929 23.9336 27.2756 24.0142C27.2581 24.0951 27.2562 24.2578 27.2665 24.3555C27.2754 24.446 27.3328 24.6999 27.3368 24.7808C27.3426 24.8895 27.3306 24.8364 27.3347 24.9828C27.3356 25.056 27.369 25.2332 27.3949 25.3306C27.4208 25.4283 27.4772 25.4247 27.4955 25.4921C27.5149 25.5636 27.5339 25.6246 27.5588 25.6652C27.591 25.7189 27.7146 25.748 27.6992 25.7787C27.6803 25.8159 27.6265 25.8891 27.5862 25.8939C27.5041 25.9025 27.3556 25.734 27.3258 25.6594C27.2725 25.5269 27.2368 25.0534 27.2092 24.8806C27.1607 24.5912 27.1115 24.4628 27.0764 24.1395C27.04 23.8049 26.9598 22.9308 26.962 22.7456C26.9634 22.6239 26.8828 22.5826 26.8386 22.5797C26.7851 22.5771 26.7172 22.6342 26.7128 22.6923C26.708 22.7628 26.7244 22.9304 26.65 22.9596C26.5895 22.9839 26.1548 22.8629 25.8184 22.6407C25.2676 22.2766 25.0717 21.3756 24.9796 21.2024C24.8555 20.9676 24.8524 20.48 24.8785 20.3852C24.9044 20.2887 24.9416 20.1785 25.034 20.15Z" fill="black"/>
</g>
</g>
<defs>
<clipPath id="clip0_1072_80">
<rect width="48" height="14.4747" fill="white" transform="translate(8 16.75)"/>
</clipPath>
</defs>
</svg>