<svg width="38" height="24" viewBox="0 0 64 48" fill="none" xmlns="http://www.w3.org/2000/svg">
<path d="M4 30.2206H16.4272V18H4V30.2206Z" fill="url(#paint0_linear_1539_294)"/>
<path d="M4.97087 18.219C4.72977 18.219 4.57225 18.4224 4.53485 18.7076C4.53485 18.7076 4.22449 20.3389 4.22449 23.8028C4.22449 27.2685 4.53485 29.536 4.53485 29.536C4.56349 29.8101 4.72977 30.0243 4.97087 30.0243H15.7273C15.9676 30.0243 16.1587 29.8338 16.1628 29.536C16.1628 29.536 16.0432 26.8801 16.0432 24.2862C16.0432 21.692 16.1628 18.7076 16.1628 18.7076C16.1686 18.4422 15.9676 18.219 15.7273 18.219H4.97087Z" fill="url(#paint1_linear_1539_294)"/>
<path d="M11.0117 19.4656C11.351 19.6079 12.7146 20.3452 12.8817 20.5807C12.1955 20.6713 10.8498 21.0217 10.125 21.3745L10.0826 21.4598C10.8819 21.2839 11.9991 21.1918 12.7695 21.15C12.4819 21.572 12.2914 21.7731 11.8539 22.2506L11.8133 22.3432C12.647 21.8423 12.8817 21.8064 13.6503 21.3564C13.9405 21.7857 14.0103 22.7749 14.0214 23.559C14.2716 23.0616 14.5752 21.1877 14.449 20.849C14.9587 20.4992 15.0276 20.2175 15.0276 20.2175C14.5603 20.2578 14.3026 20.2657 14.0507 20.3452C13.4536 19.979 12.0845 19.496 11.0511 19.3791L11.0117 19.4656Z" fill="url(#paint2_linear_1539_294)"/>
<path d="M5.92085 25.2887C5.85335 25.9129 5.82617 26.3595 5.91559 26.8589C5.66281 26.9288 5.44129 26.9387 5.2376 27.0255L5.19873 27.1111C5.52282 27.311 5.78672 27.4642 6.15318 27.6351C6.34928 28.0562 6.5518 28.3403 6.88028 28.6647L6.92031 28.5779C6.86128 28.3385 6.78472 28.1407 6.81365 27.8791C7.22103 27.9978 7.57055 28.0606 8.03492 28.0746L8.07408 27.9878C7.66582 27.8295 7.25785 27.7047 6.92762 27.3931C7.03137 27.1044 7.15031 26.8779 7.34435 26.5915L7.38527 26.5039C7.03458 26.5567 6.71662 26.685 6.41328 26.7441C6.17423 26.3238 6.08129 25.749 5.96089 25.2013L5.92085 25.2887Z" fill="url(#paint3_linear_1539_294)"/>
<path d="M8.00158 22.4397C8.00158 22.4397 7.73915 22.4146 7.30488 22.4277C6.93783 22.4447 6.39046 22.4774 6.12423 22.5557L6.08536 22.6411C6.50853 22.6592 7.08833 22.7729 7.31014 22.9956C7.31014 22.9956 6.6678 23.5751 6.03101 24.8434C6.03101 24.8434 7.18535 23.7603 7.68567 23.4918C7.68567 23.4918 7.94751 24.3638 8.12929 24.8004L8.16932 24.7133C8.21959 24.4328 8.34496 23.6718 8.55771 23.2063C8.55771 23.2063 8.63311 23.1604 9.00221 23.1244C9.37218 23.0914 9.89529 23.0718 10.8886 23.2463L10.9289 23.161C10.7022 23.0271 9.79827 22.6396 8.84148 22.5107H8.87274C9.00396 22.1244 9.1682 21.833 9.1682 21.833C8.96538 21.8617 8.38792 22.1317 8.00158 22.4397Z" fill="url(#paint4_linear_1539_294)"/>
<path d="M10.4197 27.7903C10.4053 27.6211 10.3945 27.477 10.3861 27.2865C10.1853 27.5588 10.0137 27.773 9.79223 28.0217C9.55814 28.0869 9.29045 28.0843 9.04643 28.0816C8.94999 28.0805 8.85677 28.0796 8.77114 28.0822L8.73169 28.169C8.95876 28.2859 9.18174 28.3578 9.41962 28.4066C9.22674 28.5822 8.96899 28.7158 8.7878 28.8383L8.74805 28.9236C9.13615 28.8318 9.64728 28.667 10.0281 28.4423C10.2262 28.451 10.4112 28.4379 10.5471 28.411C10.5471 28.411 10.5877 28.3224 10.5877 28.3245C10.5629 28.2368 10.4848 28.1833 10.462 28.0606C10.8189 27.7836 11.0775 27.5311 11.3759 27.2309L11.4174 27.1438C11.1225 27.3472 10.7645 27.6269 10.4197 27.7903Z" fill="url(#paint5_linear_1539_294)"/>
<path d="M13.6898 21.2687C12.923 21.7196 12.688 21.7576 11.8539 22.2567C12.3396 21.7298 12.5086 21.5054 12.809 21.0644C12.0401 21.1053 10.9229 21.1977 10.1251 21.3745C10.8194 21.0036 12.1962 20.5913 12.923 20.4931C12.7543 20.2604 11.3904 19.5217 11.0512 19.3793C12.131 19.4632 13.4507 19.8668 14.0907 20.2581C14.3424 20.1795 14.6042 20.1757 15.0727 20.1339C14.9534 20.3388 14.9482 20.4574 14.4885 20.7622C14.6159 21.1027 14.3117 22.9756 14.0604 23.4716C14.0513 22.6881 13.9829 21.6986 13.6898 21.2687ZM8.07403 27.9879C7.63333 27.8246 7.31596 27.6343 6.96644 27.3076C7.07106 27.0189 7.19059 26.7933 7.38522 26.5039C7.02693 26.5574 6.76275 26.5977 6.45414 26.6562C6.20282 26.2167 6.08884 25.792 5.96084 25.2014C5.89246 25.8274 5.86645 26.2745 5.9547 26.7728C5.67152 26.8514 5.47076 26.9204 5.23755 27.0253C5.56427 27.2252 5.82816 27.3792 6.19288 27.5493C6.38897 27.9698 6.59149 28.2539 6.92056 28.578C6.84341 28.3018 6.82295 28.0823 6.85451 27.7927C7.26218 27.9114 7.61112 27.9736 8.07403 27.9879ZM9.22142 21.7586C9.08407 21.9369 8.92479 22.2692 8.88184 22.4235C10.0178 22.5775 10.9293 23.1608 10.9293 23.1608C9.93594 22.9846 9.41254 23.0065 9.04198 23.0398C8.67376 23.0746 8.59807 23.1178 8.59807 23.1178C8.33009 23.7049 8.16936 24.7132 8.16936 24.7132C7.98875 24.2774 7.72749 23.4048 7.72749 23.4048C7.2263 23.6728 6.0737 24.7573 6.0737 24.7573C6.70728 23.4878 7.3505 22.9103 7.3505 22.9103C7.12927 22.6862 6.54889 22.5743 6.12426 22.5555C6.34461 22.4655 6.91009 22.3603 7.34436 22.3405C7.77922 22.3279 8.04223 22.3527 8.04223 22.3527C8.43003 22.0465 9.0186 21.7887 9.22142 21.7586ZM10.4263 27.201C10.2258 27.473 10.0534 27.6867 9.83103 27.9354C9.44878 28.0426 9.14368 28.0824 8.77108 28.0824C8.9999 28.2004 9.22142 28.2711 9.46018 28.3211C9.22142 28.5371 9.01977 28.6908 8.78803 28.8384C9.17641 28.7463 9.68696 28.5815 10.0672 28.3568C10.2659 28.3644 10.4515 28.3515 10.5876 28.3246C10.552 28.2095 10.5304 28.1236 10.5014 27.9736C10.8594 27.6966 11.1192 27.4456 11.4173 27.144C11.1002 27.3652 10.8267 27.5303 10.4596 27.7036C10.4439 27.5347 10.4348 27.3915 10.4263 27.201Z" fill="white"/>
<path d="M20.9604 22.6841C21.7211 22.6905 21.9996 22.8451 21.9996 23.2592C21.9996 23.3735 21.9645 23.4749 21.8973 23.5523C21.7515 23.7274 21.4677 23.8183 21.1059 23.7955H21.0872L20.8748 24.349H21.0872C21.5072 24.337 21.8722 24.4694 22.0598 24.6985C22.1463 24.8028 22.1899 24.9285 22.1899 25.0565C22.1899 25.4896 21.8085 25.7131 21.0563 25.7131C20.9297 25.7131 20.7237 25.7131 20.5957 25.709C20.5741 25.131 20.5644 24.349 20.5644 24.1131C20.5644 23.8405 20.5822 23.2326 20.5957 22.7133C20.6825 22.6955 20.8266 22.6841 20.9604 22.6841ZM19.5515 22.286C19.5749 22.6966 19.5989 23.7347 19.5989 24.1131C19.5989 24.4621 19.5986 25.6298 19.5375 26.1334L19.5337 26.1728H21.3581C22.255 26.1728 23.2033 25.894 23.2033 25.0974C23.2033 24.5991 22.8424 24.2306 22.1674 24.029C22.6683 23.8945 23.0017 23.5523 23.0017 23.161C23.0017 22.5108 22.255 22.2662 21.5531 22.2492H19.541L19.5515 22.286ZM27.4143 22.2491H26.5265L26.5624 23.2386C26.5796 23.7275 26.5963 24.2305 26.6308 24.7188C26.5735 24.5657 26.52 24.4871 26.25 24.0943C26.2491 24.0806 25.3262 22.6612 25.0059 22.2582L24.9969 22.2491H23.9667V22.2859C23.9995 22.6965 24.0126 23.7348 24.0126 24.1133C24.0126 24.4622 24.0126 25.6297 23.9635 26.1333L23.9545 26.173H24.8727V26.1333C24.8204 25.1756 24.8204 24.2091 24.8204 23.2716C24.8522 23.3853 24.8928 23.4829 25.0375 23.6971C25.0495 23.7226 26.6308 26.0245 26.7077 26.1563L26.7155 26.173H27.4511L27.4499 26.1333C27.3938 25.6297 27.3892 24.4622 27.3892 24.1133C27.3892 23.7348 27.4143 22.6965 27.4383 22.2859L27.4499 22.2491H27.4143ZM29.8222 22.7226C30.3339 22.7133 30.6911 22.8167 30.8608 23.0315C30.9386 23.1239 30.9815 23.2457 30.9815 23.3854C30.9815 23.9532 30.3427 24.0766 29.8088 24.0766L29.5919 24.0643C29.5919 24.0643 29.5408 24.0593 29.5028 24.0552C29.499 23.924 29.499 23.751 29.499 23.557C29.499 23.31 29.499 23.0169 29.5104 22.7454C29.5858 22.7355 29.6995 22.7226 29.8222 22.7226ZM28.4759 22.286C28.5118 22.6966 28.5256 23.7346 28.5256 24.1134C28.5256 24.462 28.5256 25.6298 28.4718 26.1333V26.1731H29.5639L29.5592 26.1333C29.5218 25.771 29.5028 25.0801 29.499 24.552L29.7053 24.5626L29.8596 24.5658C31.2963 24.5658 31.995 24.1856 31.995 23.3854C31.995 22.4751 31.0149 22.2661 30.1978 22.2492H28.4759V22.286ZM35.4242 22.7226C35.9371 22.7133 36.2939 22.8167 36.4658 23.0315C36.5447 23.1239 36.5841 23.2457 36.5841 23.3854C36.5841 23.9532 35.9462 24.0766 35.419 24.0766L35.2027 24.0643C35.2027 24.0643 35.1454 24.0593 35.1118 24.0552C35.106 23.924 35.106 23.7501 35.106 23.557C35.106 23.3077 35.106 23.0169 35.1162 22.7454C35.1846 22.7355 35.3027 22.7226 35.4242 22.7226ZM34.0799 22.286C34.1144 22.6966 34.1343 23.7346 34.1343 24.1134C34.1343 24.462 34.1308 25.6298 34.0741 26.1333V26.1731H35.1671L35.1606 26.1333C35.1259 25.771 35.106 25.0801 35.106 24.552C35.1568 24.5547 35.3027 24.5626 35.3027 24.5626L35.461 24.5658C36.8971 24.5658 37.602 24.1856 37.602 23.3854C37.602 22.4751 36.6163 22.2661 35.796 22.2492H34.0799V22.286ZM39.3285 23.4047C39.4153 23.5917 39.6409 24.1134 39.8946 24.7358C39.8554 24.7376 39.8063 24.7376 39.8063 24.7376L39.3285 24.744C39.3285 24.744 38.834 24.7376 38.7513 24.7358C38.9577 24.2381 39.1619 23.7884 39.3285 23.4047ZM39.0629 22.2492H39.0486L39.041 22.2687C38.8376 22.8272 37.5274 25.6862 37.32 26.124L37.3027 26.1731H38.2329L38.2408 26.1514C38.3226 25.8823 38.4328 25.5789 38.5526 25.2551C38.5897 25.2551 39.3285 25.244 39.3285 25.244L39.9712 25.2487C39.9712 25.2487 40.0746 25.2551 40.1056 25.2551C40.271 25.6768 40.3981 25.9948 40.4534 26.1564L40.4639 26.1731H41.5419L39.8005 22.2492H39.7789H39.0629ZM41.9801 22.2859C42.0113 22.6965 42.0271 23.7348 42.0271 24.1133C42.0271 24.4622 42.0271 25.6297 41.9675 26.1333V26.173H43.0663L43.0616 26.1333C43.0035 25.6262 42.9994 24.4622 42.9994 24.1133C42.9994 23.8406 43.0079 23.2328 43.0351 22.7412C43.1186 22.7354 43.2455 22.7225 43.3314 22.7225C43.8399 22.7132 44.199 22.8181 44.3671 23.0314C44.4477 23.1241 44.484 23.2486 44.484 23.3853C44.484 23.8386 44.0611 24.0683 43.6669 24.0887C43.5348 24.0943 43.4366 24.0774 43.4366 24.0774L43.36 24.0642L43.4021 24.1361C43.7922 24.7051 44.3756 25.6902 44.6167 26.1563L44.6234 26.173H45.7973L45.7681 26.1201C45.7201 26.0541 44.9557 24.9286 44.6307 24.4479C44.6307 24.4479 44.6167 24.4342 44.6023 24.419C45.2043 24.2381 45.4951 23.9017 45.4951 23.3853C45.4951 22.4817 44.515 22.2666 43.6873 22.2491H41.9769L41.9801 22.2859ZM47.3508 22.2491H46.3043L46.3102 22.2859C46.3373 22.6965 46.3584 23.7348 46.3584 24.1133C46.3584 24.4605 46.3537 25.6262 46.3043 26.1333L46.3002 26.173H47.385L47.3795 26.1333C47.3377 25.6262 47.3248 24.4605 47.3248 24.1133C47.3248 23.7348 47.3508 22.6965 47.3795 22.2859V22.2491H47.3508ZM49.7823 22.6841C50.5486 22.6905 50.8274 22.8451 50.8274 23.2592C50.8274 23.3735 50.792 23.4749 50.7224 23.5523C50.5842 23.7274 50.2893 23.8183 49.9299 23.7955H49.9121L49.7011 24.349H49.9121C50.3335 24.337 50.6953 24.4694 50.8826 24.6985C50.9741 24.8028 51.0176 24.9285 51.0176 25.0565C51.0176 25.4896 50.6345 25.7131 49.8782 25.7131C49.7569 25.7131 49.5523 25.7131 49.4243 25.709C49.393 25.131 49.3931 24.349 49.3931 24.1131C49.3931 23.8405 49.4027 23.2326 49.4243 22.7133C49.507 22.6955 49.6505 22.6841 49.7823 22.6841ZM48.374 22.286C48.4053 22.6966 48.4243 23.7347 48.4243 24.1131C48.4243 24.4621 48.4243 25.6298 48.3693 26.1334L48.3606 26.1728H50.1879C51.0813 26.1728 52.0328 25.894 52.0328 25.0974C52.0328 24.5991 51.6711 24.2306 50.9901 24.029C51.4919 23.8945 51.8295 23.5523 51.8295 23.161C51.8295 22.5108 51.0813 22.2662 50.3858 22.2492H48.3693L48.374 22.286ZM54.268 23.4025C54.356 23.5852 54.5799 24.1077 54.8338 24.7316C54.7952 24.7316 54.7479 24.7357 54.7479 24.7357L54.268 24.7422C54.268 24.7422 53.7677 24.7316 53.6935 24.7316C53.8969 24.2305 54.0959 23.7839 54.268 23.4025ZM54.7196 22.2491H53.9849L53.9805 22.2666C53.761 22.8607 52.377 25.8705 52.2607 26.1201L52.2405 26.173H53.1754L53.1812 26.1496C53.2592 25.8807 53.3679 25.5788 53.4895 25.2486C53.5193 25.2486 54.2622 25.2369 54.2622 25.2369L54.906 25.2472C54.906 25.2472 55.0179 25.2486 55.0428 25.2486C55.2117 25.6703 55.3371 25.9909 55.3917 26.1496L55.4016 26.173H56.4835L54.7432 22.2491H54.7196ZM56.7897 23.2638C56.7897 23.9532 57.4803 24.2305 58.0916 24.4842C58.5677 24.6738 59.0657 24.8734 59.0657 25.2022C59.0657 25.3016 59.0461 25.3852 58.9906 25.4439C58.876 25.5789 58.6442 25.6356 58.2763 25.6151C57.9119 25.6005 57.501 25.4857 57.0387 25.2726L56.8578 25.1856V26.0404L56.9811 26.0719L57.053 26.0842C57.2812 26.1409 57.7222 26.2446 58.16 26.2446C59.3123 26.2446 60 25.7849 60 25.0251C60 24.3115 59.2901 24.0341 58.6627 23.784C58.2006 23.5966 57.7222 23.4111 57.7222 23.1051C57.7222 23.0168 57.7222 22.7594 58.3193 22.7594C58.7591 22.7594 59.1866 22.9385 59.4295 23.0315L59.651 23.1241L59.6496 22.9768V22.2661L59.4295 22.2263C59.2056 22.181 58.8322 22.1068 58.4476 22.1068C57.4534 22.1068 56.7897 22.5761 56.7897 23.2638Z" fill="black"/>
<defs>
<linearGradient id="paint0_linear_1539_294" x1="10.2135" y1="17.6946" x2="10.2135" y2="30.8131" gradientUnits="userSpaceOnUse">
<stop stop-color="#007348"/>
<stop offset="0.6" stop-color="#8DC9AB"/>
<stop offset="1" stop-color="#00925B"/>
</linearGradient>
<linearGradient id="paint1_linear_1539_294" x1="10.194" y1="14.9133" x2="10.194" y2="29.6549" gradientUnits="userSpaceOnUse">
<stop stop-color="#00925B"/>
<stop offset="0.3" stop-color="#8DC9AB"/>
<stop offset="0.55" stop-color="#00925B"/>
<stop offset="0.8352" stop-color="#007348"/>
<stop offset="1" stop-color="#009C6D"/>
</linearGradient>
<linearGradient id="paint2_linear_1539_294" x1="12.5552" y1="28.8407" x2="12.5552" y2="19.3011" gradientUnits="userSpaceOnUse">
<stop stop-color="#00A678"/>
<stop offset="1" stop-color="#00925B"/>
</linearGradient>
<linearGradient id="paint3_linear_1539_294" x1="6.6364" y1="28.8412" x2="6.6364" y2="19.2988" gradientUnits="userSpaceOnUse">
<stop stop-color="#00A678"/>
<stop offset="1" stop-color="#00925B"/>
</linearGradient>
<linearGradient id="paint4_linear_1539_294" x1="8.48015" y1="28.8391" x2="8.48015" y2="19.303" gradientUnits="userSpaceOnUse">
<stop stop-color="#00A678"/>
<stop offset="1" stop-color="#00925B"/>
</linearGradient>
<linearGradient id="paint5_linear_1539_294" x1="10.0744" y1="28.8404" x2="10.0744" y2="19.301" gradientUnits="userSpaceOnUse">
<stop stop-color="#00A678"/>
<stop offset="1" stop-color="#00925B"/>
</linearGradient>
</defs>
</svg>