<svg width="38" height="24" viewBox="0 0 64 48" fill="none" xmlns="http://www.w3.org/2000/svg">
<g clip-path="url(#clip0_1547_294)">
<mask id="mask0_1547_294" style="mask-type:luminance" maskUnits="userSpaceOnUse" x="-8" y="-37" width="239" height="338">
<path d="M-7.60388 -36.3298H230.846V300.5H-7.60388V-36.3298Z" fill="white"/>
</mask>
<g mask="url(#mask0_1547_294)">
<path d="M8.01257 17.0156H21.2478V30.2571H8.01257V17.0156Z" fill="#790008"/>
<path d="M19.9453 23.6348H12.919L9.79419 19.5143H16.8423L19.9453 23.6348Z" fill="white"/>
<path d="M16.8423 27.7553H9.79419L12.919 23.6348H19.9453L16.8423 27.7553Z" fill="#ED1D24"/>
<path fill-rule="evenodd" clip-rule="evenodd" d="M55.9813 25.454C55.9813 27.0165 54.9606 27.9746 53.3199 27.9746H49.6752V19.2951H53.1602C54.8228 19.2951 55.8623 20.2345 55.8623 21.7562C55.8623 22.7143 55.2204 23.3155 54.8416 23.5159C55.3018 23.7538 55.9813 24.2955 55.9813 25.454ZM51.4193 22.7738H53.0381C53.6987 22.7738 54.0995 22.4137 54.0995 21.8157C54.0995 21.2145 53.6987 20.8763 53.0381 20.8763H51.4193V22.7738ZM54.2216 25.3538C54.2216 24.8716 53.9398 24.3519 53.1382 24.3519H51.4193V26.3934H53.1382C53.9398 26.3934 54.2216 25.8517 54.2216 25.3538ZM45.9116 19.2732H47.615V27.9339H45.8709V22.7519C45.7332 22.993 42.8494 28.0122 42.8494 28.0122C42.8494 28.0122 39.9656 22.993 39.8247 22.7519V27.9339H38.0651V19.2732H39.7872C39.7872 19.2732 42.7899 24.712 42.8494 24.8341C42.9089 24.712 45.9116 19.2732 45.9116 19.2732ZM34.1793 19.292H35.9202V27.9527H34.1793V19.292ZM31.2956 25.8517L32.5167 27.0728L32.4791 27.1135C31.6557 27.8337 30.5754 28.2345 29.4952 28.2345C26.9308 28.2345 24.8298 26.1742 24.8298 23.6317C24.8298 21.1112 26.9308 19.0509 29.4952 19.0509C30.5754 19.0509 31.6557 19.4329 32.4791 20.1531L32.5167 20.1938L31.2956 21.4118L31.2768 21.393C30.757 20.9734 30.1371 20.773 29.4952 20.773C27.8921 20.773 26.6709 22.0317 26.6709 23.6317C26.6709 25.2536 27.8921 26.4936 29.4952 26.4936C30.1371 26.4936 30.757 26.2932 31.2768 25.8736L31.2956 25.8517Z" fill="#790008"/>
</g>
</g>
<defs>
<clipPath id="clip0_1547_294">
<rect width="48" height="13.2759" fill="white" transform="translate(8 17)"/>
</clipPath>
</defs>
</svg>