<svg width="38" height="24" viewBox="0 0 64 48" fill="none" xmlns="http://www.w3.org/2000/svg">
<path d="M25.4399 30.1343L25.3844 30.188C24.4907 31.0986 23.4561 31.5813 22.39 31.5813C20.165 31.5813 18.5497 29.912 18.5497 27.6087C18.5497 25.3097 20.165 23.6381 22.3901 23.6381C23.4561 23.6381 24.4907 24.1226 25.3845 25.0357L25.44 25.091L26.8709 23.3607L26.8327 23.3136C25.6426 21.9074 24.2146 21.2227 22.4591 21.2227C20.6975 21.2227 19.0872 21.8155 17.9267 22.8847C16.6657 24.0425 16 25.6753 16 27.6088C16 29.5412 16.6657 31.1781 17.9267 32.3362C19.0872 33.4102 20.6975 33.9998 22.4591 33.9998C24.2146 33.9998 25.6426 33.3157 26.8327 31.9087L26.8709 31.8651L25.4399 30.1343ZM28.317 33.7644H30.8451V21.4232H28.317V33.7644ZM40.7477 31.0809C40.0732 31.4915 39.4455 31.698 38.8818 31.698C38.0651 31.698 37.696 31.2669 37.696 30.3067V23.7586H40.2707V21.4344H37.696V17.5945L35.2181 18.9203V21.4343H33.0805V23.7584H35.2181V30.7243C35.2181 32.6221 36.3424 33.9187 38.0206 33.9525C39.1601 33.9748 39.847 33.6353 40.2641 33.3871L40.2887 33.369L40.8972 30.9894L40.7477 31.0809ZM42.8415 33.7644H45.3713V21.4232H42.8415V33.7644Z" fill="#003B70"/>
<path fill-rule="evenodd" clip-rule="evenodd" d="M46.8856 19.2337C44.5714 15.9555 40.7282 14 36.8181 14C32.9095 14 29.0654 15.9556 26.7552 19.2337L26.6366 19.4023H29.5505L29.5827 19.3673C31.566 17.3204 34.155 16.2378 36.8179 16.2378C39.4814 16.2378 42.0699 17.3204 44.0569 19.3673L44.0892 19.4023H47.0021L46.8856 19.2337Z" fill="#D9261C"/>
</svg>