<svg width="38" height="24" viewBox="0 0 64 48" fill="none" xmlns="http://www.w3.org/2000/svg">
<g clip-path="url(#clip0_1072_1014)">
<mask id="mask0_1072_1014" style="mask-type:luminance" maskUnits="userSpaceOnUse" x="8" y="20" width="48" height="8">
<path d="M56 20H8V27.7298H56V20Z" fill="white"/>
</mask>
<g mask="url(#mask0_1072_1014)">
<path fill-rule="evenodd" clip-rule="evenodd" d="M42.1891 23.618C42.5182 22.9118 43.1331 21.7804 43.613 21.0445C43.821 20.7291 44.0336 20.3634 44.349 20.1371C44.4884 20.0388 44.6461 19.9725 44.8175 20.0091C44.909 20.0274 44.9935 20.0754 45.0667 20.1371C45.2929 20.3131 45.0232 20.6536 44.9204 20.8319C44.749 21.1107 44.5501 21.3736 44.3787 21.6593C43.9467 22.3587 43.5216 23.0763 43.1491 23.826C42.9479 24.2328 42.7537 24.6534 42.5891 25.0808C42.5228 25.2453 42.1091 26.139 42.2554 26.2259C42.4268 26.3242 42.6942 25.9882 42.7971 25.8922C42.8885 25.8122 43.0896 25.6362 43.2176 25.6842C43.5148 25.8007 43.1559 26.3242 43.0645 26.4636C42.8154 26.8704 42.4611 27.2475 41.9697 27.2658C41.556 27.2772 41.2155 26.9618 41.172 26.5116C41.1469 26.2327 41.1972 25.9516 41.2566 25.6773C41.4212 24.9528 41.8166 24.29 42.1868 23.6203L42.1891 23.618Z" fill="#EC1C24"/>
<path fill-rule="evenodd" clip-rule="evenodd" d="M40.8338 25.5974C40.8338 25.6522 40.8223 25.7071 40.7972 25.7688C40.676 26.0362 40.3035 26.1642 40.0658 26.3173C39.6772 26.5733 39.275 26.811 38.8544 27.0167C38.1368 27.3641 37.4854 27.7481 36.354 27.2361C35.4969 26.8476 35.3438 25.7825 35.7506 24.6671C36.1026 23.7118 36.7791 22.8775 37.5814 22.153C38.3905 21.4216 39.2796 20.7359 39.9241 20.6674C40.1549 20.6422 40.4041 20.6788 40.5938 20.8433C40.9595 21.1725 40.916 21.8056 40.7149 22.2193C40.5938 22.4684 40.4589 22.6398 40.1915 22.6764C39.9652 22.7061 39.6864 22.6329 39.7344 22.3175C39.7595 22.1415 39.9538 21.8056 39.8372 21.6364C39.6727 21.4056 39.0761 21.9404 38.9436 22.0387C38.6876 22.2284 38.4499 22.4455 38.219 22.6649C37.8122 23.0489 37.4831 23.554 37.1974 24.0523C36.8751 24.6374 36.5757 25.3048 36.5711 25.9996C36.5711 26.2122 36.578 26.4613 36.6923 26.651C37.0031 27.1744 37.7871 26.7973 38.1962 26.6441C38.5916 26.4979 38.9801 26.3219 39.3527 26.1207C39.7367 25.9082 40.0955 25.6591 40.4658 25.4328C40.6852 25.2979 40.8315 25.4145 40.8315 25.5974H40.8338Z" fill="#EC1C24"/>
<path fill-rule="evenodd" clip-rule="evenodd" d="M45.5306 21.1656C45.7135 21.6707 45.9192 22.1507 46.4974 22.3107C46.4974 21.8421 46.1752 20.9302 45.5306 21.1656Z" fill="#EC1C24"/>
<path fill-rule="evenodd" clip-rule="evenodd" d="M45.4759 24.0088C45.4644 23.8877 45.3959 23.778 45.2633 23.6614C45.0987 23.522 44.8565 23.4534 44.7033 23.6431C44.5868 23.7894 44.5388 23.9837 44.4656 24.1482C44.3559 24.4156 44.2714 24.6899 44.1731 24.9573C43.9651 25.5356 43.8028 26.1253 43.6931 26.7286C43.8097 26.8818 43.9011 27.0509 44.2165 27.0326C44.5022 26.4544 44.7948 25.8761 45.0507 25.2864C45.1856 24.9825 45.3067 24.6716 45.4164 24.3562C45.4644 24.2214 45.4896 24.1117 45.4782 24.0088H45.4759Z" fill="#EC1C24"/>
<path fill-rule="evenodd" clip-rule="evenodd" d="M48.5133 25.2682C48.495 25.2979 48.4836 25.3162 48.4767 25.3231C48.4036 25.4259 48.3122 25.5173 48.2207 25.6019C47.8916 25.9059 47.6174 26.2602 47.2722 26.5458C47.0231 26.7538 46.7191 26.8864 46.3969 26.7653C46.0014 26.6121 45.6472 26.0659 45.7637 25.3299C45.91 24.3814 46.6643 23.0238 47.1511 22.6215C47.5099 22.3244 47.9533 22.3427 48.3007 22.6398C48.5202 22.8295 48.8173 23.1929 48.8241 23.4969C48.8241 23.5815 48.8127 23.6317 48.7807 23.6546C48.6961 23.7277 48.5202 23.6066 48.415 23.5152C48.287 23.4055 48.1476 23.2775 47.9648 23.314C47.8482 23.3392 47.7088 23.4969 47.6242 23.5769C47.4894 23.698 47.3682 23.8329 47.2585 23.9791C47.0322 24.2763 46.8563 24.6122 46.7283 24.9642C46.662 25.1356 46.2711 25.9196 46.6734 25.9493C46.8014 25.9562 46.918 25.8876 47.0254 25.8465C47.1602 25.7985 47.2814 25.7482 47.4139 25.6933C47.6036 25.6133 47.8162 25.5173 48.0036 25.4076C48.1613 25.3162 48.351 25.1882 48.5567 25.1334C48.5864 25.1265 48.5453 25.2134 48.5087 25.2682H48.5133Z" fill="#EC1C24"/>
<path fill-rule="evenodd" clip-rule="evenodd" d="M52.8948 23.0398C52.8285 22.9598 52.6936 22.8455 52.5977 22.8203C52.3965 22.7723 52.0994 22.9186 51.9394 23.0101C51.7451 23.1266 51.5806 23.2706 51.4229 23.4237C51.0343 23.7757 50.4606 24.1894 50.0721 24.5734C50.1887 24.2214 50.3281 23.7712 50.4972 23.4603C50.6069 23.266 50.6549 23.0718 50.776 22.8821C50.9155 22.6695 51.0503 22.4432 51.1897 22.2307C51.384 21.9335 51.7314 21.5359 51.7611 21.1656C51.7794 20.8913 51.4137 20.5211 51.0732 20.6239C50.4881 21.433 50.1247 22.4181 49.6675 23.2775C49.3887 24.0386 48.991 24.8294 48.9019 25.6316C48.8904 25.7665 48.8722 25.9059 48.8539 26.0384C48.8287 26.2761 48.8059 26.5253 48.8539 26.763C48.8904 26.971 48.9887 27.1287 49.1647 27.2429C49.4618 27.4327 49.4938 26.939 49.5121 26.7493C49.5418 26.4704 49.6035 26.2007 49.6881 25.9333L49.5601 26.4636C49.8092 26.6396 49.9075 26.8887 50.1932 26.9687C50.7463 27.1149 51.2514 26.779 51.6651 26.4887C51.8114 26.3858 52.3051 26.1413 52.4559 25.8922C52.5222 25.7756 52.5222 25.6613 52.3759 25.5585C52.2182 25.4373 51.9554 25.6979 51.8046 25.7847C51.544 25.9425 51.2812 26.0956 51.0023 26.2281C50.9109 26.2716 50.1087 26.4956 50.1018 26.5138C50.1749 26.203 50.2846 25.9059 50.4355 25.6248C50.7098 25.1128 51.0252 24.6328 51.4754 24.2557C51.6948 24.0728 51.9257 23.8969 52.1565 23.7254C52.2731 23.6409 52.3874 23.554 52.5039 23.4694C52.6068 23.3963 52.8514 23.4077 52.9359 23.3232C53.0159 23.25 52.9656 23.122 52.8925 23.0375L52.8948 23.0398Z" fill="#EC1C24"/>
<path fill-rule="evenodd" clip-rule="evenodd" d="M53.2902 24.178C53.3085 24.0203 53.3519 23.8626 53.3885 23.7277C53.4319 23.5814 53.4868 23.4352 53.5531 23.2957C53.6742 23.0466 53.8388 22.8158 54.0468 22.6261C54.2479 22.4432 54.4856 22.3038 54.7347 22.2009C54.9541 22.1095 55.3747 21.9335 55.6055 22.0181C55.7267 22.0615 56.1221 22.3701 55.9644 22.5415C55.8067 22.7129 55.6855 22.6581 55.5027 22.7358C54.9678 22.9666 53.7793 23.7711 53.9873 24.6282C53.9942 24.6648 54.0422 24.7448 54.0673 24.7677C54.4444 25.1516 55.9164 25.5516 55.2307 26.3744C54.945 26.7218 54.4582 26.8978 54.0125 27.1104C53.8228 27.2018 53.5919 27.3184 53.3611 27.4326C53.1234 27.5538 52.6731 27.8943 52.4171 27.6269C52.2092 27.4075 52.6114 27.2201 52.7577 27.1287C52.9702 26.9938 53.1828 26.8681 53.3908 26.7264C53.8045 26.4476 54.193 26.1299 54.4627 25.7047C54.4993 25.6499 53.5005 24.9254 53.4045 24.7974C53.2879 24.6077 53.2697 24.3951 53.2948 24.1757L53.2902 24.178Z" fill="#EC1C24"/>
<path d="M13.0526 25.8282C12.6503 26.1505 12.1635 26.315 11.6538 26.315C10.4128 26.315 9.44367 25.3299 9.44367 24.0637C9.44367 22.7975 10.4105 21.8124 11.6538 21.8124C12.1658 21.8124 12.6526 21.9839 13.0526 22.2993L13.0709 22.3107L14.0262 21.3553L14.0011 21.337C13.3429 20.7702 12.5109 20.4617 11.647 20.4617C9.63794 20.4617 8.00146 22.0799 8.00146 24.0637C8.00146 26.0476 9.63794 27.6658 11.647 27.6658C12.5109 27.6658 13.3451 27.355 14.0011 26.7904L14.0262 26.7722L13.0709 25.8168L13.0526 25.8282ZM15.329 27.4647H16.7095V20.6559H15.329V27.4647ZM22.1378 25.0054C22.0898 24.914 19.7333 20.6422 19.7333 20.6422H18.3894V27.451H19.7653C19.7653 27.451 19.7653 23.5861 19.7653 23.3849C19.8682 23.5609 22.1378 27.5058 22.1378 27.5058C22.1378 27.5058 24.3959 23.5632 24.4988 23.3849C24.4988 23.5861 24.4988 27.451 24.4988 27.451H25.8747V20.6422H24.5308C24.5308 20.6422 22.1881 24.9208 22.1401 25.0054H22.1378ZM31.5406 23.9769C31.8446 23.8123 32.3383 23.3438 32.3383 22.5827C32.3383 21.3965 31.5292 20.6605 30.2264 20.6605H27.4883V27.4693H30.343C31.6321 27.4693 32.4366 26.715 32.4366 25.4968C32.4366 24.578 31.8949 24.1529 31.5429 23.9746L31.5406 23.9769ZM28.8619 21.8902C28.9168 21.8902 30.1213 21.8902 30.1213 21.8902C30.6516 21.8902 30.967 22.169 30.967 22.6398C30.967 23.1084 30.6516 23.3895 30.1213 23.3895C30.1213 23.3895 28.9168 23.3895 28.8619 23.3895V21.8924V21.8902ZM30.2059 26.2282C30.2059 26.2282 28.9168 26.2282 28.8619 26.2282V24.6283C28.9168 24.6283 30.2059 24.6283 30.2059 24.6283C30.8321 24.6283 31.0584 25.042 31.0584 25.426C31.0584 25.8145 30.8321 26.2282 30.2059 26.2282Z" fill="#820024"/>
</g>
</g>
<defs>
<clipPath id="clip0_1072_1014">
<rect width="48" height="8" fill="white" transform="translate(8 20)"/>
</clipPath>
</defs>
</svg>