<svg width="38" height="24" viewBox="0 0 64 48" fill="none" xmlns="http://www.w3.org/2000/svg">
<g clip-path="url(#clip0_1072_1183)">
<mask id="mask0_1072_1183" style="mask-type:luminance" maskUnits="userSpaceOnUse" x="8" y="18" width="48" height="13">
<path d="M56 18H8V30.9H56V18Z" fill="white"/>
</mask>
<g mask="url(#mask0_1072_1183)">
<path d="M27.3884 18H14.4729V30.9H27.3884V18Z" fill="white"/>
<path d="M33.8462 24.4652L27.3884 18V30.9152L33.8462 24.4652Z" fill="#DB0011"/>
<path d="M20.9306 24.4652L27.3884 18H14.4729L20.9306 24.4652Z" fill="#DB0011"/>
<path d="M8 24.4652L14.4729 30.9152V18L8 24.4652Z" fill="#DB0011"/>
<path d="M20.9306 24.4652L14.4729 30.9152H27.3884L20.9306 24.4652Z" fill="#DB0011"/>
<path d="M39.5138 24.8445H37.1738V27.1514H36.0038V21.7485H37.1738V23.9643H39.5138V21.7485H40.6837V27.1514H39.5138V24.8445Z" fill="black"/>
<path d="M43.51 27.2576C42.34 27.2576 41.3827 26.7871 41.3676 25.4971H42.5375C42.5527 26.0738 42.887 26.4229 43.5252 26.4229C43.9962 26.4229 44.5432 26.1801 44.5432 25.6489C44.5432 25.2239 44.1786 25.1025 43.5708 24.9204L43.1757 24.8142C42.3248 24.5714 41.4739 24.2375 41.4739 23.2662C41.4739 22.0672 42.5983 21.6575 43.6164 21.6575C44.6648 21.6575 45.5765 22.0217 45.5917 23.2207H44.4217C44.3761 22.735 44.0874 22.4467 43.5404 22.4467C43.0997 22.4467 42.6743 22.6743 42.6743 23.1599C42.6743 23.5545 43.039 23.6759 43.7987 23.9188L44.2545 24.0554C45.1814 24.3437 45.774 24.6624 45.774 25.573C45.7588 26.7871 44.5736 27.2576 43.51 27.2576Z" fill="black"/>
<path d="M46.4274 21.7638H48.3115C48.661 21.7486 49.0257 21.7638 49.3751 21.8245C50.0285 21.9763 50.5299 22.4012 50.5299 23.1297C50.5299 23.8278 50.0893 24.1768 49.4511 24.3438C50.1805 24.4804 50.7275 24.8446 50.7275 25.649C50.7275 26.8783 49.5119 27.1514 48.5698 27.1514H46.4426L46.4274 21.7638ZM48.3115 24.0099C48.8281 24.0099 49.3599 23.9037 49.3599 23.2814C49.3599 22.7199 48.8737 22.5681 48.3875 22.5681H47.567V24.0099H48.3115ZM48.4179 26.3471C48.9649 26.3471 49.4967 26.2257 49.4967 25.5579C49.4967 24.8901 49.0409 24.7687 48.4787 24.7687H47.5518V26.3471H48.4179Z" fill="black"/>
<path d="M53.7663 27.2576C52.0189 27.2576 51.244 26.1498 51.244 24.4955C51.244 22.8413 52.1101 21.6423 53.8271 21.6423C54.9059 21.6423 55.9544 22.128 55.9848 23.3421H54.7692C54.7084 22.7958 54.3437 22.5226 53.8271 22.5226C52.7635 22.5226 52.4444 23.6608 52.4444 24.5259C52.4444 25.3909 52.7635 26.3926 53.7815 26.3926C54.3133 26.3926 54.7084 26.1042 54.7844 25.5579H56C55.8784 26.8023 54.8907 27.2576 53.7663 27.2576Z" fill="black"/>
</g>
</g>
<defs>
<clipPath id="clip0_1072_1183">
<rect width="48" height="13" fill="white" transform="translate(8 18)"/>
</clipPath>
</defs>
</svg>