<svg width="38" height="24" viewBox="0 0 64 48" fill="none" xmlns="http://www.w3.org/2000/svg">
<g clip-path="url(#clip0_1072_1119)">
<path fill-rule="evenodd" clip-rule="evenodd" d="M11.2692 24.4216C10.1827 23.6011 9.26139 22.4103 8.96219 21.6303L8.28528 22.1401C8.67108 23.0206 9.29295 23.7314 9.907 24.4216C11.2533 25.9021 13.4809 26.7527 14.473 26.7126V25.6724C13.922 25.7221 12.5048 25.3621 11.2692 24.4216Z" fill="#00529B"/>
<path fill-rule="evenodd" clip-rule="evenodd" d="M10.1668 20.6997L9.47424 21.2095C10.5132 23.1906 12.4657 24.7918 14.473 24.9115V23.8914C12.8043 23.791 11.0957 22.5405 10.1668 20.6997Z" fill="#00529B"/>
<path fill-rule="evenodd" clip-rule="evenodd" d="M11.3556 19.7593L10.6549 20.2996C11.7886 22.1806 13.1114 22.9411 14.473 23.141V22.0901C13.5994 22.0609 12.1587 21.2501 11.3556 19.7593Z" fill="#00529B"/>
<path d="M10.6549 28.4935L11.3556 29.0239C11.6782 28.4236 12.1118 27.9435 12.5602 27.5732C13.2293 27.0329 13.9458 26.7325 14.473 26.703V25.6621C13.8198 25.7622 13.182 25.9827 12.5602 26.3931C11.8908 26.833 11.2455 27.5129 10.6549 28.4935Z" fill="#CE1041"/>
<path d="M9.474 27.613L10.1668 28.1033C10.7337 26.993 11.5997 26.0821 12.5601 25.5321C13.1742 25.1717 13.8276 24.9619 14.4732 24.9115V23.8914C13.8198 23.9312 13.1742 24.1315 12.5601 24.4418C11.2927 25.1018 10.1749 26.2621 9.474 27.613Z" fill="#CE1041"/>
<path d="M12.5601 22.5605C11.6469 22.9607 10.647 23.5912 9.907 24.4017C9.29321 25.1019 8.67108 25.8325 8.28528 26.7031L8.9781 27.2133C9.26139 26.4322 10.1827 25.2222 11.2692 24.3918C11.6941 24.0712 12.1349 23.8213 12.5601 23.6214C13.3789 23.2514 14.1109 23.1006 14.4732 23.141V22.1007C14.0246 22.0702 13.3239 22.2406 12.5601 22.5605Z" fill="#CE1041"/>
<path d="M16.0415 26.6947V22.1205H17.0335V23.9336H18.2465V22.1205H19.2343V26.6947H18.2465V24.822H17.0304V26.6947H16.0415Z" fill="#00529B"/>
<path d="M20.9132 23.4224C20.1319 23.4224 19.4639 23.9336 19.4639 25.1045C19.4639 26.2797 20.1319 26.7882 20.9132 26.7882C21.6892 26.7882 22.3585 26.2797 22.3585 25.1045C22.3585 23.9336 21.6892 23.4224 20.9132 23.4224ZM20.4301 25.1045C20.4301 24.6559 20.5151 24.1162 20.9132 24.1162C21.3081 24.1162 21.3905 24.6559 21.3905 25.1045C21.3905 25.5547 21.3081 26.0914 20.9132 26.0914C20.5151 26.0914 20.4301 25.5547 20.4301 25.1045Z" fill="#00529B"/>
<path d="M36.6798 23.4224C35.8985 23.4224 35.2302 23.9336 35.2302 25.1045C35.2302 26.2797 35.8985 26.7882 36.6798 26.7882C37.4558 26.7882 38.1252 26.2797 38.1252 25.1045C38.1252 23.9336 37.4558 23.4224 36.6798 23.4224ZM36.1964 25.1045C36.1964 24.6559 36.2815 24.1162 36.6798 24.1162C37.0747 24.1162 37.1569 24.6559 37.1569 25.1045C37.1569 25.5547 37.0747 26.0914 36.6798 26.0914C36.2815 26.0914 36.1964 25.5547 36.1964 25.1045Z" fill="#00529B"/>
<path d="M23.5449 23.8673C23.7603 23.5503 24.0102 23.4224 24.3285 23.4224C24.8632 23.4224 25.2607 23.8673 25.2607 24.5701V26.6947H24.3185V24.827C24.3065 24.5177 24.2452 24.1815 23.9534 24.1815C23.4864 24.1815 23.5449 24.8323 23.5449 24.8721V26.6947H22.6006V24.335C22.6006 24.0499 22.5964 23.862 22.5703 23.5152H23.5308L23.5449 23.8673Z" fill="#00529B"/>
<path d="M39.2955 23.8673C39.5114 23.5503 39.7611 23.4224 40.0796 23.4224C40.6146 23.4224 41.0119 23.8673 41.0119 24.5701V26.6947H40.0694V24.827C40.0577 24.5177 39.9964 24.1815 39.7039 24.1815C39.2373 24.1815 39.2955 24.8323 39.2955 24.8721V26.6947H38.3519V24.335C38.3519 24.0499 38.3475 23.862 38.3212 23.5152H39.2816L39.2955 23.8673Z" fill="#00529B"/>
<path d="M44.0865 23.5152H43.1639L43.1375 23.9787H43.1266C42.982 23.6071 42.7136 23.4224 42.3654 23.4224C41.642 23.4224 41.214 24.0791 41.214 25.0047C41.214 25.8511 41.5967 26.5903 42.315 26.5903C42.633 26.5903 42.9719 26.4365 43.1266 26.0841H43.1375V26.4445C43.1375 26.9126 43.0621 27.2563 42.6442 27.2563C42.5449 27.2563 42.445 27.2288 42.3717 27.1744C42.3012 27.1128 42.2524 27.016 42.247 26.8595H41.3624C41.3624 27.7804 42.0959 27.9489 42.6487 27.9489C42.9627 27.9489 43.4821 27.8176 43.7351 27.5053C44.0275 27.1502 44.0698 26.7962 44.0865 26.2535V23.5152ZM43.1375 25.0047C43.1375 25.4012 43.053 25.8932 42.6638 25.8932C42.2772 25.8932 42.1888 25.4012 42.1888 25.0047C42.1888 24.6112 42.2772 24.1163 42.6638 24.1163C43.053 24.1163 43.1375 24.6112 43.1375 25.0047Z" fill="#00529B"/>
<path d="M28.367 23.5152H27.4444L27.418 23.9787H27.4068C27.2618 23.6071 26.9939 23.4224 26.6459 23.4224C25.9223 23.4224 25.4948 24.0791 25.4948 25.0047C25.4948 25.8511 25.8769 26.5903 26.5955 26.5903C26.913 26.5903 27.2521 26.4365 27.4068 26.0841H27.418V26.4445C27.418 26.9126 27.3426 27.2563 26.925 27.2563C26.8254 27.2563 26.7255 27.2288 26.6522 27.1744C26.5817 27.1128 26.5324 27.016 26.5272 26.8595H25.6427C25.6427 27.7804 26.3764 27.9489 26.9289 27.9489C27.243 27.9489 27.7623 27.8176 28.0159 27.5053C28.3075 27.1502 28.3498 26.7962 28.367 26.2535V23.5152ZM27.418 25.0047C27.418 25.4012 27.3335 25.8932 26.944 25.8932C26.5575 25.8932 26.4693 25.4012 26.4693 25.0047C26.4693 24.6112 26.5575 24.1163 26.944 24.1163C27.3335 24.1163 27.418 24.6112 27.418 25.0047Z" fill="#00529B"/>
<path d="M29.6403 26.6947V22.1205H30.6271V25.8089H32.2477V26.6947H29.6403Z" fill="#00529B"/>
<path d="M35.0281 25.3458C35.0281 24.1639 34.7028 23.4224 33.6881 23.4224C32.9387 23.4224 32.3486 23.9909 32.3486 24.9997C32.3486 26.2488 32.7451 26.7878 33.7458 26.7878C34.0387 26.7878 34.3194 26.7186 34.5343 26.5415C34.7743 26.3701 34.977 26.0658 35.008 25.6581H34.1329C34.0966 25.9544 33.9341 26.1106 33.6693 26.1106C33.3193 26.1106 33.2337 25.7568 33.2387 25.3458H35.0281ZM33.2569 24.703C33.283 24.34 33.3641 24.042 33.6881 24.0234C33.8321 24.0128 33.9422 24.0947 34.0178 24.2266C34.093 24.3569 34.1329 24.5332 34.1329 24.703H33.2569Z" fill="#00529B"/>
<path d="M47.0724 23.9014C46.9952 23.9336 46.8567 23.9522 46.6634 23.9522H45.9795V22.6639H46.6094C46.8463 22.6636 47.0135 22.6858 47.104 22.7249C47.195 22.7653 47.2626 22.8353 47.3114 22.942C47.3615 23.0495 47.3865 23.1738 47.3868 23.319C47.3865 23.4718 47.3594 23.5948 47.3075 23.6919C47.2556 23.7884 47.1786 23.858 47.0724 23.9014ZM47.0654 26.0344C47.013 26.048 46.9136 26.0556 46.7725 26.0552H45.9795V24.5777H46.7138C46.9227 24.5777 47.0823 24.6036 47.1888 24.6523C47.2947 24.6997 47.3755 24.7809 47.4353 24.8979C47.4945 25.016 47.5245 25.1539 47.525 25.317C47.525 25.4562 47.5036 25.5769 47.4629 25.681C47.4209 25.7864 47.369 25.864 47.3069 25.9167C47.2433 25.971 47.1635 26.0105 47.0654 26.0344ZM47.8826 24.6016C47.7827 24.4216 47.6419 24.291 47.4674 24.2051C47.5973 24.1027 47.7003 23.9747 47.7697 23.8192C47.8495 23.6415 47.8899 23.4493 47.8899 23.2474C47.8899 23.0302 47.8448 22.8217 47.7551 22.6241C47.6651 22.4252 47.5383 22.276 47.3787 22.1799C47.2183 22.0844 47.0096 22.0377 46.7521 22.0377H45.4692V26.6821H46.7725C46.9864 26.6821 47.1684 26.6563 47.3187 26.6042C47.4679 26.5522 47.5941 26.4746 47.6956 26.3702C47.7973 26.2658 47.8816 26.1182 47.9494 25.9306C48.0172 25.7413 48.0512 25.5358 48.0512 25.317C48.0512 25.0441 47.9953 24.8041 47.8826 24.6016Z" fill="#CE1041"/>
<path d="M50.0486 25.0352V25.1751C50.0486 25.4138 50.0274 25.5955 49.9862 25.7148C49.9322 25.8693 49.8467 25.992 49.7319 26.0812C49.6163 26.17 49.482 26.2158 49.3325 26.2158C49.1854 26.2158 49.0722 26.1697 48.9973 26.0788C48.9217 25.9873 48.8854 25.8763 48.8854 25.739C48.8854 25.6492 48.9021 25.57 48.9368 25.4967C48.971 25.4248 49.0182 25.3711 49.0816 25.3326C49.1473 25.2935 49.2629 25.2567 49.4259 25.2249C49.6917 25.1722 49.9007 25.1088 50.0486 25.0352ZM50.6501 26.6016C50.601 26.4806 50.5679 26.3523 50.551 26.2197C50.5343 26.0858 50.5257 25.7569 50.5257 25.2431V24.4995C50.5257 24.2466 50.5186 24.0762 50.505 23.9771C50.4797 23.8183 50.4354 23.685 50.3725 23.5796C50.3089 23.4735 50.2095 23.3853 50.077 23.3167C49.946 23.2484 49.7744 23.2139 49.567 23.2139C49.3576 23.2139 49.171 23.2537 49.013 23.3329C48.851 23.4132 48.7252 23.5295 48.64 23.679C48.5547 23.8276 48.4931 24.0228 48.4561 24.2618L48.4487 24.3069L48.9107 24.3941L48.918 24.355C48.9598 24.1329 49.0234 23.9761 49.1074 23.8915C49.1914 23.8063 49.3265 23.7626 49.5083 23.7626C49.7021 23.7626 49.8498 23.8223 49.9466 23.9399C50.0157 24.0238 50.0509 24.175 50.0509 24.3881C50.0509 24.4064 50.0501 24.4438 50.0491 24.5032C49.897 24.5718 49.6638 24.6318 49.3555 24.6825C49.1943 24.7097 49.0714 24.7382 48.9903 24.7681C48.8792 24.8105 48.7779 24.8741 48.6887 24.9567C48.5985 25.0415 48.5247 25.1546 48.4696 25.2932C48.4141 25.4324 48.3856 25.5872 48.3856 25.7546C48.3856 26.0401 48.46 26.2784 48.6076 26.4627C48.7542 26.6464 48.9663 26.7399 49.2357 26.7399C49.3988 26.7399 49.5532 26.7027 49.6954 26.6281C49.8221 26.5625 49.9546 26.4534 50.0906 26.3033C50.1054 26.4286 50.1307 26.542 50.1662 26.6401L50.1753 26.6656H50.6762L50.6501 26.6016Z" fill="#CE1041"/>
<path d="M53.0618 24.0407L53.0613 24.04C53.0368 23.8749 52.9927 23.7307 52.9293 23.6084C52.8649 23.4837 52.7678 23.3843 52.6416 23.3094C52.5148 23.2344 52.376 23.1973 52.2258 23.1973C51.9201 23.1963 51.6731 23.3491 51.4949 23.6465V23.2722H51.0564V26.6821H51.5351V24.8244C51.5348 24.4037 51.5992 24.1265 51.7132 23.9909C51.834 23.8451 51.9738 23.7748 52.14 23.7748C52.2438 23.7748 52.3304 23.8063 52.4053 23.8689C52.4804 23.9319 52.531 24.0138 52.561 24.1189V24.1182C52.5902 24.223 52.6064 24.3914 52.6064 24.6175V26.6821H53.085V24.5959C53.0848 24.334 53.0777 24.1511 53.0618 24.0407Z" fill="#CE1041"/>
<path d="M54.7356 24.8243L55.7959 23.4761H55.1566L54.2363 24.6844V22.0294H53.7529V26.6668H54.2363V24.9231L55.2322 26.6818H55.8549L54.7356 24.8243Z" fill="#CE1041"/>
</g>
<defs>
<clipPath id="clip0_1072_1119">
<rect width="48" height="11.8212" fill="white" transform="translate(8 18)"/>
</clipPath>
</defs>
</svg>