<svg width="38" height="24" viewBox="0 0 64 48" fill="none" xmlns="http://www.w3.org/2000/svg">
<g clip-path="url(#clip0_1072_784)">
<path d="M39.0651 28.6836C34.4708 28.6219 30.7268 26.1007 30.7108 23.1293C30.6948 20.2447 34.2217 18.023 38.5805 18.0893C39.1177 18.0961 39.6434 18.1396 40.1531 18.2127C39.4583 18.087 38.7337 18.0139 37.9885 18.0024C33.3577 17.9316 29.6 20.2607 29.6 23.2893C29.6 26.4093 33.5703 29.063 38.464 29.127C42.4411 29.1796 45.6663 27.4973 46.5737 25.1796C45.6 27.255 42.6605 28.7339 39.0674 28.6836H39.0651Z" fill="#C91C48"/>
<path d="M8.752 22.759C8.752 21.6276 8.752 21.4196 8.736 21.1819C8.72229 20.9282 8.66057 20.8093 8.416 20.7567C8.35657 20.743 8.23086 20.7339 8.12571 20.7339C8.04343 20.7339 8 20.7179 8 20.6676C8 20.615 8.05257 20.6013 8.16457 20.6013C8.56 20.6013 9.02857 20.6242 9.17714 20.6242C9.54286 20.6242 9.83086 20.6013 10.0846 20.6013C11.4309 20.6013 11.6686 21.3236 11.6686 21.7167C11.6686 22.327 11.3189 22.6905 10.9097 23.0196C11.52 23.2276 12.2629 23.7556 12.2629 24.6265C12.2629 25.4219 11.6457 26.2493 10.2766 26.2493C10.1874 26.2493 9.97257 26.2333 9.75543 26.2265C9.53143 26.2105 9.30971 26.2036 9.19771 26.2036C9.11543 26.2036 8.95314 26.2036 8.77257 26.2105C8.60114 26.2105 8.40686 26.2265 8.25829 26.2265C8.16229 26.2265 8.10971 26.2036 8.10971 26.151C8.10971 26.1145 8.13943 26.0916 8.22857 26.0916C8.34057 26.0916 8.42971 26.0779 8.496 26.0619C8.64457 26.0322 8.68114 25.8676 8.71086 25.6527C8.74743 25.3396 8.74743 24.7522 8.74743 24.0687V22.759H8.752ZM9.64571 22.8847C9.64571 22.9442 9.66857 22.9602 9.69829 22.967C9.76457 22.983 9.87657 22.9899 10.048 22.9899C10.2926 22.9899 10.4571 22.9602 10.5829 22.8482C10.7771 22.6927 10.8869 22.423 10.8869 22.0596C10.8869 21.5613 10.5966 20.9053 9.95657 20.9053C9.85143 20.9053 9.78514 20.9053 9.712 20.9213C9.65943 20.935 9.64571 20.967 9.64571 21.047V22.8847ZM10.6286 23.479C10.4731 23.367 10.3017 23.3145 10.0114 23.3007C9.87657 23.2939 9.80343 23.2939 9.69143 23.2939C9.66171 23.2939 9.64571 23.3099 9.64571 23.3465V25.111C9.64571 25.6025 9.66857 25.7282 9.90629 25.8242C10.1074 25.9065 10.2789 25.9133 10.4503 25.9133C10.784 25.9133 11.3509 25.735 11.3509 24.9602C11.3509 24.4985 11.1954 23.8745 10.6286 23.479Z" fill="#666565"/>
<path d="M13.7508 24.2836C13.7143 24.2836 13.6983 24.2996 13.6845 24.343L13.2823 25.4081C13.2068 25.5933 13.1703 25.7739 13.1703 25.863C13.1703 25.9979 13.2365 26.0939 13.4674 26.0939H13.5794C13.6685 26.0939 13.6914 26.1099 13.6914 26.1533C13.6914 26.2127 13.6457 26.2287 13.5657 26.2287C13.328 26.2287 13.008 26.2059 12.7771 26.2059C12.6948 26.2059 12.2857 26.2287 11.8994 26.2287C11.8034 26.2287 11.7577 26.2127 11.7577 26.1533C11.7577 26.1076 11.7874 26.0939 11.8468 26.0939C11.9131 26.0939 12.0183 26.087 12.0777 26.0801C12.4205 26.0344 12.5623 25.783 12.7108 25.4104L14.5783 20.7384C14.6674 20.5236 14.7131 20.4413 14.7863 20.4413C14.8525 20.4413 14.8983 20.5076 14.9714 20.679C15.1497 21.0881 16.3405 24.1236 16.816 25.255C17.0994 25.9247 17.3143 26.0299 17.4697 26.0664C17.5817 26.0893 17.6937 26.0961 17.7828 26.0961C17.8423 26.0961 17.8788 26.103 17.8788 26.1556C17.8788 26.215 17.8125 26.231 17.536 26.231C17.2685 26.231 16.7245 26.231 16.1303 26.215C15.9954 26.2081 15.9063 26.2081 15.9063 26.1556C15.9063 26.1099 15.936 26.0961 16.0114 26.0893C16.064 26.0756 16.1165 26.007 16.0777 25.9179L15.4834 24.3407C15.4674 24.3041 15.4468 24.2881 15.408 24.2881H13.7485L13.7508 24.2836ZM15.2685 23.911C15.3051 23.911 15.3143 23.8881 15.3051 23.8653L14.6354 22.0276C14.6285 21.9979 14.6194 21.9613 14.5988 21.9613C14.576 21.9613 14.5623 21.9979 14.5531 22.0276L13.8697 23.8584C13.8628 23.8881 13.8697 23.911 13.8994 23.911H15.2685Z" fill="#666565"/>
<path d="M18.6331 25.2138C18.6491 25.7944 18.7451 25.9887 18.8937 26.039C19.0194 26.0847 19.1611 26.0916 19.28 26.0916C19.3622 26.0916 19.4057 26.1076 19.4057 26.151C19.4057 26.2104 19.3394 26.2264 19.2342 26.2264C18.7497 26.2264 18.4525 26.2036 18.3108 26.2036C18.2445 26.2036 17.8948 26.2264 17.5062 26.2264C17.4102 26.2264 17.3417 26.2196 17.3417 26.151C17.3417 26.1053 17.3874 26.0916 17.4605 26.0916C17.5565 26.0916 17.6914 26.0847 17.7965 26.055C17.9908 25.9956 18.0205 25.7807 18.0274 25.1316L18.0937 20.727C18.0937 20.5784 18.1165 20.4733 18.1897 20.4733C18.272 20.4733 18.3382 20.5693 18.464 20.7041C18.5531 20.8001 19.6845 22.0138 20.7702 23.0927C21.2754 23.5978 22.2811 24.6698 22.4068 24.7887H22.4434L22.368 21.447C22.3611 20.9921 22.2925 20.8527 22.1142 20.7773C22.0022 20.7316 21.824 20.7316 21.7188 20.7316C21.6297 20.7316 21.6 20.7087 21.6 20.6653C21.6 20.6058 21.6822 20.599 21.7942 20.599C22.1805 20.599 22.5394 20.6218 22.6948 20.6218C22.7771 20.6218 23.0605 20.599 23.424 20.599C23.52 20.599 23.5954 20.6058 23.5954 20.6653C23.5954 20.711 23.5497 20.7316 23.4605 20.7316C23.3851 20.7316 23.3257 20.7316 23.2365 20.7544C23.0285 20.8138 22.9691 20.9693 22.9622 21.3876L22.88 26.0824C22.88 26.247 22.8502 26.3133 22.784 26.3133C22.7017 26.3133 22.6125 26.231 22.5302 26.1487C22.0617 25.703 21.1085 24.727 20.336 23.9613C19.5245 23.1567 18.6994 22.2287 18.5645 22.087H18.5417L18.624 25.2116L18.6331 25.2138Z" fill="#666565"/>
<path d="M25.4262 23.0859H25.4628C25.7165 22.8116 26.8022 21.703 27.0171 21.4493C27.2251 21.2047 27.3897 21.0173 27.3897 20.8916C27.3897 20.8093 27.3599 20.7567 27.2845 20.743C27.2182 20.727 27.1885 20.7133 27.1885 20.6676C27.1885 20.615 27.2251 20.6013 27.3074 20.6013C27.4628 20.6013 27.8719 20.6242 28.0731 20.6242C28.3039 20.6242 28.7131 20.6013 28.9439 20.6013C29.0194 20.6013 29.0697 20.6173 29.0697 20.6676C29.0697 20.7202 29.0331 20.7339 28.9577 20.7339C28.8525 20.7339 28.6674 20.7636 28.5257 20.8162C28.2948 20.9053 28.0411 21.0607 27.7211 21.3739C27.4902 21.5979 26.3679 22.7133 26.1142 22.9807C26.3817 23.3305 27.8399 24.9007 28.1302 25.175C28.4571 25.4882 28.7931 25.8219 29.1931 25.9796C29.4171 26.0687 29.5657 26.0916 29.6548 26.0916C29.7074 26.0916 29.7508 26.1076 29.7508 26.151C29.7508 26.2036 29.7142 26.2265 29.5725 26.2265H28.9257C28.7017 26.2265 28.5691 26.2265 28.4114 26.2105C28.0091 26.1739 27.8079 26.0093 27.4879 25.7259C27.1611 25.4356 25.6937 23.7167 25.5382 23.5019L25.4559 23.3899H25.4194V24.0665C25.4194 24.7499 25.4194 25.3396 25.4422 25.6596C25.4582 25.8676 25.5245 26.0322 25.7097 26.0619C25.8148 26.0779 25.9771 26.0916 26.0731 26.0916C26.1325 26.0916 26.1691 26.1145 26.1691 26.151C26.1691 26.2036 26.1097 26.2265 26.0274 26.2265C25.6114 26.2265 25.1428 26.2036 24.9554 26.2036C24.7839 26.2036 24.3154 26.2265 24.0182 26.2265C23.9222 26.2265 23.8697 26.2036 23.8697 26.151C23.8697 26.1145 23.8994 26.0916 23.9885 26.0916C24.1005 26.0916 24.1897 26.0779 24.2559 26.0619C24.4045 26.0322 24.4411 25.8676 24.4708 25.6527C24.5074 25.3396 24.5074 24.7522 24.5074 24.0687V22.759C24.5074 21.6276 24.5074 21.4196 24.4914 21.1819C24.4754 20.9282 24.4159 20.8093 24.1714 20.7567C24.1119 20.743 23.9862 20.7339 23.8811 20.7339C23.7988 20.7339 23.7554 20.7179 23.7554 20.6676C23.7554 20.615 23.8079 20.6013 23.9199 20.6013C24.3154 20.6013 24.7839 20.6242 24.9622 20.6242C25.1405 20.6242 25.6091 20.6013 25.8628 20.6013C25.9679 20.6013 26.0182 20.6173 26.0182 20.6676C26.0182 20.7202 25.9725 20.7339 25.9131 20.7339C25.8377 20.7339 25.7942 20.7407 25.7051 20.7567C25.5039 20.7933 25.4445 20.9213 25.4308 21.1819C25.4148 21.4196 25.4148 21.6276 25.4148 22.759V23.0859H25.4262Z" fill="#666565"/>
<path d="M34.2514 22.759C34.2514 21.6276 34.2514 21.4196 34.2377 21.1819C34.2217 20.9282 34.1485 20.8025 33.9839 20.7659C33.9017 20.743 33.8057 20.7362 33.7165 20.7362C33.6411 20.7362 33.5977 20.7202 33.5977 20.6607C33.5977 20.615 33.6571 20.6013 33.7759 20.6013C34.0594 20.6013 34.5279 20.6242 34.7428 20.6242C34.9279 20.6242 35.3668 20.6013 35.6502 20.6013C35.7462 20.6013 35.8057 20.615 35.8057 20.6607C35.8057 20.7202 35.7599 20.7362 35.6868 20.7362C35.6114 20.7362 35.5519 20.743 35.4628 20.759C35.2617 20.7956 35.2022 20.9236 35.1885 21.1842C35.1725 21.4219 35.1725 21.6299 35.1725 22.7613V24.071C35.1725 24.7933 35.1725 25.3807 35.2022 25.7007C35.2251 25.9019 35.2777 26.0367 35.4994 26.0665C35.6045 26.0825 35.7668 26.0962 35.8788 26.0962C35.9611 26.0962 35.9977 26.119 35.9977 26.1556C35.9977 26.2082 35.9382 26.231 35.8559 26.231C35.3645 26.231 34.8959 26.2082 34.6948 26.2082C34.5234 26.2082 34.0548 26.231 33.7577 26.231C33.6617 26.231 33.6091 26.2082 33.6091 26.1556C33.6091 26.119 33.6388 26.0962 33.7279 26.0962C33.8399 26.0962 33.9291 26.0825 33.9954 26.0665C34.1439 26.0367 34.1897 25.911 34.2102 25.6939C34.2468 25.3807 34.2468 24.7933 34.2468 24.071V22.7613L34.2514 22.759Z" fill="#666565"/>
<path d="M36.1623 26.1373C36.0435 26.0847 36.0206 26.0481 36.0206 25.8836C36.0206 25.4744 36.0503 25.0287 36.0572 24.9098C36.0641 24.7978 36.0869 24.7156 36.1463 24.7156C36.2126 24.7156 36.2218 24.7818 36.2218 24.8413C36.2218 24.9373 36.2515 25.095 36.2881 25.2207C36.4526 25.7716 36.8915 25.9727 37.3532 25.9727C38.0229 25.9727 38.3498 25.5178 38.3498 25.1247C38.3498 24.7613 38.2378 24.4184 37.6206 23.9338L37.2778 23.6664C36.4595 23.0264 36.1761 22.5053 36.1761 21.9041C36.1761 21.0858 36.8595 20.4984 37.8949 20.4984C38.3795 20.4984 38.6903 20.5738 38.8846 20.6241C38.9509 20.6401 38.9898 20.6607 38.9898 20.7133C38.9898 20.8093 38.9601 21.0264 38.9601 21.607C38.9601 21.7716 38.9372 21.831 38.8778 21.831C38.8252 21.831 38.8023 21.7853 38.8023 21.6961C38.8023 21.6298 38.7658 21.399 38.6081 21.2047C38.4961 21.063 38.2812 20.8413 37.7966 20.8413C37.2458 20.8413 36.9121 21.1613 36.9121 21.607C36.9121 21.9498 37.0835 22.2104 37.7006 22.679L37.9086 22.8344C38.8092 23.511 39.1292 24.0253 39.1292 24.7316C39.1292 25.1636 38.9646 25.6756 38.4298 26.0253C38.0572 26.263 37.6412 26.3316 37.2458 26.3316C36.8138 26.3316 36.4801 26.279 36.1601 26.1373H36.1623Z" fill="#666565"/>
<path d="M40.7908 24.0687C40.7908 25.0219 40.7908 25.5339 40.9463 25.6687C41.072 25.7807 41.2663 25.8333 41.8468 25.8333C42.2423 25.8333 42.5303 25.8265 42.7177 25.6253C42.8068 25.5293 42.896 25.319 42.912 25.1796C42.9188 25.1133 42.9348 25.0676 42.9943 25.0676C43.0468 25.0676 43.0537 25.1042 43.0537 25.1933C43.0537 25.2756 43.0011 25.8333 42.9417 26.0482C42.896 26.2127 42.8594 26.2493 42.4731 26.2493C41.9383 26.2493 41.5497 26.2333 41.216 26.2265C40.88 26.2105 40.6125 26.2036 40.3085 26.2036C40.2263 26.2036 40.064 26.2036 39.8834 26.2105C39.712 26.2105 39.5177 26.2265 39.3691 26.2265C39.2731 26.2265 39.2205 26.2036 39.2205 26.151C39.2205 26.1145 39.2503 26.0916 39.3394 26.0916C39.4514 26.0916 39.5405 26.0779 39.6068 26.0619C39.7554 26.0322 39.792 25.8676 39.8217 25.6527C39.8583 25.3396 39.8583 24.7522 39.8583 24.0687V22.759C39.8583 21.6276 39.8583 21.4196 39.8423 21.1819C39.8285 20.9282 39.7668 20.8093 39.5223 20.7567C39.4628 20.7407 39.3737 20.7339 39.2777 20.7339C39.1954 20.7339 39.152 20.7179 39.152 20.6676C39.152 20.615 39.2045 20.6013 39.3165 20.6013C39.6663 20.6013 40.1348 20.6242 40.336 20.6242C40.5143 20.6242 41.0583 20.6013 41.3485 20.6013C41.4537 20.6013 41.504 20.6173 41.504 20.6676C41.504 20.7202 41.4583 20.7339 41.3691 20.7339C41.2868 20.7339 41.168 20.7407 41.0788 20.7567C40.8777 20.7933 40.8183 20.9213 40.8045 21.1819C40.7885 21.4196 40.7885 21.6276 40.7885 22.759V24.0687H40.7908Z" fill="#666565"/>
<path d="M44.8092 24.2836C44.7726 24.2836 44.7566 24.2996 44.7429 24.343L44.3406 25.4081C44.2652 25.5933 44.2286 25.7739 44.2286 25.863C44.2286 25.9979 44.2949 26.0939 44.5258 26.0939H44.6378C44.7269 26.0939 44.7498 26.1099 44.7498 26.1533C44.7498 26.2127 44.704 26.2287 44.624 26.2287C44.3863 26.2287 44.0663 26.2059 43.8355 26.2059C43.7532 26.2059 43.344 26.2287 42.9578 26.2287C42.8618 26.2287 42.816 26.2127 42.816 26.1533C42.816 26.1076 42.8458 26.0939 42.9052 26.0939C42.9715 26.0939 43.0766 26.087 43.136 26.0801C43.4789 26.0344 43.6206 25.783 43.7692 25.4104L45.6366 20.7384C45.7258 20.5236 45.7715 20.4413 45.8446 20.4413C45.9109 20.4413 45.9566 20.5076 46.0298 20.679C46.208 21.0881 47.3989 24.1236 47.8743 25.255C48.1578 25.9247 48.3726 26.0299 48.528 26.0664C48.64 26.0893 48.752 26.0961 48.8412 26.0961C48.9006 26.0961 48.9372 26.103 48.9372 26.1556C48.9372 26.215 48.8709 26.231 48.5943 26.231C48.3269 26.231 47.7829 26.231 47.1886 26.215C47.0538 26.2081 46.9646 26.2081 46.9646 26.1556C46.9646 26.1099 46.9943 26.0961 47.0698 26.0893C47.1223 26.0756 47.1749 26.007 47.136 25.9179L46.5418 24.3407C46.5258 24.3041 46.5052 24.2881 46.4663 24.2881H44.8069L44.8092 24.2836ZM46.3269 23.911C46.3635 23.911 46.3726 23.8881 46.3635 23.8653L45.6938 22.0276C45.6869 21.9979 45.6778 21.9613 45.6572 21.9613C45.6343 21.9613 45.6206 21.9979 45.6115 22.0276L44.928 23.8584C44.9212 23.8881 44.928 23.911 44.9578 23.911H46.3269Z" fill="#666565"/>
<path d="M49.6983 20.6311C49.7212 20.5053 49.7646 20.4368 49.824 20.4368C49.8835 20.4368 49.9292 20.4733 50.0252 20.6676L52.0572 24.8642L54.08 20.6151C54.1395 20.4962 54.176 20.4368 54.2446 20.4368C54.3109 20.4368 54.3566 20.5122 54.3795 20.6676L55.056 25.2665C55.1223 25.7351 55.1977 25.9499 55.4217 26.0185C55.6366 26.0848 55.7875 26.0939 55.8835 26.0939C55.9497 26.0939 56.0023 26.1008 56.0023 26.1465C56.0023 26.2059 55.9132 26.2288 55.808 26.2288C55.6229 26.2288 54.5943 26.2059 54.2972 26.1831C54.1257 26.1671 54.0823 26.1465 54.0823 26.1008C54.0823 26.0642 54.112 26.0413 54.1646 26.0185C54.2103 26.0025 54.2309 25.9065 54.2012 25.6985L53.7555 22.4253H53.7257L52.1029 25.8036C51.9315 26.1533 51.8949 26.2196 51.8286 26.2196C51.7623 26.2196 51.6869 26.0711 51.568 25.8471C51.3897 25.5042 50.8023 24.3659 50.7132 24.1579C50.6469 24.0025 50.1989 23.0631 49.9383 22.5053H49.9086L49.5223 25.4676C49.5063 25.6025 49.4995 25.6985 49.4995 25.8173C49.4995 25.9591 49.5955 26.0253 49.7235 26.0551C49.8583 26.0848 49.9612 26.0916 50.0366 26.0916C50.096 26.0916 50.1486 26.1076 50.1486 26.1442C50.1486 26.2105 50.0823 26.2265 49.9703 26.2265C49.6572 26.2265 49.3235 26.2036 49.1886 26.2036C49.0469 26.2036 48.6903 26.2265 48.4526 26.2265C48.3772 26.2265 48.3177 26.2105 48.3177 26.1442C48.3177 26.1076 48.3635 26.0916 48.4366 26.0916C48.496 26.0916 48.5486 26.0916 48.6606 26.0688C48.8686 26.0231 48.928 25.7351 48.9646 25.4813L49.7006 20.6311H49.6983Z" fill="#666565"/>
</g>
<defs>
<clipPath id="clip0_1072_784">
<rect width="48" height="11.1271" fill="white" transform="translate(8 18)"/>
</clipPath>
</defs>
</svg>