<svg width="38" height="24" viewBox="0 0 64 48" fill="none" xmlns="http://www.w3.org/2000/svg">
<g clip-path="url(#clip0_1072_1229)">
<mask id="mask0_1072_1229" style="mask-type:luminance" maskUnits="userSpaceOnUse" x="8" y="18" width="48" height="14">
<path d="M56 18H8V31.0651H56V18Z" fill="white"/>
</mask>
<g mask="url(#mask0_1072_1229)">
<path d="M44.2825 18H54.659C55.0146 18 55.3557 18.1414 55.6072 18.393C55.8587 18.6447 56 18.986 56 19.3419V29.7232C56.0001 29.8996 55.9655 30.0743 55.8981 30.2373C55.8307 30.4003 55.7319 30.5484 55.6073 30.6731C55.4827 30.7979 55.3347 30.8969 55.1719 30.9644C55.009 31.0319 54.8345 31.0667 54.6582 31.0667H44.2825C44.1063 31.0667 43.9318 31.0319 43.769 30.9645C43.6062 30.897 43.4583 30.7981 43.3337 30.6734C43.2091 30.5487 43.1102 30.4007 43.0428 30.2378C42.9754 30.0749 42.9407 29.9003 42.9407 29.724V19.3427C42.9407 19.1663 42.9754 18.9917 43.0428 18.8288C43.1102 18.6659 43.2091 18.5179 43.3337 18.3933C43.4583 18.2686 43.6062 18.1697 43.769 18.1022C43.9318 18.0347 44.1063 18 44.2825 18Z" fill="#00934C"/>
<path fill-rule="evenodd" clip-rule="evenodd" d="M51.478 22.8566C51.478 22.8566 51.3771 22.8707 51.3771 22.956C51.3771 23.0413 51.4733 23.0671 51.4733 23.0671C51.4572 23.0527 51.4447 23.0347 51.4368 23.0146C51.4289 22.9945 51.4259 22.9728 51.428 22.9513C51.4293 22.9329 51.4345 22.915 51.4431 22.8987C51.4517 22.8824 51.4636 22.8681 51.478 22.8566ZM51.3169 23.5287V23.3018C51.3197 23.2679 51.3352 23.2363 51.3603 23.2134C51.3854 23.1905 51.4182 23.1779 51.4522 23.1782C51.4674 23.1765 51.4829 23.1782 51.4974 23.1832C51.5118 23.1883 51.525 23.1965 51.5359 23.2073C51.5468 23.2181 51.5551 23.2313 51.5602 23.2457C51.5654 23.2602 51.5672 23.2756 51.5656 23.2909V23.5256L51.3169 23.5287ZM51.2035 24.6703H51.6555V24.9301H51.2035V24.6703ZM51.2035 23.596H51.6555V23.8566H51.2035V23.596ZM51.2942 23.9552H51.5648V24.6022H51.2935L51.2942 23.9552ZM51.2942 25.0318H51.5648V26.5129H51.2935L51.2942 25.0318ZM48.0687 26.3807H48.5668V26.1045H49.068V26.2008H48.7216V26.3854H49.0532V26.4965H48.0687V26.3807ZM50.7664 25.9551C50.7664 25.9551 50.6656 25.9684 50.6656 26.0544C50.6656 26.1405 50.7609 26.1648 50.7609 26.1648C50.7449 26.1503 50.7324 26.1324 50.7246 26.1122C50.7167 26.0921 50.7136 26.0705 50.7156 26.049C50.7171 26.0306 50.7224 26.0128 50.7311 25.9967C50.7399 25.9805 50.7519 25.9663 50.7664 25.9551ZM50.1831 26.5169C50.1831 26.5169 50.3794 26.261 50.6757 26.261C50.9721 26.261 51.1973 26.5067 51.1973 26.5067L50.1831 26.5169ZM50.2871 23.8965C50.3989 23.8965 50.5365 23.8081 50.5428 23.6031C50.5475 23.4395 50.3364 23.2604 50.3082 23.1665C50.2915 23.1197 50.2789 23.0715 50.2707 23.0225C50.2336 23.0787 50.2043 23.1398 50.1839 23.204C50.1589 23.2909 49.9493 23.4528 49.9899 23.6469C49.9999 23.7179 50.0358 23.7826 50.0907 23.8287C50.1455 23.8748 50.2155 23.8989 50.2871 23.8965ZM50.1307 23.9646H50.4302L50.5616 25.3925H49.9939L50.1307 23.9646ZM48.6505 24.97H49.0063V25.3143H48.6505V24.97ZM48.0851 24.97H48.4409V25.3143H48.0851V24.97ZM48.0851 23.8394H48.4409V24.1844H48.0851V23.8394ZM48.975 24.1985C48.9845 24.1794 48.9997 24.1636 49.0184 24.1533C49.0371 24.1429 49.0585 24.1385 49.0798 24.1406C49.1626 24.1406 49.1705 24.1766 49.2221 24.1727C49.2555 24.1689 49.2878 24.158 49.3167 24.1406C49.3043 24.1604 49.2881 24.1774 49.269 24.1909C49.25 24.2043 49.2284 24.2138 49.2057 24.2188C49.1431 24.2228 49.0954 24.1813 49.0493 24.1852C49.0242 24.1874 48.9993 24.1919 48.975 24.1985ZM48.9155 24.125C48.9218 24.0975 48.937 24.0728 48.9589 24.055C48.9807 24.0371 49.0078 24.0271 49.036 24.0264C49.1353 24.0264 49.1509 24.0663 49.2338 24.0498C49.2806 24.0415 49.3265 24.0284 49.3706 24.0107C49.3336 24.063 49.2774 24.0985 49.2143 24.1093C49.1196 24.121 49.0899 24.0616 49.0125 24.078C48.976 24.0827 48.9419 24.0992 48.9155 24.125ZM48.9155 23.6805C48.9167 23.6046 48.9288 23.5292 48.9515 23.4568C48.9755 23.3792 49.0182 23.3088 49.0758 23.2518C49.0737 23.2926 49.0763 23.3336 49.0837 23.3738C49.0984 23.4146 49.1198 23.4527 49.147 23.4865C49.1625 23.4343 49.1851 23.3846 49.2143 23.3386C49.2387 23.3042 49.2665 23.2722 49.2971 23.2432C49.279 23.3298 49.2722 23.4184 49.2768 23.5068C49.2932 23.5851 49.3245 23.6844 49.3245 23.6844L48.9155 23.6805ZM48.681 23.8855H49.3613C49.3561 23.9084 49.3442 23.9292 49.327 23.9451C49.3098 23.961 49.2883 23.9713 49.2651 23.9747C49.1869 23.9826 49.1173 23.9035 48.9969 23.9513C48.9635 23.9616 48.9324 23.9785 48.9056 24.0009C48.8787 24.0233 48.8566 24.0509 48.8405 24.0819C48.8013 24.0488 48.7644 24.013 48.7302 23.9747C48.7089 23.9473 48.691 23.9174 48.6771 23.8855H48.681ZM47.7098 22.83H47.8005V23.0029H48.2024V22.8277H48.2978V23.1923H48.2024V23.0882H47.7942V23.1923H47.7098V22.83ZM47.5268 23.1892V22.5374C47.5268 22.5374 47.5503 22.4685 47.6105 22.4685H48.3041V22.5757H47.6245V22.7025H48.3041V22.8058H47.6245V23.1923L47.5268 23.1892ZM47.2641 22.3089H47.3861L47.3806 22.4114C47.3806 22.4114 47.4345 22.3042 47.4736 22.3042H48.3048V22.3919H47.4987C47.4377 22.5274 47.4024 22.673 47.3947 22.8214C47.3845 23.1469 47.4775 23.2502 47.4775 23.2502H48.3134L48.308 23.3543H47.465C47.465 23.3543 47.4236 23.3433 47.3923 23.2604V23.3386H47.2641V22.3089ZM49.5466 22.341V24.3753H47.2641V23.607H48.7334V22.341H49.5466ZM50.7195 22.341V25.549H47.2641V24.7353H49.886V22.341H50.7195ZM51.0135 22.341H51.8737V26.6827H47.2641V25.9136H51.0174L51.0135 22.341ZM49.0391 28.7718L48.3533 28.1028H52.6541C52.6541 28.1028 53.0161 28.0653 53.0716 27.7969C53.1271 27.5285 53.0716 27.4166 53.0716 27.4166L53.7574 26.7868V28.0653C53.7574 28.0653 53.5517 28.7695 52.823 28.7695L49.0391 28.7718ZM52.2185 27.764L51.2606 27.7758L54.3024 24.7321C54.3024 24.7321 54.5315 24.4497 54.3806 24.2204C54.2297 23.9912 54.1124 23.9513 54.1124 23.9513L54.1515 23.0209L55.0554 23.9247C55.0554 23.9247 55.4089 24.5709 54.8936 25.0866L52.2185 27.764ZM52.701 21.7933L52.7127 22.7518L49.6709 19.7089C49.6709 19.7089 49.3886 19.4796 49.1595 19.6307C48.9304 19.7817 48.8905 19.8998 48.8905 19.8998L47.9608 19.8599L48.8639 18.9562C48.8639 18.9562 49.509 18.6017 50.0251 19.1174L52.701 21.7933ZM53.7699 24.9332L53.1013 25.6194V21.316C53.1013 21.316 53.0638 20.9538 52.7956 20.8982C52.5274 20.8426 52.4156 20.8982 52.4156 20.8982L51.79 20.212H53.0677C53.0677 20.212 53.7715 20.4178 53.7715 21.1509L53.7699 24.9332ZM46.2053 27.2703L46.1936 26.3119L49.2354 29.3555C49.2354 29.3555 49.5169 29.5848 49.7468 29.4338C49.9767 29.2828 50.015 29.1654 50.015 29.1654L50.9455 29.2053L50.0416 30.109C50.0416 30.109 49.3964 30.4627 48.8811 29.947L46.2053 27.2703ZM45.1356 24.0405L45.805 23.3543V27.6576C45.805 27.6576 45.8425 28.0191 46.1107 28.0755C46.3789 28.1318 46.4907 28.0755 46.4907 28.0755L47.1163 28.7617H45.8425C45.8425 28.7617 45.1387 28.5559 45.1387 27.8227L45.1356 24.0405ZM46.7253 21.1337L47.6832 21.1212L44.6422 24.1649C44.6422 24.1649 44.4131 24.4473 44.564 24.6766C44.7149 24.9058 44.833 24.9457 44.833 24.9457L44.7931 25.876L43.89 24.9723C43.89 24.9723 43.5357 24.3268 44.051 23.8112L46.7253 21.1337ZM49.8633 20.1987L50.549 20.8685H46.2475C46.2475 20.8685 45.8855 20.906 45.8292 21.1744C45.7729 21.4428 45.8292 21.5547 45.8292 21.5547L45.1442 22.1806V20.9084C45.1442 20.9084 45.3499 20.2042 46.0825 20.2042L49.8633 20.1987Z" fill="white"/>
<path fill-rule="evenodd" clip-rule="evenodd" d="M35.7115 27.8007C35.6961 27.916 35.6575 28.027 35.5981 28.127C35.5376 28.2243 35.4513 28.3029 35.3487 28.3539C35.2117 28.4161 35.0619 28.445 34.9116 28.4384C34.7581 28.4447 34.6051 28.418 34.4628 28.3602C34.3602 28.315 34.2737 28.2397 34.2149 28.1442C34.1579 28.0443 34.1219 27.9338 34.1093 27.8195C34.0932 27.6874 34.0853 27.5544 34.0859 27.4213C34.0856 27.2958 34.0945 27.1706 34.1124 27.0465C34.1283 26.9308 34.1668 26.8194 34.2258 26.7186C34.286 26.6188 34.3726 26.5375 34.476 26.4839C34.6117 26.4189 34.7613 26.3885 34.9116 26.3955C35.0654 26.3873 35.2191 26.4141 35.3612 26.4737C35.4641 26.5211 35.5504 26.5983 35.6091 26.6952C35.6661 26.7956 35.702 26.9066 35.7147 27.0214C35.7308 27.1536 35.7387 27.2866 35.7381 27.4197C35.7387 27.5472 35.7298 27.6746 35.7115 27.8007ZM34.7403 27.7225C34.7424 27.7853 34.7521 27.8475 34.7693 27.9079C34.7776 27.9438 34.7967 27.9763 34.824 28.001C34.8499 28.0183 34.8805 28.0271 34.9116 28.0261C34.9434 28.0271 34.9748 28.0183 35.0015 28.001C35.0297 27.9769 35.0491 27.9442 35.057 27.9079C35.0725 27.8472 35.0814 27.7851 35.0836 27.7225C35.0883 27.6442 35.0907 27.5449 35.0907 27.4228C35.0907 27.3008 35.0907 27.1998 35.0836 27.1208C35.0815 27.058 35.0726 26.9955 35.057 26.9346C35.0491 26.8981 35.0297 26.8652 35.0015 26.8407C34.9748 26.8234 34.9434 26.8146 34.9116 26.8156C34.8805 26.8146 34.8499 26.8234 34.824 26.8407C34.7967 26.8657 34.7776 26.8985 34.7693 26.9346C34.752 26.9952 34.7423 27.0578 34.7403 27.1208C34.7357 27.199 34.7333 27.3008 34.7333 27.4228C34.7333 27.5449 34.7357 27.6482 34.7403 27.7256V27.7225ZM29.9994 27.7867C29.9903 27.8611 30.0096 27.9362 30.0533 27.9971C30.0691 28.0133 30.088 28.0262 30.1088 28.0351C30.1296 28.0439 30.1519 28.0486 30.1745 28.0488C30.2011 28.0494 30.2274 28.0433 30.2509 28.031C30.2744 28.0187 30.2944 28.0005 30.309 27.9783C30.349 27.8949 30.3657 27.8022 30.3575 27.71H30.9424C30.9377 27.9502 30.876 28.1309 30.7587 28.253C30.6414 28.375 30.4459 28.4353 30.1792 28.4353C30.047 28.4386 29.915 28.4209 29.7883 28.3829C29.6878 28.3518 29.5988 28.2916 29.5326 28.2099C29.4628 28.1178 29.4154 28.0106 29.3942 27.897C29.3645 27.7423 29.3506 27.585 29.3527 27.4275C29.3498 27.2677 29.3656 27.108 29.3996 26.9518C29.4243 26.8361 29.4748 26.7275 29.5474 26.6341C29.6149 26.5522 29.7036 26.4905 29.8039 26.4557C29.9253 26.4162 30.0524 26.3975 30.18 26.4002C30.2949 26.3981 30.4094 26.414 30.5194 26.4471C30.6134 26.4765 30.6979 26.5306 30.7641 26.6036C30.835 26.687 30.8854 26.7859 30.9111 26.8923C30.9471 27.0382 30.9637 27.1881 30.9604 27.3383V27.5363H29.9994V27.7867ZM30.3122 26.8649C30.2982 26.8406 30.2775 26.8208 30.2525 26.808C30.2275 26.7952 30.1993 26.79 30.1714 26.793C30.1441 26.7903 30.1165 26.7957 30.0922 26.8085C30.0679 26.8213 30.0479 26.8409 30.0346 26.8649C30.0052 26.9371 29.9924 27.0149 29.997 27.0926V27.1795H30.3497V27.0926C30.3542 27.0161 30.3422 26.9395 30.3145 26.8681L30.3122 26.8649ZM24.9206 28.2905L24.9065 28.1755C24.8687 28.2571 24.8067 28.3251 24.729 28.3703C24.6469 28.4144 24.5548 28.4368 24.4616 28.4353C24.3769 28.4373 24.2925 28.4246 24.2122 28.3977C24.1491 28.3752 24.0927 28.3373 24.048 28.2874C24.0039 28.2351 23.9722 28.1736 23.9549 28.1074C23.9349 28.0322 23.9251 27.9545 23.926 27.8766C23.925 27.7975 23.9342 27.7187 23.9533 27.6419C23.9695 27.5781 23.9994 27.5185 24.0409 27.4674C24.0864 27.4142 24.1426 27.3713 24.2059 27.3414C24.2882 27.3021 24.3748 27.2724 24.464 27.253L24.7189 27.192C24.7739 27.1822 24.825 27.1566 24.8659 27.1185C24.8966 27.0788 24.9119 27.0293 24.9089 26.9792C24.9089 26.8595 24.8542 26.7992 24.7447 26.7992C24.7196 26.7969 24.6943 26.8004 24.6707 26.8093C24.6471 26.8182 24.6259 26.8325 24.6086 26.8509C24.5728 26.9126 24.5567 26.9839 24.5625 27.0551H24.0003C23.9959 26.937 24.0228 26.8198 24.0785 26.7155C24.1246 26.6359 24.1889 26.5683 24.2661 26.5183C24.3396 26.472 24.4214 26.4404 24.507 26.4252C24.5867 26.4102 24.6675 26.4024 24.7486 26.4017C24.8535 26.4008 24.9582 26.4097 25.0614 26.4283C25.149 26.4439 25.2326 26.4771 25.3069 26.5261C25.3755 26.5743 25.4296 26.6403 25.4633 26.7171C25.5045 26.8161 25.5237 26.9229 25.5196 27.03V27.9744C25.5196 28.066 25.5196 28.1466 25.5298 28.2162C25.5349 28.2789 25.5522 28.34 25.5806 28.3962H24.9511C24.9383 28.363 24.9289 28.3287 24.923 28.2937L24.9206 28.2905ZM24.8596 27.9298C24.8957 27.8549 24.9119 27.7719 24.9065 27.6888V27.4541C24.8814 27.481 24.8477 27.4982 24.8111 27.5026C24.7659 27.5105 24.722 27.5244 24.6806 27.5441C24.6361 27.5629 24.5995 27.5966 24.5773 27.6396C24.5559 27.6888 24.546 27.7424 24.5484 27.796C24.545 27.8515 24.5602 27.9066 24.5914 27.9525C24.6043 27.9707 24.6214 27.9854 24.6413 27.9954C24.6613 28.0054 24.6833 28.0103 24.7056 28.0096C24.7362 28.0129 24.7672 28.0074 24.7948 27.9939C24.8225 27.9803 24.8458 27.9592 24.862 27.933L24.8596 27.9298ZM21.8616 26.4432V28.3922H21.2142V26.4495L21.8616 26.4432ZM21.8616 25.8173V26.3008H21.2142V25.8173H21.8616ZM17.1316 26.4432V28.3922H16.4865V26.4495L17.1316 26.4432ZM17.1316 25.8173V26.3008H16.4865V25.8173H17.1316ZM30.51 20.6532C30.5134 20.5909 30.5349 20.531 30.5719 20.4808C30.609 20.4306 30.6599 20.3924 30.7184 20.3708C30.7769 20.3493 30.8404 20.3454 30.9012 20.3595C30.9619 20.3737 31.0171 20.4054 31.06 20.4507C31.1029 20.4959 31.1316 20.5528 31.1426 20.6142C31.1536 20.6756 31.1464 20.7389 31.1218 20.7962C31.0972 20.8536 31.0564 20.9024 31.0044 20.9368C30.9523 20.9712 30.8914 20.9896 30.829 20.9896C30.7434 20.9866 30.6624 20.9502 30.6033 20.8882C30.5441 20.8262 30.5115 20.7436 30.5123 20.6579L30.51 20.6532ZM31.2489 20.6532C31.2522 20.5907 31.2736 20.5305 31.3107 20.48C31.3478 20.4296 31.3988 20.3911 31.4575 20.3694C31.5162 20.3477 31.58 20.3438 31.6409 20.358C31.7018 20.3722 31.7573 20.4039 31.8003 20.4494C31.8434 20.4948 31.8722 20.5518 31.8832 20.6135C31.8942 20.6751 31.8868 20.7386 31.8621 20.7961C31.8374 20.8536 31.7963 20.9026 31.744 20.937C31.6918 20.9714 31.6305 20.9897 31.568 20.9896C31.4823 20.9868 31.4012 20.9504 31.342 20.8884C31.2828 20.8264 31.2502 20.7436 31.2513 20.6579L31.2489 20.6532ZM36.0806 20.6532C36.084 20.5909 36.1055 20.5309 36.1426 20.4807C36.1797 20.4305 36.2306 20.3923 36.2892 20.3707C36.3477 20.3492 36.4113 20.3454 36.4721 20.3596C36.5328 20.3739 36.588 20.4056 36.6309 20.451C36.6738 20.4963 36.7024 20.5532 36.7133 20.6147C36.7242 20.6761 36.7169 20.7394 36.6922 20.7968C36.6675 20.8541 36.6265 20.9029 36.5744 20.9372C36.5223 20.9715 36.4612 20.9897 36.3989 20.9896C36.3132 20.9868 36.2321 20.9504 36.1729 20.8884C36.1137 20.8264 36.0811 20.7436 36.0822 20.6579L36.0806 20.6532ZM36.8196 20.6532C36.8229 20.5909 36.8444 20.531 36.8815 20.4808C36.9185 20.4306 36.9694 20.3924 37.0279 20.3708C37.0865 20.3493 37.15 20.3454 37.2107 20.3595C37.2714 20.3737 37.3266 20.4054 37.3696 20.4507C37.4125 20.4959 37.4412 20.5528 37.4522 20.6142C37.4632 20.6756 37.4559 20.7389 37.4313 20.7962C37.4068 20.8536 37.3659 20.9024 37.3139 20.9368C37.2619 20.9712 37.2009 20.9896 37.1386 20.9896C37.0529 20.9868 36.9718 20.9504 36.9126 20.8884C36.8534 20.8264 36.8208 20.7436 36.8219 20.6579L36.8196 20.6532ZM40.268 24.0623C40.2713 23.9999 40.2929 23.9399 40.33 23.8897C40.3671 23.8395 40.4181 23.8012 40.4767 23.7798C40.5353 23.7583 40.5989 23.7544 40.6597 23.7688C40.7204 23.7831 40.7756 23.8149 40.8185 23.8603C40.8613 23.9057 40.8899 23.9627 40.9007 24.0242C40.9115 24.0857 40.9041 24.1491 40.8793 24.2064C40.8545 24.2637 40.8134 24.3124 40.7612 24.3466C40.7089 24.3808 40.6478 24.3989 40.5854 24.3987C40.5425 24.3975 40.5002 24.3878 40.461 24.3703C40.4218 24.3527 40.3865 24.3276 40.357 24.2963C40.3275 24.2651 40.3045 24.2283 40.2892 24.1882C40.2739 24.148 40.2667 24.1052 40.268 24.0623ZM38.1864 24.0623C38.1898 24 38.2113 23.94 38.2483 23.8898C38.2854 23.8397 38.3363 23.8014 38.3948 23.7799C38.4533 23.7583 38.5168 23.7544 38.5776 23.7686C38.6383 23.7828 38.6935 23.8145 38.7364 23.8597C38.7793 23.905 38.808 23.9618 38.819 24.0233C38.83 24.0847 38.8228 24.148 38.7982 24.2053C38.7736 24.2626 38.7328 24.3115 38.6808 24.3459C38.6287 24.3803 38.5678 24.3986 38.5054 24.3987C38.4624 24.3977 38.4199 24.3882 38.3806 24.3707C38.3412 24.3532 38.3057 24.3281 38.276 24.2969C38.2464 24.2656 38.2232 24.2288 38.2078 24.1885C38.1924 24.1483 38.1852 24.1053 38.1864 24.0623ZM38.9644 24.0623C38.9677 23.9997 38.9891 23.9395 39.0262 23.8891C39.0633 23.8387 39.1143 23.8002 39.173 23.7785C39.2317 23.7568 39.2955 23.7528 39.3564 23.767C39.4173 23.7812 39.4728 23.813 39.5158 23.8584C39.5589 23.9038 39.5877 23.9609 39.5987 24.0225C39.6097 24.0842 39.6023 24.1477 39.5776 24.2052C39.5529 24.2627 39.5118 24.3117 39.4595 24.3461C39.4073 24.3805 39.346 24.3988 39.2835 24.3987C39.2404 24.3977 39.198 24.3882 39.1586 24.3707C39.1192 24.3532 39.0837 24.3281 39.0541 24.2969C39.0244 24.2656 39.0012 24.2288 38.9858 24.1885C38.9705 24.1483 38.9632 24.1053 38.9644 24.0623ZM24.3248 24.0623C24.328 23.9997 24.3495 23.9395 24.3866 23.889C24.4237 23.8386 24.4748 23.8001 24.5335 23.7784C24.5923 23.7568 24.6561 23.7528 24.717 23.7671C24.778 23.7814 24.8334 23.8132 24.8764 23.8587C24.9195 23.9042 24.9482 23.9613 24.9591 24.023C24.97 24.0847 24.9626 24.1482 24.9377 24.2057C24.9129 24.2632 24.8717 24.3122 24.8193 24.3465C24.7669 24.3808 24.7056 24.3989 24.643 24.3987C24.6 24.3976 24.5577 24.388 24.5184 24.3705C24.4791 24.353 24.4437 24.3278 24.4141 24.2966C24.3845 24.2653 24.3614 24.2285 24.3461 24.1883C24.3308 24.1481 24.3235 24.1053 24.3248 24.0623ZM25.0637 24.0623C25.0669 23.9997 25.0884 23.9395 25.1255 23.8891C25.1625 23.8387 25.2136 23.8002 25.2723 23.7785C25.331 23.7568 25.3947 23.7528 25.4557 23.767C25.5166 23.7812 25.572 23.813 25.6151 23.8584C25.6582 23.9038 25.687 23.9609 25.698 24.0225C25.7089 24.0842 25.7016 24.1477 25.6769 24.2052C25.6521 24.2627 25.6111 24.3117 25.5588 24.3461C25.5065 24.3805 25.4453 24.3988 25.3828 24.3987C25.3397 24.3976 25.2973 24.388 25.258 24.3705C25.2187 24.353 25.1832 24.3279 25.1536 24.2966C25.1239 24.2654 25.1007 24.2286 25.0853 24.1884C25.0699 24.1482 25.0626 24.1053 25.0637 24.0623ZM11.3413 24.0623C11.3445 23.9997 11.366 23.9395 11.403 23.8891C11.4401 23.8387 11.4911 23.8002 11.5498 23.7785C11.6085 23.7568 11.6723 23.7528 11.7332 23.767C11.7942 23.7812 11.8496 23.813 11.8927 23.8584C11.9357 23.9038 11.9645 23.9609 11.9755 24.0225C11.9865 24.0842 11.9792 24.1477 11.9544 24.2052C11.9297 24.2627 11.8887 24.3117 11.8364 24.3461C11.7841 24.3805 11.7229 24.3988 11.6603 24.3987C11.6173 24.3976 11.5749 24.388 11.5356 24.3705C11.4962 24.353 11.4607 24.3279 11.4311 24.2966C11.4015 24.2654 11.3783 24.2286 11.3629 24.1884C11.3475 24.1482 11.3401 24.1053 11.3413 24.0623ZM12.081 24.0623C12.0844 24 12.1059 23.94 12.1429 23.8898C12.18 23.8397 12.2309 23.8014 12.2894 23.7799C12.3479 23.7583 12.4114 23.7544 12.4721 23.7686C12.5329 23.7828 12.5881 23.8145 12.631 23.8597C12.6739 23.905 12.7026 23.9618 12.7136 24.0233C12.7246 24.0847 12.7174 24.148 12.6928 24.2053C12.6682 24.2626 12.6274 24.3115 12.5754 24.3459C12.5233 24.3803 12.4624 24.3986 12.4 24.3987C12.357 24.3977 12.3145 24.3882 12.2752 24.3707C12.2358 24.3532 12.2003 24.3281 12.1706 24.2969C12.141 24.2656 12.1178 24.2288 12.1024 24.1885C12.087 24.1483 12.0798 24.1053 12.081 24.0623ZM9.5944 20.6485C9.59761 20.5862 9.61901 20.5261 9.65596 20.4758C9.69291 20.4256 9.74379 20.3872 9.80229 20.3655C9.8608 20.3439 9.92436 20.3399 9.98513 20.354C10.0459 20.3681 10.1012 20.3997 10.1442 20.4449C10.1872 20.4902 10.216 20.547 10.227 20.6085C10.238 20.6699 10.2308 20.7332 10.2063 20.7906C10.1817 20.848 10.1409 20.8969 10.0889 20.9313C10.0368 20.9657 9.97581 20.9841 9.91343 20.9842C9.8703 20.9832 9.8278 20.9736 9.78837 20.9561C9.74895 20.9386 9.71338 20.9134 9.68372 20.882C9.65406 20.8507 9.6309 20.8138 9.61557 20.7734C9.60024 20.7331 9.59304 20.6901 9.5944 20.6469V20.6485ZM10.3341 20.6485C10.3373 20.5861 10.3588 20.5261 10.3957 20.4758C10.4327 20.4255 10.4837 20.3871 10.5422 20.3655C10.6007 20.3438 10.6644 20.3399 10.7251 20.354C10.7859 20.3682 10.8412 20.3999 10.8842 20.4452C10.9271 20.4905 10.9559 20.5474 10.9668 20.6089C10.9778 20.6704 10.9705 20.7338 10.9458 20.7911C10.9211 20.8485 10.8802 20.8974 10.828 20.9317C10.7759 20.966 10.7148 20.9842 10.6524 20.9842C10.6093 20.9831 10.5669 20.9734 10.5276 20.9559C10.4882 20.9383 10.4528 20.9131 10.4232 20.8818C10.3936 20.8504 10.3705 20.8135 10.3552 20.7732C10.3399 20.7329 10.3328 20.69 10.3341 20.6469V20.6485ZM8.22286 24.0623C8.22607 23.9997 8.24754 23.9395 8.28461 23.8891C8.32168 23.8387 8.37273 23.8002 8.43142 23.7785C8.49011 23.7568 8.55387 23.7528 8.61481 23.767C8.67575 23.7812 8.73119 23.813 8.77425 23.8584C8.81732 23.9038 8.84613 23.9609 8.85711 24.0225C8.86809 24.0842 8.86076 24.1477 8.83602 24.2052C8.81129 24.2627 8.77024 24.3117 8.71796 24.3461C8.66568 24.3805 8.60446 24.3988 8.54189 24.3987C8.49883 24.3977 8.45639 24.3882 8.41702 24.3707C8.37765 24.3532 8.34211 24.3281 8.31247 24.2969C8.28282 24.2656 8.25964 24.2288 8.24426 24.1885C8.22888 24.1483 8.22161 24.1053 8.22286 24.0623ZM8.9618 24.0623C8.96501 23.9997 8.98648 23.9395 9.02355 23.8891C9.06063 23.8387 9.11167 23.8002 9.17036 23.7785C9.22905 23.7568 9.29282 23.7528 9.35376 23.767C9.41469 23.7812 9.47013 23.813 9.5132 23.8584C9.55626 23.9038 9.58507 23.9609 9.59605 24.0225C9.60703 24.0842 9.5997 24.1477 9.57496 24.2052C9.55023 24.2627 9.50918 24.3117 9.4569 24.3461C9.40462 24.3805 9.3434 24.3988 9.28083 24.3987C9.2378 24.3976 9.19541 24.388 9.15609 24.3705C9.11676 24.353 9.08127 24.3279 9.05165 24.2966C9.02202 24.2654 8.99883 24.2286 8.98342 24.1884C8.968 24.1482 8.96065 24.1053 8.9618 24.0623ZM12.7152 21.5452V23.4136H10.3693V22.1797H9.7547V23.4121H8V21.5233H8.71861V22.7063H9.18778L9.19482 21.5045H11.0027V22.7712H12.0974V21.5436L12.7152 21.5452ZM13.8771 22.1398H14.3666V22.7728H13.8748L13.8771 22.1398ZM20.0358 20.6665V23.4136H14.9859C14.9859 23.4136 14.8882 24.0278 14.5434 24.2367C14.2306 24.4269 13.5675 24.3651 13.5675 24.3651C13.5675 24.3651 14.0546 24.1092 14.2095 23.9026C14.3049 23.7582 14.3504 23.5864 14.3393 23.4136H13.261V21.5632H14.9812V22.7712H18.2654V22.1289H16.058C15.9426 22.121 15.835 22.0682 15.7582 21.9817C15.6814 21.8952 15.6417 21.782 15.6475 21.6664C15.6444 21.5435 15.6735 21.4219 15.7319 21.3138C15.7904 21.2056 15.8761 21.1146 15.9806 21.0499L16.9565 20.2542H18.0856L16.5467 21.4865H18.3452C18.3452 21.4865 18.8582 21.5373 18.884 21.9223C18.8981 22.2051 18.8981 22.4884 18.884 22.7712H19.4751V20.6649L20.0358 20.6665ZM20.6011 20.6665H21.1923V23.4136H20.5996L20.6011 20.6665ZM25.7346 21.5647V23.4136H24.1707C24.1707 23.4136 23.9135 24.3259 23.1182 24.3392C21.5786 24.3651 22.2205 22.3096 22.2205 22.3096C22.2205 22.3096 22.1228 23.4887 22.8868 23.4919C23.7102 23.4919 23.5796 22.7728 23.5796 22.7728V20.69H24.1965V22.7712H25.0942V21.5632L25.7346 21.5647ZM29.1752 22.1813H29.7664V22.7728H29.1752V22.1813ZM26.8387 22.1813H27.4025V22.7728H26.8395L26.8387 22.1813ZM32.4352 20.6595H32.9989V23.4136H27.9702C27.9702 23.4136 27.9194 24.0576 27.4041 24.2626C27.2623 24.324 27.1094 24.3557 26.9549 24.3557C26.8003 24.3557 26.6474 24.324 26.5056 24.2626C26.7507 24.2254 26.9765 24.1079 27.1476 23.9285C27.4557 23.6194 27.3282 23.4136 27.3282 23.4136H26.275V21.5358H27.9702V22.7712H28.559V21.5632H30.3818V22.7712H31.177V21.5632H31.819V22.7712H32.4359L32.4352 20.6595ZM33.5135 20.6665H34.1046V23.4136H33.5135V20.6665ZM40.9303 21.5373V23.4152H35.1305V21.5632H36.3121V22.0522H35.8241V22.7712H37.7501V21.5373H38.3139V22.7712H39.0325V21.5373H39.6244V22.7712H40.3172V21.5373H40.9303ZM40.3829 26.8681C40.3689 26.8437 40.3482 26.8239 40.3232 26.8111C40.2982 26.7984 40.2701 26.7931 40.2421 26.7961C40.2148 26.7934 40.1873 26.7988 40.163 26.8116C40.1386 26.8244 40.1186 26.844 40.1053 26.8681C40.0759 26.9402 40.0631 27.018 40.0678 27.0958V27.1826H40.4196V27.0958C40.4257 27.0184 40.4145 26.9406 40.3868 26.8681H40.3829ZM40.0701 27.7898C40.0611 27.8642 40.0803 27.9394 40.1241 28.0002C40.1398 28.0165 40.1586 28.0295 40.1794 28.0384C40.2003 28.0473 40.2226 28.0518 40.2453 28.0519C40.2718 28.0525 40.2981 28.0464 40.3216 28.0341C40.3452 28.0218 40.3652 28.0037 40.3798 27.9815C40.4197 27.898 40.4365 27.8053 40.4283 27.7131H41.0131C41.0074 27.953 40.9462 28.134 40.8294 28.2561C40.7126 28.3782 40.5195 28.4389 40.25 28.4384C40.1177 28.4417 39.9857 28.424 39.859 28.386C39.7585 28.3549 39.6696 28.2947 39.6033 28.2131C39.5332 28.1211 39.4858 28.0139 39.4649 27.9001C39.4352 27.7454 39.4213 27.5881 39.4234 27.4306C39.4205 27.2708 39.4363 27.1111 39.4704 26.9549C39.4951 26.8394 39.5453 26.7309 39.6174 26.6373C39.6853 26.5555 39.7743 26.4938 39.8746 26.4589C39.996 26.4193 40.1231 26.4005 40.2507 26.4033C40.3656 26.4013 40.4801 26.4171 40.5901 26.4503C40.6841 26.4799 40.7685 26.5339 40.8349 26.6067C40.9058 26.6901 40.9561 26.789 40.9819 26.8955C41.0176 27.0413 41.0339 27.1913 41.0304 27.3414V27.5394H40.0701V27.7898ZM38.3225 27.904C38.3282 27.934 38.3405 27.9623 38.3584 27.987C38.3734 28.0092 38.3939 28.0272 38.4179 28.0393C38.4418 28.0513 38.4685 28.057 38.4953 28.0558C38.5424 28.0566 38.5884 28.0414 38.6259 28.0128C38.6443 27.9983 38.659 27.9796 38.6687 27.9582C38.6784 27.9368 38.6827 27.9134 38.6814 27.8899C38.6824 27.8636 38.6765 27.8375 38.6643 27.8142C38.6521 27.7908 38.634 27.7711 38.6118 27.7569C38.5574 27.7218 38.4988 27.6937 38.4374 27.6732L38.213 27.595C38.1337 27.569 38.0583 27.5327 37.9886 27.487C37.918 27.4397 37.8588 27.3774 37.815 27.3047C37.7643 27.2138 37.7399 27.1105 37.7446 27.0066C37.7438 26.9241 37.7597 26.8424 37.7915 26.7664C37.8234 26.6918 37.8721 26.6256 37.9338 26.5731C38.0044 26.5138 38.0864 26.4696 38.1747 26.4432C38.2863 26.4099 38.4023 26.3941 38.5187 26.3963C39.0061 26.3963 39.2499 26.6007 39.2499 27.0097H38.6876C38.6945 26.9493 38.6786 26.8884 38.6431 26.8391C38.6262 26.8233 38.6062 26.8111 38.5844 26.8033C38.5626 26.7955 38.5395 26.7922 38.5164 26.7937C38.4737 26.792 38.4319 26.8062 38.3991 26.8336C38.3834 26.8474 38.371 26.8645 38.3628 26.8838C38.3547 26.903 38.3511 26.9239 38.3522 26.9448C38.351 26.97 38.357 26.9951 38.3695 27.0171C38.3819 27.0391 38.4003 27.0571 38.4225 27.0692C38.4771 27.102 38.5354 27.1283 38.5961 27.1474L38.8206 27.2155C38.8997 27.2392 38.9752 27.2737 39.045 27.318C39.1158 27.3641 39.1754 27.4256 39.2194 27.4979C39.2699 27.59 39.2943 27.6942 39.2897 27.7992C39.2907 27.8897 39.272 27.9794 39.235 28.0621C39.1982 28.1409 39.1449 28.2108 39.0786 28.2671C39.0073 28.3275 38.9238 28.3718 38.8339 28.3969C38.7265 28.4271 38.6154 28.4416 38.5039 28.44C38.2323 28.44 38.0373 28.3863 37.919 28.2788C37.8006 28.1713 37.7412 28.0109 37.7407 27.7976H38.3084C38.31 27.8335 38.3152 27.8692 38.324 27.904H38.3225ZM36.5881 26.4495V27.7397C36.5834 27.8009 36.5962 27.8622 36.6248 27.9165C36.6404 27.9336 36.6594 27.9472 36.6806 27.9565C36.7017 27.9658 36.7245 27.9706 36.7476 27.9706C36.7707 27.9706 36.7935 27.9658 36.8147 27.9565C36.8358 27.9472 36.8548 27.9336 36.8704 27.9165C36.8984 27.862 36.9108 27.8008 36.9063 27.7397V26.4495H37.5538V28.3985H36.9282V28.1638C36.8414 28.3492 36.6835 28.4415 36.4505 28.4415C36.383 28.4418 36.3157 28.4352 36.2495 28.422C36.1903 28.4101 36.1351 28.3831 36.0892 28.3437C36.0399 28.2998 36.0025 28.2441 35.9805 28.1818C35.952 28.099 35.9385 28.0119 35.9406 27.9244V26.4495H36.5881ZM32.773 25.8235V26.7726H33.1819V25.8243H33.8521V28.3985H33.1819V27.3414H32.7745V28.3985H32.1044V25.8243L32.773 25.8235ZM28.6286 27.0214C28.6232 26.98 28.6122 26.9394 28.5958 26.9009C28.5834 26.8742 28.5631 26.8519 28.5377 26.8371C28.5122 26.8222 28.4828 26.8156 28.4535 26.818C28.4209 26.8174 28.3889 26.8269 28.362 26.8454C28.3322 26.8703 28.3116 26.9045 28.3033 26.9424C28.2868 27.0033 28.2766 27.0657 28.2728 27.1286C28.2674 27.2069 28.2642 27.3055 28.2642 27.4252C28.2642 27.5449 28.2642 27.6435 28.2728 27.7217C28.2765 27.7842 28.2867 27.8461 28.3033 27.9064C28.3122 27.9436 28.3327 27.9771 28.362 28.0018C28.389 28.02 28.4209 28.0293 28.4535 28.0284C28.4803 28.0299 28.5071 28.0244 28.5312 28.0124C28.5553 28.0005 28.5759 27.9826 28.5911 27.9604C28.6302 27.8822 28.6467 27.7947 28.6388 27.7076V27.5832H29.2237C29.2257 27.7147 29.2126 27.846 29.1846 27.9744C29.1629 28.0732 29.1173 28.1651 29.0517 28.242C28.9289 28.3727 28.7303 28.4376 28.4543 28.4376C28.3398 28.4386 28.2255 28.4276 28.1133 28.4048C28.0136 28.3855 27.9217 28.3374 27.849 28.2663C27.7678 28.1826 27.709 28.0798 27.6778 27.9674C27.6323 27.8013 27.6117 27.6294 27.6168 27.4572C27.6111 27.2699 27.634 27.0829 27.6848 26.9025C27.7194 26.782 27.7831 26.6718 27.8701 26.5817C27.9467 26.5082 28.0419 26.457 28.1454 26.4338C28.2576 26.409 28.3722 26.3969 28.4871 26.3978C28.609 26.3939 28.7304 26.4141 28.8444 26.4573C28.933 26.4926 29.0111 26.55 29.0712 26.624C29.1292 26.7 29.1698 26.7879 29.1901 26.8814C29.2137 26.9909 29.2249 27.1027 29.2237 27.2147H28.6388C28.641 27.1505 28.6389 27.0862 28.6325 27.0222L28.6286 27.0214ZM26.4274 26.4487V26.6834C26.4673 26.5917 26.5347 26.5147 26.6203 26.4631C26.706 26.4115 26.8055 26.3878 26.9052 26.3955C26.9727 26.3949 27.0399 26.4028 27.1054 26.419C27.1651 26.4337 27.2204 26.4627 27.2665 26.5035C27.3146 26.5483 27.3515 26.6037 27.3744 26.6654C27.4036 26.7488 27.4171 26.8369 27.4143 26.9252V28.3954H26.7668V27.1138C26.7715 27.0526 26.7591 26.9914 26.7308 26.9369C26.7152 26.9199 26.6963 26.9063 26.6751 26.897C26.654 26.8877 26.6312 26.8829 26.6081 26.8829C26.585 26.8829 26.5621 26.8877 26.541 26.897C26.5199 26.9063 26.5009 26.9199 26.4853 26.9369C26.4571 26.9914 26.4446 27.0526 26.4493 27.1138V28.4001H25.8019V26.4495L26.4274 26.4487ZM22.7523 26.4487V26.6834C22.7922 26.5918 22.8597 26.5148 22.9453 26.4632C23.0309 26.4116 23.1304 26.388 23.23 26.3955C23.2977 26.395 23.3652 26.4028 23.431 26.419C23.4905 26.4337 23.5455 26.4627 23.5913 26.5035C23.6399 26.548 23.6772 26.6035 23.7 26.6654C23.7288 26.7489 23.7423 26.8369 23.7399 26.9252V28.3954H23.1018V27.1138C23.1064 27.0525 23.0936 26.9912 23.0651 26.9369C23.0494 26.9199 23.0305 26.9063 23.0093 26.897C22.9882 26.8877 22.9654 26.8829 22.9423 26.8829C22.9192 26.8829 22.8964 26.8877 22.8752 26.897C22.8541 26.9063 22.8351 26.9199 22.8195 26.9369C22.7913 26.9914 22.7788 27.0526 22.7835 27.1138V28.4001H22.1361V26.4495L22.7523 26.4487ZM21.0179 25.8227V26.3704H20.1718V26.8133H20.971V27.3414H20.1718V28.3985H19.5048V25.8243L21.0179 25.8227ZM17.4882 26.4487V25.8752H18.1349V26.4487H18.3906V26.8861H18.1349V27.8179C18.1326 27.8391 18.1349 27.8605 18.1415 27.8807C18.1481 27.901 18.1589 27.9196 18.1732 27.9353C18.2065 27.9605 18.248 27.9725 18.2897 27.969H18.3906V28.4009C18.3311 28.4009 18.2709 28.4009 18.2107 28.4063C18.1505 28.4118 18.0934 28.4126 18.0379 28.4126C17.9538 28.4132 17.8697 28.4088 17.7861 28.3993C17.7247 28.3943 17.6657 28.3727 17.6156 28.3367C17.5681 28.2986 17.5341 28.2462 17.5187 28.1873C17.4959 28.1021 17.4856 28.014 17.4882 27.9259V26.8869H17.2716V26.4495L17.4882 26.4487ZM12.5001 26.4487L12.662 27.85L12.8598 26.4487H13.562L13.7528 27.85L13.9225 26.4487H14.548L14.1516 28.3977H13.4173L13.2195 27.0183L13.0146 28.3985H12.2804L11.8847 26.4495L12.5001 26.4487ZM10.7798 26.4487V27.7397C10.775 27.8009 10.7874 27.8621 10.8158 27.9165C10.8314 27.9336 10.8504 27.9472 10.8715 27.9565C10.8926 27.9658 10.9155 27.9706 10.9386 27.9706C10.9617 27.9706 10.9845 27.9658 11.0056 27.9565C11.0268 27.9472 11.0457 27.9336 11.0613 27.9165C11.0897 27.8621 11.1022 27.8009 11.0973 27.7397V26.4495H11.7448V28.3985H11.1192V28.1638C11.0324 28.3492 10.8752 28.4415 10.6414 28.4415C10.5742 28.4418 10.5072 28.4352 10.4413 28.422C10.3818 28.4101 10.3263 28.3831 10.2802 28.3437C10.2314 28.2995 10.1943 28.2439 10.1723 28.1818C10.1434 28.0991 10.1299 28.0119 10.1324 27.9244V26.4495L10.7798 26.4487ZM8.80072 25.8227V26.811L9.30507 25.8227H10.0174L9.36998 26.9479L10.0972 28.3969H9.33948L8.9485 27.505L8.80775 27.7209V28.4024H8.13762V25.8282L8.80072 25.8227ZM15.5951 28.2937L15.5802 28.1786C15.5424 28.2602 15.4804 28.3282 15.4027 28.3735C15.3207 28.4178 15.2285 28.4402 15.1353 28.4384C15.0508 28.4405 14.9667 28.4278 14.8866 28.4009C14.8224 28.3778 14.7651 28.3387 14.7201 28.2874C14.6761 28.235 14.644 28.1736 14.6262 28.1074C14.6068 28.0321 14.5974 27.9545 14.5981 27.8766C14.5969 27.7976 14.6059 27.7187 14.6247 27.6419C14.6409 27.5781 14.6707 27.5185 14.7123 27.4674C14.7579 27.4144 14.8141 27.3715 14.8773 27.3414C14.9596 27.3021 15.0462 27.2724 15.1353 27.253L15.3902 27.192C15.4453 27.1824 15.4964 27.1568 15.5372 27.1185C15.5683 27.0789 15.5836 27.0293 15.5802 26.9792C15.5802 26.8595 15.5255 26.7992 15.416 26.7992C15.391 26.797 15.3658 26.8005 15.3424 26.8094C15.319 26.8183 15.2979 26.8325 15.2807 26.8509C15.2446 26.9125 15.2282 26.9838 15.2338 27.0551H14.6716C14.6668 26.9369 14.6938 26.8196 14.7498 26.7155C14.7954 26.6358 14.8595 26.5681 14.9367 26.5183C15.0105 26.472 15.0925 26.4404 15.1783 26.4252C15.258 26.4102 15.3388 26.4023 15.4199 26.4017C15.5248 26.4008 15.6295 26.4097 15.7327 26.4283C15.8201 26.4439 15.9034 26.4771 15.9774 26.5261C16.046 26.5743 16.1001 26.6403 16.1338 26.7171C16.1743 26.8163 16.1933 26.923 16.1894 27.03V27.9744C16.1894 28.066 16.1894 28.1466 16.2003 28.2162C16.2052 28.2789 16.2222 28.34 16.2504 28.3962H15.6248C15.6111 28.3632 15.6011 28.3288 15.5951 28.2937ZM15.5341 27.933C15.5695 27.8578 15.5854 27.7749 15.5802 27.692V27.4572C15.5553 27.484 15.5218 27.5011 15.4856 27.5058C15.4404 27.5135 15.3964 27.5275 15.355 27.5472C15.3103 27.566 15.2736 27.5997 15.251 27.6427C15.2303 27.6922 15.2207 27.7456 15.2229 27.7992C15.2196 27.8545 15.2344 27.9095 15.2651 27.9557C15.2781 27.9739 15.2954 27.9886 15.3155 27.9985C15.3355 28.0085 15.3577 28.0134 15.38 28.0128C15.4102 28.0147 15.4404 28.0083 15.4671 27.9942C15.4939 27.9802 15.5163 27.959 15.5317 27.933H15.5341Z" fill="#00934C"/>
</g>
</g>
<defs>
<clipPath id="clip0_1072_1229">
<rect width="48" height="14" fill="white" transform="translate(8 18)"/>
</clipPath>
</defs>
</svg>