<svg width="38" height="24" viewBox="0 0 64 48" fill="none" xmlns="http://www.w3.org/2000/svg">
<path d="M20.0691 24.6852C19.7547 24.6716 19.4666 24.9171 19.1684 25.0407C19.0946 25.139 18.9175 25.3114 19.0436 25.5936C19.0488 25.7056 19.017 25.7803 18.9914 25.8665C18.8922 25.7803 18.8702 25.4722 18.8647 25.2144C19.0003 24.8942 19.2319 25.0048 19.3937 24.7721C19.5866 24.561 19.8597 24.5358 20.0691 24.6852Z" fill="#FFC20E"/>
<path d="M19.7549 25.2142C19.7442 25.3593 19.7341 25.5331 19.6709 25.5934C19.5977 25.6199 19.5977 25.3858 19.6181 25.2767C19.6395 25.1647 19.7289 25.0404 19.7549 25.2142Z" fill="#FFC20E"/>
<path d="M55.6335 17.7522H7.63354V31.077H55.6335V17.7522Z" fill="#FFC20E"/>
<path d="M22.0356 27.3325H20.331V23.3737H20.3133L19.2264 27.3325H18.0614L16.9394 23.3737H16.9223V27.3325H15.5486V21.7889H17.9399L18.7915 24.7302H18.8083L19.6259 21.7889H22.0356V27.3325Z" fill="#231F20"/>
<path d="M25.6864 25.4013C25.2689 25.4401 24.5733 25.5636 24.5733 26.0641C24.5733 26.3298 24.7552 26.4426 25.0259 26.4426C25.6769 26.4426 25.6864 25.9327 25.6864 25.4839V25.4013ZM25.8335 27.3323C25.7905 27.1449 25.7734 26.9531 25.7734 26.7585C25.4251 27.2368 24.9292 27.412 24.3215 27.412C23.495 27.412 22.7734 26.9926 22.7734 26.1711C22.7734 25.5162 23.3216 25.0782 23.9378 24.9001C24.5034 24.7385 25.1028 24.671 25.6864 24.6402V24.61C25.6864 24.2366 25.5814 24.0944 25.1648 24.0944C24.8245 24.0944 24.5388 24.2043 24.4869 24.5526L22.9025 24.4176C23.165 23.39 24.2168 23.1229 25.217 23.1229C25.7377 23.1229 26.4073 23.1868 26.8428 23.479C27.4252 23.8582 27.355 24.391 27.355 24.9841V26.4275C27.355 26.7334 27.3645 27.0422 27.4951 27.3323H25.8335Z" fill="#231F20"/>
<path d="M30.7405 27.5823C30.409 28.439 29.9652 28.7628 28.9739 28.7628L28.2444 28.7291L28.0958 28.7233V27.5751L28.7221 27.6232C28.9565 27.6232 29.479 27.6325 29.479 27.3108C29.479 27.1881 29.4088 27.0466 29.3655 26.9353L27.8098 23.2055H29.6789L30.409 25.4015L31.1839 23.2055H32.453L30.7405 27.5823Z" fill="#231F20"/>
<path d="M34.7835 25.6942C34.7835 26.0152 34.8281 26.4101 35.2795 26.4101C35.8698 26.4101 35.8533 25.6784 35.8533 25.2799C35.8533 24.8842 35.8796 24.1467 35.2627 24.1467C35.1046 24.1467 34.9835 24.2229 34.8885 24.3349C34.7661 24.4727 34.7835 24.6013 34.7835 24.7722V25.6942ZM33.0542 21.7893H34.7747V23.6951H34.8015C35.0457 23.2771 35.4187 23.1227 35.94 23.1227C37.1831 23.1227 37.6092 24.2293 37.6092 25.2145C37.6092 26.3635 37.0882 27.4126 35.6973 27.4126C35.1046 27.4126 34.6087 27.2202 34.2708 26.7656C34.1676 26.9466 34.0974 27.1369 34.0367 27.3329H33.0542V21.7893Z" fill="#231F20"/>
<path d="M40.9946 25.4013C40.5767 25.4401 39.8814 25.5636 39.8814 26.0641C39.8814 26.3298 40.063 26.4426 40.3329 26.4426C40.9845 26.4426 40.9946 25.9327 40.9946 25.4839V25.4013ZM41.1426 27.3323C41.0999 27.1449 41.0815 26.9531 41.0815 26.7585C40.7333 27.2368 40.237 27.412 39.6287 27.412C38.8025 27.412 38.0825 26.9926 38.0825 26.1711C38.0825 25.5162 38.6285 25.0782 39.2466 24.9001C39.8116 24.7385 40.4107 24.671 40.9946 24.6402V24.61C40.9946 24.2366 40.8908 24.0944 40.4726 24.0944C40.1323 24.0944 39.846 24.2043 39.7945 24.5526L38.2122 24.4176C38.4714 23.39 39.524 23.1229 40.5233 23.1229C41.0464 23.1229 41.7161 23.1868 42.1516 23.479C42.7334 23.8582 42.6638 24.391 42.6638 24.9841V26.4275C42.6638 26.7334 42.672 27.0422 42.8026 27.3323H41.1426Z" fill="#231F20"/>
<path d="M45.225 23.2056V23.7872H45.2415C45.449 23.319 45.9645 23.123 46.5023 23.123C46.9208 23.123 47.3978 23.2371 47.6597 23.5531C47.9365 23.8906 47.9365 24.3595 47.9365 24.7875V27.3324H46.2154V24.8299C46.2154 24.5764 46.2154 24.2288 45.8421 24.2288C45.3636 24.2288 45.3217 24.6094 45.3217 24.9476V27.3324H43.5985V23.2056H45.225Z" fill="#231F20"/>
<path d="M52.063 24.6264L53.5586 27.3322H51.7593L50.924 25.6784L50.4897 26.1933V27.3322H48.7679V21.7892H50.4897V24.7772L50.8632 24.3176L51.9074 23.2053H53.4032L52.063 24.6264Z" fill="#231F20"/>
<path d="M11.9653 30.1855C13.315 30.1855 14.4104 27.6098 14.4104 24.433C14.4104 21.2569 13.315 18.6796 11.9653 18.6796C10.6138 18.6796 9.51904 21.2569 9.51904 24.433C9.51904 27.6098 10.6138 30.1855 11.9653 30.1855Z" fill="#231F20"/>
<path d="M11.9653 30.1855C13.315 30.1855 14.4104 27.6098 14.4104 24.433C14.4104 21.2569 13.315 18.6796 11.9653 18.6796C10.6138 18.6796 9.51904 21.2569 9.51904 24.433C9.51904 27.6098 10.6138 30.1855 11.9653 30.1855Z" stroke="#231F20" stroke-width="0.06375"/>
<path d="M11.9653 29.9098C13.2503 29.9098 14.2917 27.4547 14.2917 24.4329C14.2917 21.4119 13.2503 18.959 11.9653 18.959C10.6798 18.959 9.63806 21.4119 9.63806 24.4329C9.63806 27.4547 10.6798 29.9098 11.9653 29.9098Z" fill="#FFC20E"/>
<path d="M12.8309 20.6586C12.841 20.7096 12.815 20.7002 12.8056 20.7153C12.7879 20.7002 12.7803 20.734 12.7699 20.7584C12.8972 20.9408 13.0186 20.7814 13.1535 20.9164C13.0012 21.0406 12.8611 21.4126 12.7091 21.6208C12.7128 21.4772 12.812 21.3436 12.7629 21.1799C12.6627 21.251 12.6521 21.5533 12.5388 21.5777C12.4918 21.9124 12.3099 21.7709 12.197 21.8635C12.1363 21.6869 12.2644 21.5203 12.2928 21.3357C12.3002 21.251 12.3224 21.0765 12.2672 21.0327C12.1564 21.0255 12.1826 21.3788 12.1118 21.5203C12.1079 21.7041 12.052 21.8535 11.9824 21.9648C11.9296 21.9382 11.9296 21.5203 11.8313 21.7616C11.7453 21.8535 11.6699 22.0711 11.5744 22.0402C11.589 21.9303 11.6534 21.9124 11.6839 21.8212C11.7489 21.6208 11.7846 21.3357 11.756 21.1024C11.7453 21.0327 11.7166 21.0701 11.6946 21.0614C11.6534 21.1591 11.6739 21.3271 11.6421 21.4363C11.5634 21.6208 11.5103 21.9526 11.4138 21.9813C11.4211 21.837 11.499 21.7709 11.5139 21.6359C11.5347 21.4449 11.6104 21.251 11.556 21.0327C11.5237 20.9753 11.4602 20.9839 11.4279 21.0614C11.3717 21.1821 11.3995 21.353 11.4034 21.5203C11.3326 21.679 11.2722 22.0617 11.1574 21.9382C11.1574 21.8305 11.1864 21.712 11.1645 21.6036C11.1232 21.4363 11.0439 21.4772 10.9871 21.5354C10.8135 21.6208 10.8476 22.1709 10.6703 22.2068C10.4893 22.331 10.3102 22.55 10.1902 22.9414C10.2107 23.1525 10.3855 23.1008 10.3184 23.3888C10.2006 23.5632 10.0831 23.7126 10.0053 24.0156C9.97626 24.3833 10.0977 24.6569 10.2189 24.8343C10.4597 25.0188 10.713 24.7768 10.9447 24.6519L11.0299 24.4486C11.0274 24.751 11.2279 24.8264 11.1294 25.1782C11.0982 25.3218 11.0115 25.464 11.0543 25.6385C11.1626 25.505 11.1934 25.1969 11.2252 24.9362C11.2279 24.7926 11.1501 24.7344 11.1574 24.5923C11.2475 24.5923 11.3433 24.8343 11.379 25.0353C11.3961 25.3958 11.2334 25.6026 11.1574 25.8583C11.0079 25.9638 10.9203 26.6912 10.6874 26.5261C10.6132 26.5002 10.5681 26.325 10.4814 26.358C10.435 26.4816 10.3926 26.6374 10.4206 26.8011C10.4893 27.2039 10.677 26.8751 10.8052 27.0029V27.0251C11.1147 27.2456 11.2756 26.2992 11.5673 26.2554C11.6281 26.2834 11.7273 26.3329 11.7453 26.1419C11.7123 25.6874 11.8023 25.3542 11.8054 24.9362C11.8982 25.026 11.8475 25.2443 11.8475 25.4209C11.7346 25.8798 11.8378 26.4342 11.8909 26.8873C11.9192 26.9505 11.9449 27.046 11.994 27.0029C12.1118 26.6683 11.8552 26.4155 11.9083 26.0414C12.005 25.7462 11.8982 25.413 11.9336 25.054C12.0267 24.6655 12.1759 24.2648 12.0792 23.7701C12.0581 23.7363 12.052 23.6552 12.0191 23.6882C11.969 23.7701 11.9724 23.9395 11.926 23.9941C11.8982 23.8203 11.8982 23.5776 11.926 23.4117C12.0532 23.1302 12.0728 22.7066 12.0114 22.3411L11.9406 22.2068C11.9824 22.0617 12.0532 22.1996 12.1045 22.2405C12.1933 22.4409 12.2043 22.7066 12.2324 22.9665C12.1363 23.5632 12.36 24.1672 12.1717 24.677C12.1515 24.9032 12.0865 25.0849 12.0865 25.3355C12.0288 25.5294 12.052 25.8475 12.0972 26.0414C12.1182 26.0744 12.1564 26.1419 12.1826 26.0557C12.2785 25.8123 12.2461 25.3958 12.2391 25.0964C12.2855 25.0123 12.3752 25.1043 12.3859 24.9362C12.353 24.1672 12.5272 23.3428 12.3673 22.624C12.3356 22.4911 12.3578 22.3159 12.378 22.1809C12.4872 22.0294 12.5742 22.3964 12.6954 22.3827C12.7351 22.6175 12.7235 22.8926 12.7372 23.1439C12.7409 23.6207 12.9362 23.9302 12.8648 24.4486C12.9261 24.8515 12.8871 25.3218 12.8972 25.7225C12.8437 26.218 12.6484 26.5756 12.5251 27.0029C12.5141 27.1372 12.5272 27.2628 12.5742 27.3282C12.7629 27.2628 12.8056 26.7796 12.8901 26.4413C12.9545 26.1318 13.015 25.7987 13.1361 25.5531C13.1868 25.0964 13.2964 24.6339 13.2329 24.1162C13.2393 23.9151 13.2964 23.5956 13.2149 23.4117C13.1749 23.3967 13.1572 23.495 13.1535 23.5726C13.1465 23.9553 13.2182 24.389 13.0937 24.6928C13.0855 24.8106 13.0788 24.9362 13.0363 24.9944C12.9835 24.9527 13.061 24.7768 13.0363 24.6339C13.0583 24.1162 13.0504 23.6207 13.0263 23.0843C12.9362 22.8753 12.9231 22.55 12.873 22.2836C13.0748 22.0948 13.1071 21.5296 13.2631 21.2366C13.7658 21.4772 13.7441 22.7992 13.8729 23.6882C13.89 23.8814 13.876 24.0932 13.8476 24.2497C13.89 24.9527 13.7804 25.4971 13.709 26.0809C13.5985 26.4155 13.5552 26.837 13.4032 27.1027C13.3183 27.372 13.2463 27.647 13.1783 27.9321C13.1193 28.0807 13.0537 28.2157 12.9762 28.2696C12.7842 28.3234 12.5346 28.3155 12.4109 27.8502C12.3462 27.7159 12.2531 27.7612 12.1717 27.7296C12.0865 27.6118 12.005 27.4639 11.8982 27.4639C11.7944 27.1882 11.7233 26.9117 11.5744 26.8011C11.3345 26.7343 11.1184 26.9612 10.9334 27.2276C10.7701 27.163 10.6026 27.0108 10.4332 27.1264C10.3791 27.1192 10.3581 26.9835 10.3361 26.9038C10.3291 26.5002 10.4924 26.2554 10.446 25.8216C10.4539 25.7462 10.4857 25.6723 10.5168 25.6565C10.6493 25.4971 10.6639 25.9301 10.7805 25.8583C10.8904 25.5811 10.9087 25.2105 11.0299 24.9362C11.0369 24.8264 10.9841 24.8185 10.9584 24.751C10.8443 24.8019 10.7347 24.8838 10.6279 24.9944C10.6312 25.3111 10.4997 25.3025 10.4332 25.4784C10.3465 25.5193 10.2931 25.37 10.2503 25.2357C10.2107 24.8759 10.019 24.7445 9.97626 24.374C10.0117 23.9216 9.74948 23.8383 9.83403 23.3686C9.88805 23.1302 9.99732 22.9838 10.0977 22.9665C10.2815 22.466 10.5168 22.2405 10.7448 21.9813C10.8904 21.3357 11.2148 21.2086 11.4388 20.8316C11.8591 20.5286 12.4033 20.0231 12.8309 20.6586Z" fill="#231F20"/>
<path d="M13.0936 21.2368C12.9578 21.5535 12.8971 22.1215 12.652 21.9815C12.8058 21.8135 12.9407 21.4544 13.0936 21.2368Z" fill="#231F20"/>
<path d="M13.4884 22.2833C13.587 22.5655 13.4951 22.959 13.5311 23.2671C13.5699 23.6886 13.6764 24.1819 13.5552 24.592C13.5626 24.8103 13.5482 25.012 13.5055 25.1786C13.5027 25.6784 13.5027 26.2263 13.3184 26.5265C13.25 26.6845 13.2537 27.0356 13.1307 27.0256C13.1325 26.9925 13.1148 26.9782 13.1044 26.9832C13.015 27.0773 12.9759 27.3559 12.8648 27.3875C12.7699 27.6122 12.6665 27.921 12.5251 27.7609C12.4955 27.7408 12.4638 27.6546 12.4873 27.5871C12.6054 27.521 12.7351 27.4377 12.7931 27.1448C13.012 27.0356 12.9619 26.3326 13.196 26.199C13.2421 26.1883 13.2818 26.0748 13.3001 25.9815C13.3636 25.5377 13.3395 25.012 13.4542 24.6171C13.3605 24.1568 13.5238 23.7367 13.4448 23.2671C13.4103 22.8075 13.4139 22.3824 13.3785 21.9236C13.3785 21.8532 13.4032 21.6959 13.4448 21.7799C13.5101 21.8963 13.46 22.1318 13.4884 22.2833Z" fill="#FFC20E"/>
<path d="M11.5852 22.6409C11.6585 22.6179 11.7308 22.5921 11.7805 22.7436C11.7555 23.0445 11.6698 23.2771 11.5745 23.5141L11.5852 23.6886C11.4955 23.7288 11.4076 23.6441 11.3346 23.5263C11.5272 23.6146 11.5907 23.0919 11.6841 22.87C11.631 22.5073 11.41 22.8276 11.3181 22.5418C11.1933 22.5741 11.0758 22.7831 10.9583 22.5662C10.929 22.5576 10.9018 22.5993 10.8902 22.6682C10.8844 22.7687 10.9201 22.842 10.9516 22.8836C11.1146 22.9662 11.2754 22.7249 11.4277 22.87C11.4076 22.959 11.3743 23.0172 11.3291 23.0445C11.2782 23.0603 11.2251 23.0782 11.2 23.1859C11.1829 23.3102 11.2278 23.3683 11.2571 23.4423C11.1933 23.5536 11.1445 23.354 11.0865 23.3102L10.7981 23.2678C10.8298 23.0919 10.9372 23.2771 10.9763 23.1113C10.9055 22.9095 10.7944 22.8484 10.6876 22.8276L10.5682 22.87C10.5835 22.702 10.6702 22.6574 10.7312 22.5835C10.8701 22.396 11.0273 22.2 11.19 22.2833C11.3075 22.4801 11.443 22.5741 11.5852 22.6409Z" fill="#231F20"/>
<path d="M11.0618 22.5417C11.0594 22.5654 11.0649 22.5741 11.0722 22.5834C11.0618 22.6243 11.0441 22.6351 11.0298 22.6085C11.0188 22.5496 11.0475 22.5417 11.0618 22.5417Z" fill="#FFC20E"/>
<path d="M10.2752 23.2433C10.2972 23.369 10.2328 23.4523 10.2007 23.4867C10.14 23.5033 10.0725 23.514 10.0484 23.672C10.0447 23.7366 10.0225 23.8034 9.99469 23.8307C9.94097 23.863 9.89793 23.7891 9.87626 23.6885C9.85185 23.5384 9.87626 23.3891 9.9196 23.267C10.0081 23.0688 10.1796 23.1306 10.2752 23.2433Z" fill="#FFC20E"/>
<path d="M12.6164 23.6719C12.6774 24.2227 12.7629 24.8439 12.642 25.3961C12.5743 25.7221 12.4955 26.033 12.4812 26.4007C12.407 26.6757 12.3673 27.1942 12.1906 27.1626C12.1155 27.0951 12.1476 26.9119 12.165 26.7848C12.1763 26.5328 12.3063 26.5263 12.3429 26.3389C12.3673 26.0811 12.3463 25.7221 12.4693 25.6215C12.4659 25.0255 12.6268 24.5178 12.5306 23.9154C12.5498 23.8199 12.5596 23.6719 12.6164 23.6719Z" fill="#FFC20E"/>
<path d="M11.1232 24.2137L11.0722 24.3171L11.0188 24.1326C11.0594 24.1326 11.1009 24.1161 11.1232 24.2137Z" fill="#231F20"/>
<path d="M11.4033 24.6518L11.5055 24.8342C11.41 24.7832 11.3001 24.6087 11.243 24.3739L11.2754 24.2763C11.3242 24.3596 11.414 24.4745 11.4033 24.6518Z" fill="#231F20"/>
<path d="M10.4331 25.2529C10.4206 25.3541 10.3855 25.413 10.3467 25.3541C10.297 25.2701 10.2506 25.1265 10.293 24.9944C10.3583 24.9779 10.4032 25.1351 10.4331 25.2529Z" fill="#FFC20E"/>
<path d="M10.4893 25.0539C10.5202 24.9943 10.5562 25.069 10.5681 25.1344V25.2184C10.5202 25.3024 10.4893 25.0353 10.4463 25.2184C10.4814 25.143 10.4542 25.0769 10.4741 24.9943C10.4707 25.0259 10.4857 25.0353 10.4893 25.0539Z" fill="#FFC20E"/>
<path d="M10.5608 25.8403C10.5562 25.8999 10.5709 25.989 10.5318 25.9969C10.5095 26.0127 10.4961 25.9753 10.4814 25.9409C10.4708 25.8583 10.4995 25.7987 10.5169 25.7556C10.5388 25.747 10.5535 25.8037 10.5608 25.8403Z" fill="#FFC20E"/>
<path d="M10.7447 26.0967C10.7878 26.1068 10.8476 25.989 10.8726 26.1261C10.8336 26.2719 10.7591 26.3164 10.6877 26.3243C10.6492 26.2913 10.6025 26.3164 10.575 26.226C10.5607 26.1319 10.5991 26.0967 10.6175 26.0558V25.7987C10.7347 25.78 10.597 26.2066 10.7447 26.0967Z" fill="#FFC20E"/>
<path d="M10.2326 23.284C10.236 23.3306 10.2326 23.3615 10.2189 23.3888H10.2006V23.2287C10.2225 23.1992 10.2225 23.2674 10.2326 23.284Z" fill="#231F20"/>
<path d="M11.4567 24.0305C11.3666 24.0305 11.2723 23.563 11.1716 23.8122C11.1045 23.6887 11.008 23.7067 10.9335 23.7892C10.9412 23.7124 10.9665 23.6147 10.9265 23.5451C11.1185 23.6147 11.3242 23.6147 11.4567 24.0305Z" fill="#231F20"/>
</svg>