<svg width="38" height="24" viewBox="0 0 64 48" fill="none" xmlns="http://www.w3.org/2000/svg">
<g clip-path="url(#clip0_1072_855)">
<path d="M55.98 28.477C55.9666 28.4837 55.9532 28.4837 55.9399 28.4837C39.9599 28.4837 23.9799 28.4837 8 28.4837V19H56V28.4703L55.98 28.477Z" fill="#26366F"/>
<path d="M8.41431 28.076H55.5989V19.4077C39.9732 19.4144 24.3475 19.4144 8.72175 19.4077C8.61481 19.4077 8.51457 19.4077 8.41431 19.4077C8.421 22.2214 8.421 25.0418 8.41431 27.8555C8.40763 27.929 8.40763 28.0025 8.41431 28.076Z" fill="white"/>
<path d="M8.70178 27.822C8.70178 27.7886 8.70178 27.7552 8.70178 27.7218C8.71515 25.0351 8.70178 22.3483 8.70178 19.6616H55.3183C55.3183 19.7151 55.325 19.7752 55.325 19.8287C55.325 22.482 55.325 25.1286 55.325 27.7819C55.2983 27.8087 55.2582 27.822 55.2248 27.8287L8.70178 27.822ZM8.88223 27.6616H55.178L55.1713 19.802C39.7995 19.802 24.4278 19.8354 9.056 19.802C8.98917 19.802 8.92233 19.802 8.86218 19.8087C8.86218 22.3951 8.87555 24.9883 8.8555 27.5747C8.84882 27.6082 8.8555 27.6416 8.88223 27.6616Z" fill="#26366F"/>
<path d="M50.1521 26.5054C49.9583 26.5121 49.7578 26.5054 49.5639 26.4987C49.5572 25.4895 49.5639 24.4737 49.5573 23.4645C49.5573 23.4311 49.5572 23.3976 49.5639 23.3642L50.2589 23.3575C50.2589 24.3534 50.2656 25.3425 50.2589 26.3317C50.2589 26.3851 50.259 26.4453 50.2523 26.4987C50.2122 26.5054 50.1788 26.5054 50.1521 26.5054Z" fill="#E04918"/>
<path d="M53.066 21.2322C52.9925 21.1854 52.9323 21.1186 52.8922 21.0451C52.8254 21.1119 52.7585 21.172 52.685 21.2322C52.6449 21.2656 52.6516 21.2055 52.6783 21.1654L52.9189 20.7911C53.0259 20.7978 52.9925 20.751 53.1194 20.8111C53.2665 20.878 53.2598 20.9849 53.2264 21.1186C53.2063 21.1787 53.1529 21.2255 53.0927 21.2456L53.066 21.2322Z" fill="#26366F"/>
<path d="M42.1119 22.8029C41.9582 22.7895 41.8045 22.7962 41.6775 22.6959C41.5906 22.6224 41.5372 22.5155 41.5238 22.4019C41.5238 22.1947 41.5572 21.9875 41.6241 21.7937C41.6307 21.7603 41.6642 21.8471 41.6708 21.8739C41.6909 22.0276 41.7377 22.1746 41.8045 22.3083C41.9315 22.3618 42.0652 22.3885 42.2055 22.3952C42.6065 22.4019 43.1011 22.3818 43.4085 22.0877L43.3083 21.8471L43.4887 21.4127C43.6892 21.6667 43.7159 22.0276 43.5489 22.3083C43.2682 22.7962 42.6132 22.8496 42.1119 22.8029Z" fill="#26366F"/>
<path d="M44.1838 22.0743C44.1772 21.807 44.1772 21.5396 44.1838 21.2656L44.4645 20.9983L44.4712 21.9473L44.1905 22.1746C44.1838 22.1412 44.1838 22.1077 44.1838 22.0743Z" fill="#26366F"/>
<path d="M42.7335 21.0518C42.5931 21.0585 42.4594 21.0585 42.3191 21.0518L42.4862 20.8046L42.9005 20.8112L42.7802 21.0518H42.7335Z" fill="#26366F"/>
<path d="M47.0242 22.8563C47.0242 22.2615 47.0242 21.6667 47.0242 21.0719C47.0242 21.0451 47.0309 21.0184 47.0442 20.9983L47.2447 20.8513L47.2514 22.4486C47.4853 22.5021 47.6992 22.442 47.9064 22.3283C47.8529 22.1746 47.8061 22.0944 47.8596 21.934C47.8863 21.8538 48.0133 21.787 48.0935 21.7803C48.1804 21.7736 48.3207 21.7669 48.3876 21.8271C48.5079 21.9407 48.4678 22.1613 48.4009 22.2882C48.5747 22.3083 48.7418 22.2816 48.9089 22.2281C48.9356 22.2147 48.9624 22.2014 48.9891 22.188C48.9624 22.1078 48.949 22.0209 48.9623 21.934C48.9623 21.8806 49.0024 21.8271 49.0492 21.807C49.1628 21.7669 49.2832 21.7736 49.3901 21.8338C49.4235 21.8605 49.4436 21.8939 49.4502 21.934C49.4703 22.0075 49.5037 22.041 49.4837 22.1278C49.477 22.1613 49.4569 22.1947 49.4369 22.2214C49.2364 22.5021 48.5146 22.6759 48.1871 22.716C48.1537 22.7227 48.1269 22.7227 48.0935 22.716L48.0133 22.6157C47.8395 22.7093 47.6591 22.7895 47.472 22.8496C47.3249 22.8831 47.1712 22.8897 47.0242 22.8563Z" fill="#26366F"/>
<path d="M43.2147 22.9031C43.1679 22.9031 43.1278 22.8764 43.1679 22.8563C43.8697 22.5823 44.5247 22.2014 44.9992 21.5932C45.1061 21.4461 45.1796 21.2857 45.2331 21.112C45.2933 21.0719 45.3534 21.0384 45.4136 21.0117L45.5205 20.985V22.3818C45.6207 22.4219 45.7344 22.4353 45.8413 22.4152C45.9883 22.3885 46.122 22.335 46.249 22.2548C46.2423 22.1278 46.2958 21.9407 46.4161 21.8806C46.4294 21.8739 46.4495 21.8672 46.4628 21.8605C46.543 21.8538 46.6299 21.8672 46.7034 21.9073C46.8171 21.9741 46.8037 22.1078 46.7636 22.2147C46.67 22.4687 46.1354 22.6892 45.8881 22.7628C45.6809 22.8229 45.4737 22.8563 45.2598 22.8563C45.2598 22.5021 45.2598 22.1412 45.2598 21.787C45.2598 21.7202 45.2598 21.6466 45.2197 21.7068C44.9123 22.1479 44.5714 22.5355 44.0702 22.7494C43.7962 22.863 43.5088 22.9165 43.2147 22.9031Z" fill="#26366F"/>
<path d="M22.7435 26.4453C22.7903 26.1044 22.7636 25.7502 22.6633 25.4227C22.6165 25.2556 22.5497 25.0952 22.4628 24.9415C22.1955 24.467 21.8145 24.066 21.3534 23.7719C20.8655 23.4511 20.3709 23.3041 19.8697 23.0434C19.589 22.8897 19.3216 22.7093 19.081 22.4954L18.7669 22.7494C19.0877 22.883 19.4085 23.0167 19.7226 23.1704C20.3776 23.4845 20.9657 23.9524 21.3534 24.5606C21.6408 25.0084 21.8079 25.5163 21.8413 26.0443C21.848 26.1579 21.8413 26.2715 21.8145 26.3784L21.8012 26.4453C21.2665 26.4052 20.6917 26.4453 20.1571 26.4386C20.264 25.7636 20.0368 25.0952 19.6291 24.5606C19.1813 23.9724 18.5263 23.5647 17.8513 23.2907C17.8246 23.284 17.8045 23.2774 17.7778 23.2707L17.5104 23.391C18.3525 23.9056 19.0409 24.7143 19.208 25.7101C19.2615 25.9507 19.2548 26.2047 19.2013 26.4453C17.858 26.4119 16.5013 26.4453 15.1512 26.4453C15.1312 26.218 15.0844 26.0911 15.1111 25.8505C15.2314 24.8079 15.8997 23.9123 16.7953 23.3843L16.5347 23.2774C15.7928 23.5714 15.1913 23.9724 14.7101 24.6073C14.5096 24.8814 14.3693 25.1888 14.2891 25.5163C14.2155 25.817 14.2222 26.1378 14.249 26.4453C13.7611 26.4185 13.2665 26.4185 12.7786 26.4453C12.7452 26.4453 12.7118 26.4453 12.6717 26.4386C12.5647 25.7368 12.7586 25.0485 13.1529 24.467C13.5271 23.8989 14.0952 23.4779 14.6967 23.1771C14.9908 23.0301 15.2916 22.9165 15.5923 22.7828L15.2582 22.5155C15.0242 22.716 14.7769 22.8897 14.5029 23.0434C14.0551 23.2774 13.6073 23.4177 13.1662 23.6784C12.5247 24.0593 11.9833 24.6608 11.7627 25.3759C11.6491 25.7101 11.6291 26.0643 11.6959 26.4119C11.6424 26.4319 11.589 26.4386 11.5355 26.4453C11.061 26.4252 10.5731 26.4252 10.0919 26.4453C9.99165 26.1044 10.0451 25.7168 10.132 25.3759C10.3459 24.5539 10.9607 23.8521 11.6759 23.411C12.0969 23.1504 12.5714 22.99 13.0125 22.7694C13.487 22.5355 13.9616 22.1546 14.2222 21.6934C14.3358 21.5063 14.4094 21.2924 14.4294 21.0718C14.4361 21.0451 14.4428 21.0117 14.4628 20.985H14.7703C14.8104 21.3793 14.9774 21.7469 15.2515 22.0276C15.5188 21.7402 15.6859 21.3793 15.726 20.985L16.0401 20.9783C16.0936 21.3793 16.2673 21.7535 16.5414 22.0543C16.675 21.9206 16.782 21.7602 16.8688 21.5931C16.9758 21.3525 16.9891 21.2256 17.0493 20.985H17.3701C17.4102 21.3726 17.5773 21.7402 17.8379 22.0276C18.0852 21.7268 18.2723 21.3793 18.3124 20.9916H18.6333C18.6667 21.3659 18.8271 21.7201 19.081 22.0008C19.3283 21.7134 19.482 21.3592 19.5221 20.985H19.8363C19.9031 21.5196 20.1905 21.9741 20.6048 22.315C20.8053 22.482 21.0192 22.6358 21.2531 22.7561C21.741 23.01 22.2155 23.1504 22.6901 23.4578C23.4185 23.919 24.0134 24.6341 24.2339 25.4762C24.2874 25.6967 24.3208 25.9173 24.3275 26.1445C24.3275 26.2448 24.3141 26.3517 24.2874 26.452C23.7661 26.4185 23.2515 26.4386 22.7435 26.4453ZM16.548 22.9231L16.8555 22.7761L16.5614 22.5422L16.2473 22.7895C16.3475 22.8296 16.4478 22.8764 16.548 22.9231ZM17.7577 22.8897L17.7912 22.9031C17.9048 22.8496 18.0117 22.8028 18.1186 22.7427L17.8379 22.5088L17.5038 22.7761C17.5907 22.8095 17.6775 22.8496 17.7577 22.8897ZM17.1362 23.1771C17.2231 23.1838 17.3033 23.117 17.3768 23.0702L17.1763 22.99L16.9691 23.0969C17.0226 23.1303 17.076 23.1571 17.1362 23.1771ZM23.0977 26.1044L23.9733 26.0977C23.9733 26.0643 23.9733 26.0309 23.9733 25.9975C23.9599 25.7368 23.8998 25.4762 23.7995 25.2289C23.5322 24.5672 23.0109 24.0326 22.396 23.665C21.9549 23.4043 21.5004 23.264 21.0593 23.0301C20.4779 22.7293 19.9766 22.2615 19.6825 21.6733C19.5823 21.8738 19.4553 22.0677 19.315 22.2481C19.5221 22.4353 19.7561 22.5957 20.0033 22.7293C20.4779 22.9766 20.9858 23.1437 21.4403 23.4311C21.741 23.6249 22.015 23.8521 22.2556 24.1061C22.7435 24.6341 23.1111 25.3759 23.0977 26.1044ZM18.4328 22.5355L18.4595 22.5556L18.8471 22.2481C18.7068 22.0743 18.5798 21.8805 18.4795 21.6867C18.3793 21.8939 18.2456 22.0944 18.0919 22.2682C18.1921 22.3617 18.3124 22.4486 18.4328 22.5355ZM16.802 22.2949L17.1896 22.5756C17.3367 22.482 17.4703 22.3818 17.5973 22.2615C17.4436 22.081 17.3166 21.8805 17.2164 21.6667C17.1028 21.8939 16.9624 22.1078 16.802 22.2949ZM20.518 26.1044L21.5205 26.0977C21.5138 25.9507 21.4937 25.8037 21.467 25.6633C21.4269 25.4628 21.3668 25.269 21.2732 25.0886C20.9457 24.4269 20.411 23.939 19.7761 23.5781C19.3551 23.3375 18.8739 23.2105 18.4595 22.9566L18.2389 23.0835C18.5664 23.2506 18.8872 23.4444 19.188 23.6516C19.8964 24.1796 20.5581 25.1754 20.518 26.1044ZM15.8931 22.5823L15.9131 22.5957L16.3074 22.3016C16.147 22.1145 16.0067 21.9139 15.8931 21.7001C15.7795 21.9073 15.6525 22.1011 15.4988 22.2815C15.6324 22.3885 15.7594 22.4887 15.8931 22.5823ZM11.2548 26.0977H11.3216C11.3216 25.8839 11.3484 25.6767 11.3952 25.4695C11.5823 24.6408 12.1704 23.9123 12.8789 23.4578C13.3734 23.1437 13.8613 22.99 14.3626 22.7226C14.5965 22.5957 14.817 22.4419 15.0175 22.2682C14.8572 22.0877 14.7235 21.8872 14.6232 21.6667C14.3225 22.2882 13.7811 22.7627 13.1729 23.0702C12.7118 23.3041 12.2774 23.4378 11.8296 23.7185C11.6224 23.8521 11.4286 23.9992 11.2481 24.1729C10.7469 24.6608 10.3793 25.3292 10.386 26.0443C10.386 26.0643 10.3926 26.0844 10.3993 26.1044C10.6867 26.0977 10.9674 26.0977 11.2548 26.0977ZM12.9858 26.0977L13.9014 26.0911C13.9014 25.7636 13.9549 25.4361 14.0685 25.1287C14.4762 24.1462 15.1579 23.5046 16.1404 23.0902C16.0602 23.0702 15.9866 23.0301 15.9265 22.9766C15.4987 23.2239 15.0309 23.3576 14.6032 23.6048C14.4094 23.7185 14.2222 23.8454 14.0485 23.9858C13.4403 24.467 12.9323 25.3024 12.9858 26.0977ZM15.4587 26.0977H18.914C18.9073 25.8972 18.8805 25.7034 18.8204 25.5163C18.5731 24.6675 17.9315 23.9657 17.1495 23.5647C16.8488 23.7318 16.5681 23.9323 16.3141 24.1662C15.8129 24.6541 15.4052 25.3826 15.4587 26.0977Z" fill="#26366F"/>
<path d="M50.3391 22.7226C50.2055 22.609 50.0718 22.4419 50.0852 22.2615C50.0985 22.0476 50.2121 21.8271 50.3391 21.66C50.4193 21.553 50.5196 21.4595 50.6265 21.386C50.7334 21.3124 50.8404 21.2523 50.9607 21.1988C51.0008 21.1921 51.0476 21.1855 51.0877 21.1788C51.2347 21.3659 51.2815 21.6065 51.2213 21.8337C51.1679 22.0142 50.9807 22.0744 50.8203 22.1011C50.7802 22.1078 50.7334 22.1078 50.6933 22.1078V21.8137C50.7669 21.8137 50.8404 21.8137 50.9206 21.807C51.0609 21.7535 50.9807 21.5798 50.9206 21.4929C50.827 21.5464 50.2589 21.934 50.3057 22.0743C50.299 22.2281 50.4527 22.3751 50.5864 22.4286C50.9406 22.5756 51.6424 22.2882 51.9231 22.0677L51.9298 21.1253C51.9966 21.0518 52.0768 20.985 52.157 20.9248V22.4152C52.3508 22.5021 52.5446 22.4486 52.705 22.3283C52.6984 22.1679 52.6716 22.0543 52.7786 21.9273C52.8588 21.8271 52.9924 21.7803 53.1194 21.807L53.1662 21.8137C53.3667 21.8939 53.233 22.1947 53.1662 22.315C53.3333 22.3551 53.3934 22.3617 53.5538 22.2882C53.6674 22.2348 53.7677 22.1479 53.8345 22.0409L53.7009 21.8538L53.9214 21.4929C54.015 21.6132 54.0283 21.7803 54.035 21.9273C54.0217 22.0409 53.9949 22.1546 53.9415 22.2615C53.7343 22.5957 53.3065 22.6825 52.939 22.716L52.832 22.609C52.5781 22.7494 52.3107 22.8563 52.0167 22.8363C51.9832 22.8296 51.9431 22.8162 51.9164 22.8028V22.3684C51.5822 22.6157 51.1946 22.8363 50.7735 22.8697C50.6131 22.863 50.4594 22.8162 50.3391 22.7226Z" fill="#26366F"/>
<path d="M32.0468 26.5121C32.0335 26.4853 32.0268 26.4519 32.0268 26.4252C32.0268 25.9974 32.0402 25.563 32.0067 25.1353C32.0001 25.0618 31.9733 24.9949 31.9265 24.9415C31.8263 24.8412 31.6726 24.8145 31.5389 24.8746C31.4387 24.9281 31.3651 25.0217 31.3518 25.1353C31.3117 25.5563 31.3384 26.0776 31.3451 26.5121H30.6433C30.6433 25.7836 30.6634 25.0551 30.6233 24.3266H31.2181L31.2515 24.5338C31.2515 24.5538 31.2849 24.5538 31.305 24.5672C31.5122 24.3132 31.8597 24.2397 32.1672 24.3066C32.2741 24.3333 32.3743 24.3868 32.4545 24.4603C32.5548 24.5605 32.6951 24.7944 32.7018 24.9415C32.7286 25.4628 32.7152 25.9841 32.7085 26.5121H32.0468Z" fill="#26366F"/>
<path d="M53.5471 23.1971L53.34 23.0501C53.4001 22.9365 53.4736 22.8295 53.5471 22.7226C53.5605 22.7092 53.5806 22.7427 53.5939 22.7493C53.6608 22.7894 53.7276 22.8295 53.7878 22.883L53.5806 23.2172L53.5471 23.1971Z" fill="#26366F"/>
<path d="M39.051 26.5055C38.8572 26.5122 38.6567 26.5122 38.4628 26.4988C38.4294 25.777 38.396 25.0619 38.396 24.3401C38.396 24.32 38.3492 24.3534 38.3292 24.3601C38.1487 25.0351 37.9282 25.7168 37.721 26.3785C37.7143 26.4052 37.6943 26.432 37.6809 26.452C37.5138 26.4654 37.3534 26.4654 37.1863 26.452C37.1663 26.4386 37.1462 26.4253 37.1395 26.4052C36.9457 25.7168 36.7653 25.0151 36.5714 24.32C36.5648 24.2866 36.538 24.3802 36.538 24.4136C36.538 24.4737 36.5514 24.5339 36.5447 24.6074C36.5247 25.1955 36.4979 25.7903 36.4712 26.3785C36.4645 26.4186 36.4511 26.4587 36.4378 26.4988L35.8296 26.5122C35.8897 25.5163 35.9432 24.5272 36.0234 23.5314C36.3108 23.518 36.6049 23.518 36.8922 23.5314C36.919 23.5447 36.939 23.5715 36.9524 23.5982C37.1262 24.2398 37.3333 24.8747 37.4603 25.523C37.6608 24.8547 37.8547 24.1997 38.0552 23.5314C38.3559 23.5113 38.6633 23.5046 38.9641 23.5247C38.9908 24.5071 39.0643 25.503 39.1111 26.4921L39.051 26.5055Z" fill="#E04918"/>
<path d="M42.2523 26.5589C42.0318 26.5455 41.8647 26.4386 41.7176 26.2849C41.6508 26.2114 41.6107 26.051 41.6107 25.9507C41.5973 25.8037 41.6241 25.6566 41.6775 25.523C41.7511 25.3559 42.0384 25.1888 42.2055 25.1353C42.4127 25.0886 42.6199 25.0618 42.8271 25.0618C42.8672 25.015 42.8739 24.9482 42.8338 24.9014C42.7803 24.8413 42.7135 24.7945 42.6333 24.7744C42.5196 24.7678 42.4127 24.7678 42.2991 24.7811C42.1454 24.8012 42.005 24.8546 41.8714 24.9348L41.7511 24.4871C41.8513 24.4336 41.9516 24.3935 42.0585 24.3601C42.1053 24.3467 42.3993 24.2932 42.4394 24.2932C42.7402 24.2799 43.0677 24.3133 43.3016 24.5138C43.4821 24.6608 43.5489 24.9215 43.5556 25.142C43.5689 25.5965 43.5489 26.051 43.5756 26.5054C43.3885 26.5121 43.2013 26.5121 43.0142 26.5054C42.9407 26.4787 42.9474 26.3651 42.9407 26.3116C42.7602 26.4787 42.513 26.5723 42.2523 26.5589ZM42.4461 26.0577C42.6199 26.0978 42.7937 26.0109 42.8672 25.8505C42.8939 25.7569 42.9006 25.6566 42.8872 25.5631C42.8805 25.543 42.9006 25.5029 42.8739 25.4962C42.7001 25.4762 42.3726 25.5029 42.3058 25.7034C42.2657 25.817 42.259 25.8906 42.3459 25.9908C42.3726 26.0242 42.406 26.051 42.4461 26.0577Z" fill="#E04918"/>
<path d="M26.4662 26.5389C26.3326 26.5322 26.2056 26.5188 26.0719 26.4921V23.5514C26.6199 23.4645 27.5222 23.4044 27.9833 23.7586C28.2239 23.9457 28.2574 24.3066 28.1304 24.5673C28.0635 24.7076 27.8898 24.8279 27.7561 24.9014C28.0769 24.9883 28.3041 25.2824 28.2975 25.6233C28.3108 26.2314 27.7628 26.5121 27.2214 26.5389C26.9808 26.5456 26.7202 26.5456 26.4662 26.5389ZM26.7737 24.6809C26.9274 24.7009 27.0811 24.6943 27.2348 24.6608C27.3484 24.6408 27.442 24.5673 27.4955 24.467C27.5289 24.3801 27.5289 24.1997 27.4487 24.1329C27.2549 23.9725 27.0076 23.9858 26.7737 24.0259C26.767 24.2398 26.767 24.4603 26.7737 24.6809ZM26.7737 26.0109C26.9274 26.0443 27.0878 26.0443 27.2348 26.0042C27.3618 25.9842 27.4687 25.9106 27.5422 25.8037C27.6024 25.7235 27.6091 25.503 27.5489 25.4228C27.3685 25.1821 27.0477 25.1821 26.7737 25.2022C26.767 25.4695 26.767 25.7436 26.7737 26.0109Z" fill="#26366F"/>
<path d="M34.3793 26.5121C34.2122 26.2247 34.0384 25.9374 33.8713 25.65C33.7911 25.6968 33.7377 25.7703 33.7109 25.8572C33.6842 26.071 33.7109 26.2983 33.7109 26.5188H33.0159C33.0226 25.5029 33.0159 24.4871 33.0159 23.4712C33.0159 23.4378 33.0159 23.3977 33.0159 23.3643H33.6976C33.6976 23.4044 33.7043 23.4378 33.7043 23.4779C33.6976 24.0192 33.7043 24.5606 33.6976 25.1019C33.6976 25.1688 33.6976 25.2423 33.731 25.1888C33.8981 24.9148 34.0718 24.6475 34.259 24.3868C34.2723 24.3668 34.2924 24.3534 34.3124 24.3467L35.1278 24.3333L34.3459 25.2222L35.2414 26.5121H34.3793Z" fill="#26366F"/>
<path d="M28.8588 26.5322C28.645 26.4654 28.4846 26.2983 28.411 26.0911C28.3843 25.9507 28.3843 25.8037 28.411 25.6567C28.6115 25.1621 29.1328 25.0351 29.6207 25.0552C29.6341 25.0351 29.6408 25.0084 29.6541 24.9883C29.6608 24.9215 29.5873 24.8413 29.5272 24.8146C29.2598 24.6943 28.9123 24.7812 28.665 24.9282C28.6316 24.8012 28.5915 24.6876 28.5581 24.5606C28.5514 24.5339 28.5447 24.5004 28.5514 24.4737C28.8989 24.2933 29.2932 24.2398 29.6742 24.3066C29.9683 24.3601 30.2289 24.5606 30.3091 24.848C30.4294 25.3091 30.3425 26.0042 30.3826 26.5121H29.7611L29.721 26.3116C29.6207 26.4186 29.4871 26.4988 29.34 26.5389C29.1796 26.5723 29.0125 26.5723 28.8588 26.5322ZM29.1395 26.0042C29.1997 26.051 29.3534 26.0978 29.4336 26.0443C29.5071 26.0109 29.6341 25.9307 29.6541 25.8505C29.6742 25.7569 29.6876 25.6567 29.6809 25.5631C29.6742 25.5364 29.6942 25.4963 29.6742 25.4963C29.4804 25.4829 29.193 25.5096 29.0927 25.7101C29.0393 25.8104 29.0593 25.9307 29.1395 26.0042Z" fill="#26366F"/>
<path d="M47.8061 26.5456C47.639 26.5055 47.4185 26.3518 47.365 26.1847C47.2781 25.8973 47.2514 25.7369 47.4118 25.4696C47.492 25.3693 47.5923 25.2891 47.7059 25.2223C47.9665 25.102 48.2539 25.0485 48.5413 25.0619C48.5614 25.0017 48.5547 24.9349 48.5279 24.8747C48.2673 24.6542 47.8395 24.7878 47.5722 24.9215L47.4452 24.4804C47.7794 24.3267 48.1537 24.2665 48.5213 24.3C48.6015 24.3133 48.6817 24.3267 48.7619 24.3534C48.8487 24.3935 48.9289 24.4403 49.0091 24.5005C49.0893 24.5873 49.1495 24.6876 49.1963 24.7945C49.223 24.8881 49.2431 24.9817 49.2564 25.0819C49.2564 25.4629 49.203 26.1513 49.2965 26.4921C49.1027 26.4988 48.9089 26.5055 48.7151 26.4988C48.6616 26.4386 48.6282 26.3651 48.6148 26.2849C48.5012 26.4386 48.4477 26.4386 48.2873 26.5188C48.2005 26.5656 47.893 26.5656 47.8061 26.5456ZM48.1403 26.0577C48.2071 26.0644 48.2673 26.0644 48.3341 26.0644C48.441 26.031 48.5212 25.9574 48.568 25.8572C48.5948 25.7436 48.5948 25.6233 48.5814 25.5097C48.4811 25.4896 48.3809 25.4963 48.2873 25.523C48.1604 25.5564 47.9732 25.6567 47.9799 25.8104C47.9732 25.904 48.0334 26.031 48.1403 26.0577Z" fill="#E04918"/>
<path d="M53.1595 26.5322C53.0459 26.4854 52.9457 26.4186 52.8654 26.3317C52.7719 26.1913 52.7184 26.0242 52.7184 25.8505C52.6984 25.523 52.7184 25.1888 52.7184 24.8546L52.431 24.8212V24.3333H52.7117C52.7184 24.2197 52.7184 24.0994 52.7184 23.9858C52.7184 23.9591 52.7585 23.9257 52.7786 23.9123C52.9189 23.8588 53.0659 23.8254 53.2063 23.7853C53.2598 23.7719 53.3199 23.7653 53.3734 23.7653L53.3868 24.3333L53.8813 24.34V24.8212C53.7744 24.8546 53.6608 24.8546 53.5472 24.8346C53.487 24.8279 53.4335 24.8413 53.3801 24.8747C53.3734 25.2022 53.3868 25.523 53.4068 25.8438C53.5472 26.0109 53.6541 26.0042 53.8546 25.9507C53.8412 26.1245 53.8412 26.2916 53.8412 26.4587C53.8212 26.4854 53.8212 26.4988 53.7744 26.5121C53.5806 26.5589 53.3667 26.5656 53.1595 26.5322Z" fill="#E04918"/>
<path d="M39.8864 26.5254C39.6926 26.4653 39.6258 26.3984 39.5122 26.238C39.4587 26.1111 39.4186 25.9841 39.3852 25.8571C39.3718 25.3558 39.3785 24.8479 39.3785 24.3466L40.0602 24.34C40.0602 24.7944 40.0468 25.2556 40.0803 25.7101C40.0869 25.8036 40.1337 25.8972 40.2139 25.9507C40.381 26.0309 40.5748 25.9908 40.6951 25.8571C40.6951 25.8504 40.7285 25.7702 40.7285 25.7635C40.7686 25.3024 40.7486 24.8278 40.7486 24.36C40.9825 24.34 41.2164 24.34 41.4503 24.3533L41.457 26.5187H40.8689L40.8555 26.2113C40.6149 26.5187 40.2674 26.6257 39.8864 26.5254Z" fill="#E04918"/>
<path d="M50.8672 26.5322C50.8004 26.5121 50.7335 26.4787 50.6734 26.4319C50.4395 26.2649 50.3726 25.9775 50.4194 25.7101C50.4595 25.5297 50.5664 25.376 50.7202 25.2757C50.8405 25.2089 50.9674 25.1554 51.1011 25.1153C51.2816 25.0819 51.462 25.0685 51.6425 25.0685C51.6759 24.9816 51.6491 24.8814 51.5756 24.8212C51.5155 24.7945 51.4486 24.7745 51.3818 24.7678C51.1345 24.7477 50.8872 24.8012 50.6734 24.9148L50.5531 24.4804C50.8672 24.3066 51.2214 24.2732 51.5756 24.2933C51.5823 24.2933 51.8497 24.3467 51.863 24.3534C52.0635 24.4336 52.2239 24.594 52.3041 24.7945C52.3375 24.9215 52.3576 25.0485 52.3643 25.1755C52.3643 25.6166 52.3442 26.0644 52.3843 26.4988C52.1972 26.5121 52.0034 26.5121 51.8162 26.4854C51.7494 26.472 51.736 26.3183 51.736 26.2715C51.5422 26.5723 51.1813 26.579 50.8672 26.5322ZM51.2481 26.0577C51.3083 26.071 51.3751 26.071 51.442 26.051C51.7227 25.9775 51.7093 25.7302 51.6959 25.4963C51.5155 25.4628 51.2014 25.5096 51.1212 25.7035C51.0944 25.7636 51.0877 25.8304 51.1078 25.8973C51.1212 25.9775 51.1746 26.0309 51.2481 26.0577Z" fill="#E04918"/>
<path d="M47.0375 26.5121C46.8504 26.5121 46.6633 26.5121 46.4828 26.5054C46.4761 26.051 46.4962 25.5898 46.4561 25.1353C46.4427 24.9816 46.3291 24.8613 46.1754 24.8346C46.0217 24.8145 45.8412 24.995 45.8345 25.1353C45.8011 25.5898 45.8212 26.051 45.8212 26.5054H45.1528C45.1528 26.051 45.1662 25.5965 45.1528 25.1353C45.1194 25.0485 45.0793 24.9683 45.0325 24.8947C44.9858 24.8747 44.9323 24.8546 44.8855 24.8413C44.8053 24.8546 44.6984 24.8747 44.6382 24.9415C44.5981 25.0084 44.558 25.0752 44.5246 25.142C44.5179 25.6032 44.5313 26.0643 44.5179 26.5188L43.8696 26.5255C43.8629 26.4787 43.8629 26.4319 43.8629 26.3851C43.8696 25.7101 43.883 25.0284 43.8429 24.3534H44.411C44.4243 24.4403 44.431 24.5205 44.431 24.6074C44.431 24.6341 44.4845 24.5873 44.4979 24.5673C44.6917 24.3534 44.8855 24.2932 45.1662 24.2999C45.4202 24.3066 45.5739 24.447 45.7142 24.6408C45.8011 24.5338 45.9081 24.4403 46.0284 24.3734C46.1086 24.3467 46.1888 24.32 46.269 24.3066C46.4494 24.2866 46.6299 24.32 46.7969 24.4002C46.964 24.4871 47.091 24.7744 47.1111 24.9549C47.1578 25.3893 47.1445 25.944 47.1378 26.3918C47.1311 26.4386 47.1177 26.4787 47.0977 26.5255L47.0375 26.5121Z" fill="#E04918"/>
</g>
<defs>
<clipPath id="clip0_1072_855">
<rect width="48" height="10" fill="white" transform="translate(8 19)"/>
</clipPath>
</defs>
</svg>