<svg width="38" height="24" viewBox="0 0 64 48" fill="none" xmlns="http://www.w3.org/2000/svg">
<path fill-rule="evenodd" clip-rule="evenodd" d="M43.8189 25.0182C43.8189 24.511 43.5043 24.003 42.9004 23.8823V23.858C43.3839 23.6886 43.722 23.2295 43.722 22.7461C43.722 21.9243 43.0935 21.4892 41.9819 21.4892C41.3295 21.4892 40.6527 21.4892 40.2179 21.5133V26.5649C40.8703 26.5649 41.4261 26.5889 41.7402 26.5889C43.3112 26.5892 43.8189 25.743 43.8189 25.0182ZM42.6587 22.8911C42.6587 23.3505 42.3201 23.6163 41.619 23.6163H41.2328V22.287C41.4018 22.287 41.5949 22.2627 41.8126 22.2627C42.4411 22.263 42.6587 22.5287 42.6587 22.8911ZM42.7554 25.0422C42.7554 25.5016 42.4173 25.7917 41.7643 25.7917C41.5466 25.7917 41.3535 25.7676 41.2331 25.7676V24.3411H41.6679C42.3201 24.3411 42.7554 24.5348 42.7554 25.0422ZM47.4924 26.5651C47.4683 26.2751 47.4683 25.9121 47.4683 25.6226V24.0516C47.4683 23.2538 47.1062 22.7704 45.8974 22.7704C45.3902 22.7704 44.9062 22.8671 44.5195 22.9878L44.6164 23.8096C44.9305 23.6163 45.3899 23.5196 45.728 23.5196C46.2838 23.5196 46.4769 23.713 46.4769 24.0997V24.2933C45.1722 24.2933 44.2775 24.7768 44.2775 25.6707C44.2775 26.2751 44.6642 26.6378 45.3651 26.6378C45.9454 26.6378 46.4043 26.3477 46.5979 25.937C46.5739 26.1301 46.5493 26.3477 46.5493 26.5654L47.4924 26.5651ZM46.4772 25.0182C46.4772 25.4535 46.1391 25.9121 45.6557 25.9121C45.3899 25.9121 45.2203 25.7676 45.2203 25.5259C45.2203 25.2113 45.438 24.9215 46.4772 24.9215V25.0182ZM51.6978 26.5651V23.9547C51.6978 23.3022 51.4321 22.7704 50.5622 22.7704C49.9338 22.7704 49.4984 23.0845 49.257 23.5196C49.3056 23.3022 49.3056 23.0121 49.3056 22.8428H48.3871V26.5649H49.3537V24.7762C49.3537 24.1235 49.7644 23.5677 50.2481 23.5677C50.6103 23.5677 50.7316 23.8094 50.7316 24.1964V26.5649L51.6978 26.5651ZM56 26.5651L54.5741 24.5588L55.9033 22.8431H54.6948L53.5829 24.3897V21.1028H52.6163V26.5651H53.5829V24.7279L54.7671 26.5651H56ZM24.6526 23.9547C24.6526 22.1903 23.565 21.4169 22.1388 21.4169C20.6405 21.4169 19.4319 22.4561 19.4319 24.0994C19.4319 25.695 20.2535 26.6615 21.9454 26.6615C23.444 26.6618 24.6526 25.6226 24.6526 23.9547ZM23.3233 24.0516C23.3233 25.1872 22.6225 25.598 22.0181 25.598C21.1479 25.598 20.7612 24.9942 20.7612 24.003C20.7612 22.9638 21.3896 22.4804 22.0421 22.4804C22.8639 22.4804 23.3233 23.0121 23.3233 24.0516ZM29.0755 26.4441L28.9304 25.4049C28.6644 25.5016 28.2537 25.574 27.9636 25.574C26.9727 25.574 26.5377 25.0182 26.5377 24.027C26.5377 23.1088 27.0211 22.5287 27.9153 22.5287C28.2537 22.5287 28.592 22.5771 28.9061 22.6737L29.0512 21.6102C28.713 21.5135 28.302 21.4895 27.9396 21.4895C26.1269 21.4895 25.16 22.5771 25.16 24.2207C25.16 25.3809 25.7158 26.6378 27.7219 26.6378C28.1813 26.6378 28.6647 26.5651 29.0755 26.4441ZM33.8853 24.9942C33.8853 24.4864 33.5467 24.003 32.9909 23.8823V23.858C33.4743 23.6646 33.7884 23.2295 33.7884 22.7704C33.7884 21.9246 33.0876 21.4895 31.9033 21.4895C31.2265 21.4895 30.405 21.4895 29.8973 21.5135V26.5651C30.6948 26.5651 31.2992 26.5892 31.6373 26.5892C33.2326 26.5892 33.8853 25.7917 33.8853 24.9942ZM32.4597 22.9398C32.4597 23.3265 32.145 23.5439 31.5409 23.5439H31.1785V22.432H31.6859C32.2174 22.432 32.4597 22.6254 32.4597 22.9398ZM32.5315 25.0182C32.5315 25.4049 32.2174 25.6466 31.6616 25.6466C31.4683 25.6466 31.2749 25.6226 31.1782 25.6226V24.4138H31.589C32.1693 24.4138 32.5315 24.6074 32.5315 25.0182ZM38.3325 26.4441L38.1875 25.4049C37.9212 25.5016 37.5104 25.574 37.245 25.574C36.2538 25.574 35.8185 25.0182 35.8185 24.027C35.8185 23.1088 36.3022 22.5287 37.1723 22.5287C37.5104 22.5287 37.8488 22.5771 38.1629 22.6737L38.308 21.6102C37.9698 21.5135 37.5831 21.4895 37.1964 21.4895C35.3837 21.4895 34.4171 22.5771 34.4171 24.2207C34.4171 25.3809 34.9729 26.6378 36.9787 26.6378C37.4621 26.6378 37.9458 26.5651 38.3325 26.4441ZM11.0939 22.4563L8.99118 21.0547C9.32957 20.5953 9.74034 20.1845 10.2238 19.8705L12.0364 21.7315C11.6737 21.9003 11.3353 22.142 11.0939 22.4563ZM10.5376 23.7856L8.14478 22.8671C8.28981 22.287 8.50748 21.7552 8.82157 21.2721L10.9726 22.6014C10.7312 22.9398 10.5862 23.3505 10.5376 23.7856ZM13.4141 24.8732L10.8279 23.8823C10.9027 23.4872 11.0682 23.115 11.3113 22.7947L13.4141 24.124V24.8732ZM13.4141 24.003L11.408 22.6737C11.6497 22.3837 11.9641 22.1663 12.3265 22.0213L13.4141 23.1088V24.003ZM8.29008 25.719C8.09624 25.1846 7.99806 24.6201 8.00003 24.0516C8.00003 23.713 8.02406 23.3989 8.09671 23.0845L10.5378 23.9547V24.0514C10.5378 24.6312 10.7312 25.187 11.0939 25.6223H11.1179C10.8965 25.2316 10.7799 24.7902 10.7796 24.3411C10.7796 24.2444 10.7796 24.148 10.8036 24.0514L13.4141 24.9693V25.7187L8.29008 25.719ZM8.45941 26.1784C8.43511 26.0817 8.38676 25.9848 8.3387 25.8883H9.86133L10.1273 26.1784H12.3751L11.8917 26.6856H9.11189C9.03924 26.4201 8.7735 26.2024 8.45941 26.1784ZM14.2116 26.2988C14.3821 26.2001 14.5438 26.087 14.695 25.9607C14.7917 25.8881 14.8883 25.7917 14.9607 25.695C15.3475 25.2356 15.5892 24.6798 15.5892 24.0514C15.5892 23.7181 15.5236 23.388 15.3961 23.0801C15.2685 22.7722 15.0816 22.4924 14.8459 22.2568C14.6103 22.0211 14.3305 21.8342 14.0226 21.7066C13.7147 21.5791 13.3846 21.5135 13.0514 21.5135C12.7613 21.5135 12.4712 21.5619 12.2295 21.6586L10.4652 19.7009C11.2507 19.2442 12.1427 19.0025 13.0514 19C13.7154 18.9977 14.3733 19.1267 14.9872 19.3798C15.6012 19.6328 16.159 20.0048 16.6285 20.4744C17.098 20.9439 17.47 21.5018 17.723 22.1157C17.976 22.7297 18.1051 23.3876 18.1027 24.0516C18.1027 26.8309 15.8549 29.1027 13.0514 29.1027C11.6737 29.1027 10.4169 28.5469 9.49836 27.6284H15.6856L15.7339 27.5803L9.2083 27.314L9.15996 27.266H16.0726L16.0966 27.2173L8.87018 26.8792L8.84588 26.8546H11.6497C11.6497 26.8549 13.0754 26.9033 14.2116 26.2988Z" fill="#C82E37"/>
</svg>