<svg width="38" height="24" viewBox="0 0 64 48" fill="none" xmlns="http://www.w3.org/2000/svg">
<g clip-path="url(#clip0_1072_1499)">
<path d="M8.92824 22.9805L11.4487 20.4681L13.9531 22.9725H13.9451L11.4407 25.4849L8.92824 22.9805ZM9.97641 19.7L7.80005 21.8763V22.9725V22.9805V24.0847L9.96841 26.253H12.9209L15.0973 24.0767V22.9805V22.9725V21.8683L12.9289 19.7H9.97641Z" fill="#E30613"/>
<path d="M8.92824 25.6689L11.4487 23.1565L13.9531 25.6609H13.9451L11.4326 28.1733L8.92824 25.6689ZM9.97641 22.3964L7.80005 24.5727V25.6689V25.6769V26.7811L9.96841 28.9495H12.9209L15.0973 26.7731V25.6769V25.6689V24.5647L12.9289 22.3964H9.97641Z" fill="#E30613"/>
<path d="M22.9706 25.5249H21.2343C20.2902 25.5249 20.2742 24.8288 20.2742 24.8288V22.6844H21.2423V24.3567C21.2423 24.3567 21.2423 24.8208 22.1065 24.8208C22.9706 24.8208 22.9706 24.3567 22.9706 24.3567V22.6844H23.9388V24.8208C23.9468 24.8288 23.9308 25.5249 22.9706 25.5249Z" fill="#E30613"/>
<path d="M28.4515 25.5409V22.6844H29.3157V24.8368H31.364V25.5409H28.4515Z" fill="#E30613"/>
<path d="M32.7962 22.6844H31.9401V25.5329H32.7962V22.6844Z" fill="#E30613"/>
<path d="M45.4303 24.3087H44.3821L44.9182 23.3406L45.4303 24.3087ZM43.694 25.5409L44.022 24.9568H45.7823L46.0944 25.5409H47.1826L45.4943 22.6844H44.3661L42.6538 25.5329H43.694V25.5409Z" fill="#E30613"/>
<path d="M47.4867 25.5409V22.6844H48.7589L50.4632 24.8848V22.6844H51.2393V25.5409H49.9751L48.2868 23.3726V25.5409H47.4867Z" fill="#E30613"/>
<path d="M51.8474 25.5409V22.6844H52.6956V23.8846L54.3358 22.6844H55.592L53.8958 23.8606L55.8001 25.5409H54.4799L53.1116 24.2927L52.6956 24.5808V25.5409H51.8474Z" fill="#E30613"/>
<path d="M35.9728 24.5247C35.9728 24.7007 35.8208 24.8368 35.6367 24.8368H34.4125C34.2285 24.8368 34.0765 24.6927 34.0765 24.5167V23.6366C34.0765 23.4605 34.2285 23.3165 34.4125 23.3165H35.6367C35.8208 23.3165 35.9728 23.4525 35.9728 23.6286H36.7329V23.2445C36.7329 22.9164 36.4609 22.6444 36.1328 22.6444H33.9244C33.5964 22.6444 33.3243 22.9164 33.3243 23.2445V24.9168C33.3243 25.2448 33.5964 25.5169 33.9244 25.5169H36.1328C36.4609 25.5169 36.7329 25.2448 36.7329 24.9168V24.5247H35.9728Z" fill="#E30613"/>
<path d="M18.1858 23.4446H17.3296V24.0207H18.6899C18.6899 24.0207 18.9299 23.9887 18.9299 23.7406C18.9299 23.4926 18.6899 23.4446 18.6899 23.4446H18.0258V22.6844H19.0979C19.0979 22.6844 19.8101 22.7004 19.8101 23.7326C19.8101 24.7648 19.0739 24.8288 19.0739 24.8288H17.3296V25.5409H16.4015V22.6844H18.1778V23.4446H18.1858Z" fill="#E30613"/>
<path d="M26.0031 25.5409H24.4508V22.6844L26.0911 22.6764V23.2685H25.2589V23.8446H26.8112C26.8112 23.8446 27.0512 23.8126 27.0512 23.5645C27.0512 23.3165 26.8112 23.2685 26.8112 23.2685H26.0271V22.6844H27.1953C27.1953 22.6844 27.8914 22.5964 27.8914 23.4285C27.8914 23.4285 27.8754 24.0926 27.5633 24.0926C27.5633 24.0926 27.8914 24.1566 27.8914 24.7887C27.8914 24.7887 27.9234 25.5329 27.1953 25.5329H25.9711V24.8848H26.8192C26.8192 24.8848 27.0592 24.8528 27.0592 24.6047C27.0592 24.3567 26.8192 24.3087 26.8192 24.3087H25.2589V24.8848H26.0031V25.5409Z" fill="#E30613"/>
<path d="M40.5496 25.5409H38.9973V22.6844L40.6376 22.6764V23.2685H39.8054V23.8446H41.3577C41.3577 23.8446 41.5977 23.8126 41.5977 23.5645C41.5977 23.3165 41.3577 23.2685 41.3577 23.2685H40.5736V22.6844H41.7418C41.7418 22.6844 42.4379 22.5964 42.4379 23.4285C42.4379 23.4285 42.4219 24.0926 42.1098 24.0926C42.1098 24.0926 42.4379 24.1566 42.4379 24.7887C42.4379 24.7887 42.4699 25.5329 41.7418 25.5329H40.5176V24.8848H41.3657C41.3657 24.8848 41.6057 24.8528 41.6057 24.6047C41.6057 24.3567 41.3657 24.3087 41.3657 24.3087H39.8134V24.8848H40.5576V25.5409H40.5496Z" fill="#E30613"/>
</g>
<defs>
<clipPath id="clip0_1072_1499">
<rect width="49" height="10" fill="white" transform="translate(7 19)"/>
</clipPath>
</defs>
</svg>