<svg width="38" height="24" viewBox="0 0 64 48" fill="none" xmlns="http://www.w3.org/2000/svg">
<path d="M56.2578 24.3469L49.2284 31.3781L42.1986 24.3469L49.2284 17.3184L56.2578 24.3469Z" fill="#EF3E42"/>
<path d="M8.25781 32.0507L9.809 21.167C10.1555 18.7653 12.6901 16.6701 15.4086 16.6701C18.1671 16.6701 19.4759 18.5871 19.2104 20.4267L18.9853 22.011C18.801 23.3392 17.8197 24.6171 16.083 25.5619L17.861 28.5764C18.0655 28.9083 18.1477 29.4187 18.0655 29.9572C17.8817 31.1059 17.023 32.0507 16.083 32.0507C15.5726 32.0507 15.1633 31.7709 14.9188 31.3362L12.3019 26.8126L11.8526 29.9813C11.6886 31.1313 10.8299 32.0507 9.91014 32.0507H8.25781ZM14.4686 18.919C13.875 18.919 13.3237 19.5069 13.2221 20.2476L12.7741 23.5282C12.6725 24.2693 13.0607 24.8577 13.6534 24.8577C14.2456 24.8577 14.7974 24.2693 14.8998 23.5282L15.3475 20.2476C15.4499 19.5069 15.0604 18.919 14.4686 18.919Z" fill="#0067B1"/>
<path d="M20.9433 19.0717C21.127 17.743 22.1691 16.6451 23.2322 16.6451C24.2948 16.6451 25.0102 17.743 24.826 19.0717L24.0706 24.565H26.1761L26.9522 19.0717C27.136 17.743 28.1788 16.6451 29.2419 16.6451C30.3046 16.6451 31.0199 17.743 30.8357 19.0717L29.3642 29.6235C29.18 30.9518 28.1379 32.051 27.0744 32.051C26.0122 32.051 25.2968 30.9518 25.4806 29.6235L25.951 26.2001H23.8257L23.3553 29.6235C23.1706 30.9518 22.1286 32.051 21.0664 32.051H19.1442L20.9433 19.0717Z" fill="#0067B1"/>
<path d="M41.6222 21.0648C41.4582 22.0871 40.906 23.083 39.9247 24.0028C40.5996 24.7186 40.8854 25.6633 40.7425 26.5835L40.5996 27.5287C40.232 29.9562 37.7171 32.0505 35.0198 32.0505H30.7476L32.3211 21.1423C32.6698 18.7402 35.204 16.6454 37.9216 16.6454C40.6805 16.6454 42.0096 18.5612 41.7229 20.4012L41.6222 21.0648ZM36.3687 24.5141C35.6938 24.5141 35.0607 25.2036 34.9376 26.0472L34.6311 28.2445C34.5089 29.0872 34.9582 29.7767 35.6327 29.7767C36.3071 29.7767 36.9618 29.0872 37.084 28.2445L37.3909 26.0472C37.514 25.2036 37.0423 24.5141 36.3687 24.5141ZM37.1864 18.9188C36.512 18.9188 35.8982 19.6088 35.7553 20.4519L35.5104 21.9592C35.3663 22.8024 35.8375 23.4919 36.512 23.4919C37.1864 23.4919 37.82 22.8024 37.9638 21.9592L38.2082 20.4519C38.3515 19.6088 37.8605 18.9188 37.1864 18.9188Z" fill="#0067B1"/>
</svg>