<svg width="38" height="24" viewBox="0 0 64 48" fill="none" xmlns="http://www.w3.org/2000/svg">
<g clip-path="url(#clip0_1122_563)">
<mask id="mask0_1122_563" style="mask-type:luminance" maskUnits="userSpaceOnUse" x="8" y="18" width="48" height="12">
<path d="M56 18H8V29.9878H56V18Z" fill="white"/>
</mask>
<g mask="url(#mask0_1122_563)">
<path d="M56 18H8V29.9878H56V18Z" fill="#0072BC"/>
<path d="M19.9033 24.7213L18.4355 22.1559L19.0819 20.9928H17.4748L16.0308 23.5903H17.6367L19.1045 26.157L19.9033 24.7213Z" fill="#F37021"/>
<path d="M15.5713 20.9952L14.057 23.5903L12.713 23.5951L13.5166 24.9867L16.5082 24.982L15.6963 23.5737L17.201 20.9928L15.5713 20.9952Z" fill="#F37021"/>
<path d="M14.5332 26.6795L17.4891 26.6831L18.1712 27.8235L18.9748 26.4319L17.4474 23.882L16.6451 25.2724L13.6927 25.2712L14.5332 26.6795Z" fill="#F37021"/>
<path d="M21.4615 24.0605L22.108 21.6023H23.1794C23.3513 21.5947 23.523 21.6201 23.6853 21.6773C23.7954 21.7182 23.8854 21.8001 23.9365 21.9058C23.9836 22.0072 23.9929 22.122 23.9627 22.2296C23.9314 22.3434 23.8706 22.4469 23.7865 22.5296C23.6847 22.6287 23.5629 22.705 23.4294 22.7534C23.5674 22.7807 23.6895 22.8605 23.7698 22.9761C23.8025 23.032 23.823 23.0942 23.8302 23.1585C23.8374 23.2229 23.831 23.2881 23.8115 23.3499C23.7784 23.4683 23.7203 23.5783 23.6413 23.6725C23.566 23.7643 23.4744 23.8414 23.371 23.8998C23.2627 23.956 23.1468 23.9961 23.027 24.0189C22.87 24.0484 22.7105 24.0619 22.5508 24.0594L21.4615 24.0605ZM22.2163 22.632H22.8341C22.9574 22.6362 23.0807 22.627 23.202 22.6046C23.2935 22.5852 23.3792 22.5444 23.452 22.4856C23.5159 22.4284 23.5611 22.3533 23.5817 22.2701C23.6033 22.1991 23.5991 22.1228 23.5698 22.0546C23.5541 22.0226 23.5314 21.9946 23.5034 21.9725C23.4753 21.9505 23.4427 21.935 23.4079 21.9273C23.2679 21.8974 23.1247 21.8854 22.9817 21.8916H22.4115L22.2163 22.632ZM21.9175 23.7701H22.6318C22.7188 23.7715 22.8059 23.7676 22.8925 23.7582C22.9746 23.7467 23.0547 23.7238 23.1306 23.6903C23.1993 23.6577 23.2606 23.6111 23.3103 23.5534C23.3634 23.4943 23.4013 23.4232 23.421 23.3463C23.4453 23.2675 23.4389 23.1825 23.4032 23.1082C23.3828 23.0729 23.3555 23.0421 23.323 23.0176C23.2905 22.9931 23.2534 22.9753 23.2139 22.9653C23.0803 22.9328 22.9429 22.9188 22.8056 22.9237H22.1449L21.9175 23.7701Z" fill="white"/>
<path d="M23.8306 24.0606L25.5722 21.6023H25.9853L26.5091 24.0606H26.0781L25.9424 23.3165H24.7389L24.2341 24.0606H23.8306ZM24.9186 23.0523H25.8924L25.7734 22.3713C25.7377 22.163 25.7139 21.9916 25.7019 21.8559C25.6198 22.0211 25.5259 22.1803 25.421 22.332L24.9186 23.0523Z" fill="white"/>
<path d="M26.8066 24.0606L27.4519 21.6023H27.8399L28.8352 23.532L29.3411 21.6023H29.6982L29.053 24.0606H28.6673L27.6733 22.1297L27.1662 24.0606H26.8066Z" fill="white"/>
<path d="M29.6804 24.0606L30.3268 21.6023H30.7054L30.3864 22.8189L32.1196 21.6023H32.6315L31.1709 22.5999L32.0399 24.0606H31.5399L30.8482 22.8201L30.2792 23.2094L30.0554 24.0606H29.6804Z" fill="white"/>
<path d="M32.3578 24.0606L33.0042 21.6023H34.478C34.6837 21.5949 34.8896 21.6153 35.0899 21.663C35.1507 21.6793 35.2076 21.7074 35.2575 21.7458C35.3074 21.7843 35.3491 21.8322 35.3803 21.8868C35.4414 22.0106 35.4512 22.1534 35.4077 22.2844C35.3754 22.4184 35.3085 22.5415 35.2137 22.6416C35.1161 22.742 35.0001 22.8229 34.872 22.8797C34.7641 22.9261 34.651 22.9593 34.5351 22.9785C34.6081 22.9975 34.6776 23.0281 34.7411 23.0689C34.7827 23.1065 34.8187 23.1498 34.8482 23.1975C34.8828 23.2453 34.9112 23.2973 34.9327 23.3523L35.1708 24.0665H34.172L33.8958 23.3165C33.879 23.2433 33.8409 23.1766 33.7863 23.1249C33.7275 23.0837 33.6569 23.0629 33.5851 23.0654H33.5078L33.2447 24.0641L32.3578 24.0606ZM33.6328 22.5975H34.0042C34.0842 22.5915 34.1637 22.5803 34.2423 22.5642C34.3028 22.5534 34.3592 22.5262 34.4054 22.4856C34.4503 22.4492 34.4827 22.3997 34.4982 22.344C34.5097 22.3131 34.512 22.2796 34.5048 22.2475C34.4976 22.2154 34.4813 22.186 34.4577 22.163C34.3628 22.1089 34.2532 22.0864 34.1446 22.0987H33.7578L33.6328 22.5975Z" fill="white"/>
<path d="M37.3195 23.657H36.3148L36.0696 24.0606H35.166L36.8814 21.6023H37.8505L38.2755 24.0606H37.3576L37.3195 23.657ZM37.2767 23.1237L37.1933 22.2404L36.6434 23.1249L37.2767 23.1237Z" fill="white"/>
<path d="M39.2147 21.6022H40.0956L39.8575 22.5296L41.0289 21.5999H42.2027L40.9182 22.5296L41.6016 24.0605H40.5123L40.1766 23.0522L39.6195 23.4605L39.4611 24.0558H38.5754L39.2147 21.6022Z" fill="white"/>
<path d="M42.2504 21.6023H43.2313L43.5884 22.4285L44.3813 21.6023H45.3562L43.8706 23.0308L43.6003 24.0606H42.7146L42.9849 23.0308L42.2504 21.6023Z" fill="white"/>
<path d="M46.4907 23.657H45.4871L45.2407 24.0606H44.3372L46.0562 21.6023H47.0264L47.4514 24.0606H46.524L46.4907 23.657ZM46.4478 23.1237L46.3645 22.2404L45.8193 23.1249L46.4478 23.1237Z" fill="white"/>
<path d="M47.9026 21.6023H50.5918L50.4335 22.207H49.5311L49.0454 24.0606H48.1585L48.6466 22.207H47.7443L47.9026 21.6023Z" fill="white"/>
<path fill-rule="evenodd" clip-rule="evenodd" d="M46.1264 25.3284L45.9169 25.12L46.1264 24.9105L46.3359 25.12L46.1264 25.3284Z" fill="white"/>
<path fill-rule="evenodd" clip-rule="evenodd" d="M36.7064 27.1605L36.9171 27.37L37.1267 27.1605L36.9171 26.951L36.7064 27.1605ZM46.6955 25.5058L46.4859 25.2975L46.2752 25.5058L46.4859 25.7165L46.6955 25.5058ZM39.7909 26.5129H39.0766C38.9349 26.1879 39.3147 26.1403 39.3147 26.1403C39.3803 26.1364 39.4441 26.1175 39.5012 26.0851C39.5584 26.0527 39.6074 26.0076 39.6445 25.9534C39.4433 25.7951 39.4671 25.4689 39.4671 25.4689C39.4052 25.8189 38.9754 25.8772 38.9754 25.8772C38.4409 25.9308 38.654 26.5165 38.654 26.5165H38.0588V25.8629C37.9682 26.0444 37.8146 26.1866 37.6266 26.2629L37.7135 26.3653V26.5141H36.466V25.6487C36.3588 25.8439 36.06 25.9189 36.06 25.9189L36.1243 26.0225V26.076C35.4005 25.8748 35.3719 26.5189 35.3719 26.5189H35.0684C35.0767 26.6379 34.6291 26.8201 34.6291 26.8201H40.3218C40.1152 26.778 39.9277 26.6703 39.7873 26.5129H39.7909ZM35.885 26.5296C35.885 26.5296 35.635 26.3832 35.9398 26.2594C35.9653 26.2513 35.9921 26.2485 36.0187 26.251C36.0453 26.2535 36.0711 26.2613 36.0946 26.274C36.1181 26.2866 36.1389 26.3039 36.1556 26.3247C36.1724 26.3455 36.1848 26.3694 36.1922 26.3951C36.1922 26.3951 36.1457 26.5998 35.8815 26.5296H35.885ZM35.0089 25.7879L34.7993 25.5784L34.5886 25.7879L34.7993 25.9975L35.0089 25.7879ZM35.5434 25.7879L35.3338 25.5784L35.1255 25.7879L35.3338 25.9975L35.5434 25.7879ZM45.9502 25.5058L45.7407 25.2975L45.5324 25.5058L45.7407 25.7165L45.9502 25.5058ZM40.5075 25.9927C40.5075 25.9927 40.2694 26.1844 40.2932 26.3986C40.2932 26.3986 40.6718 26.3927 40.7004 26.7296C40.7004 26.7296 40.7206 27.1641 40.0861 27.2189L40.0933 27.232C40.0933 27.232 41.0456 27.3296 41.0718 26.6117C41.0718 26.6117 41.048 25.9177 40.5075 25.9927ZM47.9216 27.1605L48.1311 27.37L48.3395 27.1605L48.1311 26.951L47.9216 27.1605ZM48.4907 26.2641L48.5764 26.3677V26.5177H47.7431V25.8629C47.6526 26.0438 47.4994 26.1855 47.3121 26.2617L47.3978 26.3653V26.5165H46.4824V26.3272C46.4824 26.3272 46.6609 26.1677 46.7848 26.1879L46.7931 26.1201C46.6917 26.0704 46.581 26.0424 46.4681 26.0379C46.4427 25.9745 46.399 25.9202 46.3424 25.8819C46.2859 25.8436 46.2191 25.8231 46.1508 25.8231C46.0825 25.8231 46.0158 25.8436 45.9593 25.8819C45.9027 25.9202 45.8589 25.9745 45.8336 26.0379C45.7215 26.0425 45.6116 26.0704 45.511 26.1201L45.5169 26.1879C45.636 26.1677 45.8205 26.3272 45.8205 26.3272V26.5201H44.8574C44.8574 26.5201 44.9407 25.9129 44.1824 25.9129H42.8337C42.8482 25.8719 42.8755 25.8366 42.9114 25.812C42.9473 25.7874 42.9901 25.7748 43.0337 25.776C43.0337 25.776 43.6884 25.6379 43.4753 25.1618C43.4753 25.1618 43.2372 24.6796 42.4682 24.907C42.4682 24.907 42.7063 25.1618 42.7063 25.2165C42.7063 25.2165 43.0717 25.1546 43.1134 25.2999C43.1134 25.2999 43.1896 25.4641 42.7825 25.5546C42.7825 25.5546 42.142 25.7201 42.3134 26.2236H44.1408C44.1408 26.2236 44.4098 26.2236 44.4098 26.3617C44.4098 26.3617 44.4098 26.5201 44.1253 26.5201H41.6992V26.8153H48.9204V25.8629C48.8307 26.0444 48.6779 26.187 48.4907 26.2641ZM46.1669 26.3891C46.1363 26.3891 46.1064 26.38 46.0809 26.363C46.0555 26.346 46.0356 26.3219 46.0239 26.2936C46.0122 26.2653 46.0092 26.2342 46.0151 26.2042C46.0211 26.1742 46.0358 26.1466 46.0575 26.1249C46.0791 26.1033 46.1067 26.0885 46.1367 26.0826C46.1667 26.0766 46.1979 26.0797 46.2261 26.0914C46.2544 26.1031 46.2786 26.1229 46.2956 26.1484C46.3126 26.1738 46.3217 26.2038 46.3217 26.2344C46.3217 26.2754 46.3054 26.3148 46.2763 26.3438C46.2473 26.3728 46.208 26.3891 46.1669 26.3891ZM37.2386 27.1605L37.4469 27.37L37.6564 27.1605L37.4469 26.951L37.2386 27.1605ZM46.9586 27.1605L47.1693 27.37L47.3788 27.1605L47.1693 26.951L46.9586 27.1605ZM46.4252 27.1605L46.6348 27.37L46.8443 27.1605L46.6431 26.951L46.4252 27.1605Z" fill="white"/>
</g>
</g>
<defs>
<clipPath id="clip0_1122_563">
<rect width="48" height="12" fill="white" transform="translate(8 18)"/>
</clipPath>
</defs>
</svg>