<svg width="38" height="24" viewBox="0 0 64 48" fill="none" xmlns="http://www.w3.org/2000/svg">
<g clip-path="url(#clip0_1122_540)">
<mask id="mask0_1122_540" style="mask-type:luminance" maskUnits="userSpaceOnUse" x="8" y="14" width="48" height="19">
<path d="M56 14H8V32.79H56V14Z" fill="white"/>
</mask>
<g mask="url(#mask0_1122_540)">
<path d="M17.2023 32.4286L9.33782 27.3271C9.33782 27.3271 8.35159 26.762 8.12582 25.7094C7.80868 24.2315 8.85405 22.9644 8.85405 22.9644L19.0607 29.5878C19.8481 30.0991 20.0629 31.1452 19.5569 31.9342C19.0369 32.7447 17.9689 32.9236 17.2023 32.4286Z" fill="#38D200"/>
<path d="M9.75323 21.8711C9.75323 21.8711 8.5486 21.1463 8.5486 19.4699C8.5486 17.7993 9.75272 17.0834 9.75272 17.0834L14.0521 14.2796C14.4305 14.0407 14.8881 13.9601 15.3258 14.0552C15.7634 14.1503 16.1457 14.4136 16.3899 14.7878C16.634 15.162 16.7202 15.617 16.6298 16.0542C16.5394 16.4913 16.2797 16.8753 15.907 17.1229L12.2833 19.474L18.4573 23.4808C18.4573 23.4808 19.5687 24.1152 19.7876 25.1862C20.0933 26.6804 19.0611 27.9114 19.0611 27.9114L9.75323 21.8711ZM9.73043 32.699C10.134 32.699 10.4213 32.5714 10.7016 32.3903L12.8004 31.028L10.7016 29.6661C10.4187 29.4845 10.1218 29.3574 9.73043 29.3574C9.50822 29.3543 9.2876 29.3951 9.08138 29.4777C8.87516 29.5602 8.68747 29.6828 8.52921 29.8382C8.37094 29.9937 8.24527 30.179 8.15949 30.3832C8.07371 30.5875 8.02954 30.8068 8.02954 31.0282C8.02954 31.2496 8.07371 31.4689 8.15949 31.6732C8.24527 31.8774 8.37094 32.0627 8.52921 32.2182C8.68747 32.3736 8.87516 32.4962 9.08138 32.5787C9.2876 32.6613 9.50822 32.7021 9.73043 32.699Z" fill="#0473EA"/>
<path d="M17.8457 17.8035C17.442 17.8035 17.1547 17.9311 16.8744 18.112L14.7754 19.4741L16.8744 20.8362C17.1572 21.0179 17.4543 21.145 17.8457 21.145C18.0659 21.145 18.2839 21.1018 18.4873 21.0178C18.6908 20.9339 18.8756 20.8108 19.0313 20.6557C19.187 20.5005 19.3105 20.3163 19.3948 20.1136C19.479 19.9109 19.5224 19.6936 19.5224 19.4742C19.5224 19.2548 19.479 19.0376 19.3948 18.8349C19.3105 18.6322 19.187 18.448 19.0313 18.2928C18.8756 18.1377 18.6908 18.0146 18.4873 17.9306C18.2839 17.8467 18.0659 17.8035 17.8457 17.8035Z" fill="#38D200"/>
<path d="M26.5774 27.3956C27.0212 27.3956 27.435 27.2757 27.7583 26.9983V27.6204C27.3971 27.8677 26.9684 27.9726 26.517 27.9726C25.3804 27.9726 24.5912 27.1855 24.5912 26.0536C24.5912 24.9291 25.4036 24.1422 26.5321 24.1422C26.9759 24.1422 27.3896 24.2698 27.7206 24.517V25.199C27.4273 24.8844 27.0212 24.7194 26.5696 24.7194C25.7797 24.7194 25.2231 25.2667 25.2231 26.0535C25.2231 26.8406 25.7874 27.3956 26.5774 27.3956ZM29.0447 27.9053H28.4353V23.0384L29.0447 23.4137V24.8395C29.3231 24.4123 29.767 24.1425 30.3311 24.1425C31.264 24.1425 31.7605 24.8244 31.7605 25.7315V27.9053H31.1437V25.8364C31.1437 25.1167 30.8278 24.7346 30.1806 24.7346C29.4961 24.7346 29.0442 25.3191 29.0442 26.0538L29.0447 27.9053ZM35.5444 27.2752C35.2362 27.7099 34.7622 27.9723 34.183 27.9723C33.0997 27.9723 32.3248 27.1703 32.3248 26.0759C32.3248 24.9594 33.0997 24.1418 34.183 24.1418C34.7622 24.1418 35.2362 24.4117 35.5444 24.8542V24.2093H36.1614V27.9048H35.5444V27.2752ZM32.9567 26.0683C32.9567 26.8329 33.4909 27.3951 34.2431 27.3951C35.0029 27.3951 35.5444 26.8329 35.5444 26.0683C35.5444 25.2887 35.0029 24.719 34.2431 24.719C33.4909 24.7196 32.9567 25.2886 32.9567 26.0683ZM37.7187 27.9053H37.1092V24.2098H37.7187V24.9968C38.012 24.4495 38.486 24.1424 39.0728 24.1424V24.8395C38.3355 24.7346 37.7187 25.2293 37.7187 26.1437V27.9053ZM45.3167 26.2936H42.3903C42.4806 26.9609 43.0072 27.4031 43.7444 27.4031C44.2184 27.4031 44.6773 27.2682 45.0685 26.9908V27.5755C44.6698 27.8454 44.2184 27.9728 43.7444 27.9728C42.5783 27.9728 41.7436 27.2232 41.7436 26.0907C41.7436 24.9812 42.4508 24.1418 43.5718 24.1418C44.6399 24.1418 45.3397 24.9288 45.3397 25.9858C45.3399 26.0888 45.3322 26.1918 45.3167 26.2936ZM42.3978 25.7993H44.6924C44.6322 25.1695 44.2335 24.7049 43.579 24.7049C42.9018 24.7045 42.4955 25.1771 42.3978 25.7993ZM46.6182 27.9053H46.0088V24.2098H46.6182V24.9968C46.9115 24.4495 47.3854 24.1424 47.9722 24.1424V24.8395C47.2352 24.7346 46.6182 25.2293 46.6182 26.1437V27.9053ZM51.5908 26.2936H48.6646C48.7546 26.9609 49.2814 27.4031 50.0185 27.4031C50.4925 27.4031 50.9514 27.2682 51.3426 26.9908V27.5755C50.9439 27.8454 50.4925 27.9728 50.0185 27.9728C48.8524 27.9728 48.0178 27.2232 48.0178 26.0907C48.0178 24.9812 48.7247 24.1418 49.8457 24.1418C50.9139 24.1418 51.6135 24.9288 51.6135 25.9858C51.6137 26.0889 51.6062 26.1918 51.5908 26.2936ZM48.6721 25.7993H50.9663C50.9062 25.1695 50.5074 24.7049 49.8531 24.7049C49.1761 24.7045 48.7702 25.1771 48.6721 25.7993ZM55.2488 27.2707C54.9481 27.7131 54.4666 27.9829 53.8873 27.9829C52.8039 27.9829 52.029 27.1807 52.029 26.0863C52.029 24.9698 52.8039 24.1523 53.8873 24.1523C54.4666 24.1523 54.9481 24.4298 55.2488 24.8794V23.0392L55.8658 23.4147V27.9051H55.2488V27.2707ZM52.6611 26.0789C52.6611 26.8435 53.1951 27.4058 53.9475 27.4058C54.7072 27.4058 55.2488 26.8435 55.2488 26.0789C55.2488 25.2993 54.7072 24.7296 53.9475 24.7296C53.1951 24.7296 52.6611 25.299 52.6611 26.0789ZM40.1375 26.677C40.1375 27.1942 40.4535 27.3966 40.8522 27.3966C41.1619 27.3996 41.4647 27.3052 41.7174 27.1267V27.719C41.4613 27.9063 41.108 27.9813 40.7996 27.9813C40.0096 27.9813 39.5281 27.6289 39.5281 26.6319V23.0375L40.1375 23.4128V26.677ZM41.1226 24.1615C41.0707 24.128 41.0127 24.105 40.952 24.0938C40.8912 24.0826 40.8288 24.0834 40.7684 24.0963C40.7079 24.1091 40.6506 24.1337 40.5997 24.1686C40.5488 24.2035 40.5053 24.248 40.4716 24.2997C40.438 24.3513 40.4149 24.4091 40.4037 24.4697C40.3925 24.5302 40.3933 24.5924 40.4062 24.6526C40.4191 24.7128 40.4437 24.7699 40.4787 24.8207C40.5138 24.8714 40.5585 24.9148 40.6103 24.9483L40.6234 24.9565C40.699 25.0048 40.787 25.0305 40.8769 25.0305C40.9668 25.0305 41.0548 25.0048 41.1304 24.9565L41.7364 24.5692L41.1226 24.1615ZM25.8627 22.0664C26.2988 22.0664 26.6149 21.879 26.6149 21.5417C26.6149 21.3392 26.5096 21.1819 26.2307 21.0693L25.3504 20.7171C24.8991 20.5222 24.6508 20.2673 24.6508 19.7875C24.6508 19.1428 25.1699 18.738 25.9222 18.738C26.3583 18.738 26.7646 18.8579 27.0505 19.0754V19.7134C26.7121 19.4134 26.2981 19.2411 25.93 19.2411C25.5387 19.2411 25.2603 19.4209 25.2603 19.7209C25.2603 19.9457 25.3657 20.0806 25.6592 20.193L26.5395 20.5454C27.0133 20.7479 27.2317 21.0326 27.2317 21.4299C27.2317 22.1346 26.6598 22.5693 25.8551 22.5693C25.3659 22.5693 24.922 22.4343 24.5987 22.1947V21.5341C24.9898 21.9014 25.4262 22.0664 25.8627 22.0664ZM28.3904 21.2642C28.3904 21.7815 28.7062 21.9839 29.1051 21.9839C29.4145 21.9867 29.7169 21.8922 29.9694 21.714V22.3062C29.7133 22.4936 29.3598 22.5686 29.0514 22.5686C28.2615 22.5686 27.7803 22.2164 27.7803 21.2193V17.9975L28.3895 17.6217L28.3904 21.2642ZM33.3779 21.8713C33.0695 22.3062 32.5955 22.5686 32.0163 22.5686C30.933 22.5686 30.1582 21.7666 30.1582 20.672C30.1582 19.5555 30.933 18.738 32.0163 18.738C32.5955 18.738 33.0695 19.0079 33.3779 19.4503V18.806H33.9949V22.5011H33.3779V21.8713ZM30.79 20.6647C30.79 21.4293 31.3242 21.9914 32.0764 21.9914C32.8364 21.9914 33.3779 21.4293 33.3779 20.6647C33.3779 19.8851 32.8364 19.3152 32.0764 19.3152C31.3242 19.3152 30.79 19.8851 30.79 20.6647ZM35.552 22.5011H34.9426V18.806H35.552V19.4356C35.8304 19.0084 36.2742 18.7385 36.8384 18.7385C37.7713 18.7385 38.2678 19.4208 38.2678 20.3278V22.5017H37.651V20.4329C37.651 19.7132 37.335 19.3309 36.688 19.3309C36.0034 19.3309 35.5515 19.9156 35.5515 20.6503L35.552 22.5011ZM42.0519 21.8565C41.751 22.2989 41.2695 22.5688 40.6902 22.5688C39.607 22.5688 38.8321 21.7666 38.8321 20.672C38.8321 19.5555 39.607 18.738 40.6902 18.738C41.2695 18.738 41.751 19.0154 42.0519 19.4652V17.997L42.6688 17.6217V22.5011H42.0519V21.8565ZM39.464 20.6647C39.464 21.4293 39.9982 21.9914 40.7504 21.9914C41.5103 21.9914 42.0519 21.4293 42.0519 20.6647C42.0519 19.8851 41.5103 19.3152 40.7504 19.3152C39.9987 19.3152 39.464 19.8851 39.464 20.6647ZM53.3365 21.8565C53.0356 22.2989 52.5541 22.5688 51.9748 22.5688C50.8914 22.5688 50.1166 21.7666 50.1166 20.672C50.1166 19.5555 50.8914 18.738 51.9748 18.738C52.5541 18.738 53.0356 19.0154 53.3365 19.4652V17.997L53.9533 17.6217V22.5011H53.3365V21.8565ZM50.7486 20.6647C50.7486 21.4293 51.2826 21.9914 52.035 21.9914C52.7948 21.9914 53.3365 21.4293 53.3365 20.6647C53.3365 19.8851 52.7948 19.3152 52.035 19.3152C51.2831 19.3152 50.7486 19.8851 50.7486 20.6647ZM46.5507 21.8713C46.2423 22.3062 45.7683 22.5686 45.189 22.5686C44.1058 22.5686 43.3309 21.7666 43.3309 20.672C43.3309 19.5555 44.1058 18.738 45.189 18.738C45.7683 18.738 46.2423 19.0079 46.5507 19.4503V18.806H47.1676V22.5011H46.5507V21.8713ZM43.9628 20.6647C43.9628 21.4293 44.497 21.9914 45.2492 21.9914C46.009 21.9914 46.5507 21.4293 46.5507 20.6647C46.5507 19.8851 46.009 19.3152 45.2492 19.3152C44.4964 19.3152 43.9628 19.8851 43.9628 20.6647ZM48.7247 22.5011H48.1153V18.806H48.7247V19.5931C49.018 19.0458 49.492 18.7385 50.0788 18.7385V19.4356C49.3415 19.3307 48.7247 19.8254 48.7247 20.74V22.5011ZM29.2492 19.5931C29.3143 19.6354 29.3888 19.661 29.4662 19.6676C29.5435 19.6742 29.6213 19.6617 29.6926 19.6311C29.7639 19.6005 29.8266 19.5528 29.8749 19.4923C29.9233 19.4317 29.9559 19.3602 29.9698 19.2841C29.9809 19.2233 29.9798 19.1609 29.9665 19.1005C29.9533 19.0401 29.9282 18.9829 29.8926 18.9322C29.8572 18.8816 29.812 18.8384 29.7598 18.8051L29.7467 18.7971C29.6709 18.7491 29.5828 18.7237 29.4929 18.724C29.4031 18.7243 29.3152 18.7503 29.2396 18.7988L28.634 19.1874L29.2492 19.5931Z" fill="#525355"/>
</g>
</g>
<defs>
<clipPath id="clip0_1122_540">
<rect width="48" height="19" fill="white" transform="translate(8 14)"/>
</clipPath>
</defs>
</svg>