<svg width="38" height="24" viewBox="0 0 64 48" fill="none" xmlns="http://www.w3.org/2000/svg">
<g clip-path="url(#clip0_1072_1693)">
<mask id="mask0_1072_1693" style="mask-type:luminance" maskUnits="userSpaceOnUse" x="8" y="17" width="48" height="14">
<path d="M56 17H8V30.542H56V17Z" fill="white"/>
</mask>
<g mask="url(#mask0_1072_1693)">
<path d="M18.0371 30.1836C18.0371 30.5023 18.4754 30.542 18.7144 30.542H18.9136C19.5111 30.5027 19.5111 30.2634 19.5111 30.1836V17.3585C19.5504 17.0393 19.1125 17 18.8338 17H18.7159C18.4754 17 18.0371 17.0393 18.0371 17.3585V30.1836Z" fill="#E1091D"/>
<path d="M10.0314 30.1836C10.0314 30.5023 10.4697 30.542 10.7086 30.542H10.9079C11.5054 30.5027 11.5054 30.2634 11.5054 30.1836V17.3585C11.5054 17.0393 11.1068 17 10.8281 17H10.7102C10.4296 17 10.0314 17.0393 10.0314 17.3585V30.1836Z" fill="#E1091D"/>
<path d="M12.7 30.1836C12.7 30.5023 13.1382 30.542 13.3772 30.542H13.6162C14.2137 30.5027 14.2137 30.2634 14.2137 30.1836V17.3585C14.2137 17.0393 13.7754 17 13.5364 17H13.3772C13.1382 17 12.7 17.0393 12.7 17.3585V30.1836Z" fill="#E1091D"/>
<path d="M15.3685 30.1836C15.3685 30.5023 15.8068 30.542 16.0458 30.542H16.2451C16.8425 30.5027 16.8425 30.2634 16.8425 30.1836V17.3585C16.8425 17.0393 16.4043 17 16.1653 17H16.0474C15.8068 17 15.3685 17.0393 15.3685 17.3585V30.1836Z" fill="#E1091D"/>
<path d="M8.35848 23.0144C8.03931 23.0144 8 23.4527 8 23.6917V23.9307C8.03931 24.5281 8.27869 24.5281 8.35848 24.5281H21.1836C21.5023 24.5281 21.542 24.0898 21.542 23.8509V23.6917C21.542 23.4527 21.5027 23.0144 21.1836 23.0144H8.35848Z" fill="#E1091D"/>
<path d="M40.2219 27.8334C38.1111 27.8334 37.3132 26.6781 37.3132 23.6912C37.3132 20.7432 38.0698 19.6685 40.1826 19.6685H40.2612C42.3323 19.6685 43.1306 20.744 43.1306 23.6912C43.0913 26.6785 42.2941 27.8334 40.2219 27.8334ZM40.2219 17.9956C36.6371 17.9956 35.0043 19.788 35.0043 23.7309C35.0043 27.6341 36.6772 29.5063 40.1024 29.546H40.2616C43.7269 29.546 45.3994 27.6341 45.3994 23.7309C45.3994 19.7479 43.8067 17.9956 40.2219 17.9956Z" fill="#002469"/>
<path d="M25.764 28.6698C26.481 29.2276 27.4767 29.4666 29.0698 29.4666H29.1484C30.7415 29.4666 31.7371 29.2276 32.4942 28.6698C33.5295 27.8735 33.73 26.9195 33.73 25.1251V18.6332C33.7348 18.5746 33.7268 18.5158 33.7064 18.4607C33.686 18.4056 33.6538 18.3557 33.6121 18.3144C33.4509 18.154 33.0924 18.0754 32.495 18.0754C32.1196 18.0275 31.7393 18.112 31.4195 18.3144C31.3778 18.3557 31.3456 18.4056 31.3252 18.4607C31.3048 18.5158 31.2968 18.5746 31.3016 18.6332V25.4042C31.3016 26.5193 31.3016 26.7583 30.7839 27.1966C30.2724 27.5168 29.6738 27.67 29.0713 27.6349C28.4667 27.6891 27.8619 27.5336 27.3583 27.1946C26.8406 26.7964 26.8406 26.5575 26.8406 25.4423V18.6332C26.8455 18.5746 26.8374 18.5158 26.8171 18.4607C26.7967 18.4056 26.7645 18.3557 26.7227 18.3144C26.4022 18.1114 26.0208 18.0268 25.6445 18.0754C25.2692 18.0275 24.8889 18.112 24.5691 18.3144C24.5274 18.3557 24.4952 18.4056 24.4748 18.4607C24.4544 18.5158 24.4464 18.5746 24.4512 18.6332V25.1251C24.5298 26.9175 24.6902 27.8735 25.7656 28.6698" fill="#002469"/>
<path d="M51.5729 27.7941H49.0239V24.4086H51.7321C53.2458 24.4086 53.5245 25.0458 53.5245 26.1212C53.5638 27.5551 53.0465 27.7941 51.5729 27.7941ZM49.0239 19.7087H51.6126C52.9667 19.7087 53.0465 20.3859 53.0465 21.2621C53.0465 22.3375 52.5686 22.7754 51.4137 22.7754H49.0239V19.7087ZM54.401 18.7527C53.8036 18.3145 53.0866 18.1553 51.6928 18.1553H47.0723C46.9667 18.1555 46.8656 18.1975 46.7909 18.2721C46.7163 18.3468 46.6743 18.4479 46.6741 18.5535V29.0685C46.6743 29.174 46.7163 29.2752 46.7909 29.3498C46.8656 29.4244 46.9667 29.4664 47.0723 29.4666H51.9314C53.2458 29.4666 54.1617 29.4273 54.958 28.8295C55.8342 28.1522 55.9938 27.0772 55.9938 26.2804C56.023 25.8382 55.9481 25.3953 55.7752 24.9872C55.6023 24.5791 55.3362 24.2173 54.9981 23.9307C54.7133 23.745 54.4052 23.5977 54.0819 23.4924L53.8826 23.4138L54.0819 23.3352C55.0378 22.8969 55.3566 22.2597 55.3566 21.0251C55.3173 20.3879 55.1974 19.3125 54.4007 18.7547" fill="#002469"/>
</g>
</g>
<defs>
<clipPath id="clip0_1072_1693">
<rect width="48" height="14" fill="white" transform="translate(8 17)"/>
</clipPath>
</defs>
</svg>