<svg width="38" height="24" viewBox="0 0 64 48" fill="none" xmlns="http://www.w3.org/2000/svg">
<path d="M41.4874 6.78796H22.5016C18.1317 6.78796 14.5757 10.3433 14.5757 14.7139V33.6991C14.5757 38.0696 18.1317 41.625 22.5016 41.625H41.4874C45.858 41.625 49.4127 38.069 49.4127 33.6991V14.7139C49.4127 10.3433 45.858 6.78796 41.4874 6.78796Z" fill="white"/>
<path d="M41.5461 8.14026H22.4436C18.8508 8.14026 15.928 11.0631 15.928 14.6553V33.7578C15.928 37.3506 18.8508 40.2728 22.4436 40.2728H41.5461C45.1378 40.2728 48.0612 37.35 48.0612 33.7578V14.6553C48.0612 11.0631 45.1378 8.14026 41.5461 8.14026Z" fill="#295DAA"/>
<path d="M28.6604 21.4395H26.9961C26.5081 21.4395 25.8755 21.7848 25.6929 22.2444L25.8598 21.3633H23.826L22.9225 26.4293H24.9587L25.5211 23.2223H27.7116C27.7116 23.2223 27.4316 24.8104 27.307 25.5216C27.1824 26.2328 27.6656 26.4057 27.9039 26.4057H28.9689L29.6631 22.4658C29.6057 21.9009 29.2247 21.4395 28.6604 21.4395Z" fill="white"/>
<path d="M22.36 21.3633L21.9778 23.5374L23.5248 21.3633H22.36Z" fill="white"/>
<path d="M24.7748 13.4282H17.9635L17.6677 15.107H20.045L19.0925 20.516H21.1433L22.1006 15.107H24.4785L24.7748 13.4282Z" fill="white"/>
<path d="M26.184 18.8553L26.4827 17.1626H24.6576L24.3606 18.8553H26.184ZM23.309 20.516C22.7447 20.516 22.3649 20.054 22.4641 19.4891L22.9878 16.527C23.0858 15.9628 23.6307 15.5007 24.1931 15.5007H27.5326C28.0968 15.5007 28.4778 15.9628 28.375 16.527L27.8549 19.4891C27.7545 20.054 27.2115 20.516 26.6478 20.516H23.309Z" fill="white"/>
<path d="M36.743 18.8553L37.0423 17.1626H39.6857L39.9791 15.502H36.5785C36.0143 15.502 35.4682 15.9628 35.3696 16.527L34.8477 19.4891C34.7479 20.054 35.1283 20.5154 35.6943 20.5154H39.0006L39.292 18.8553H36.743Z" fill="white"/>
<path d="M32.5865 18.8553H30.3489L30.9391 15.5013H29.1563L28.4554 19.4891C28.3556 20.054 28.7354 20.5154 29.2996 20.5154H31.0377C31.6019 20.5154 32.0634 20.1797 32.428 19.7455C32.428 19.7455 32.627 20.3261 32.913 20.4561C33.2009 20.588 34.0705 20.5571 34.0705 20.5571L34.9632 15.5019H33.1791L32.5865 18.8553Z" fill="white"/>
<path d="M45.4418 15.5261H43.7787C43.2895 15.5261 42.8171 15.872 42.6339 16.331L43.1129 13.6072H41.2381L40.0201 20.5153H41.8967L42.4609 17.3095H44.4947C44.4947 17.3095 44.2153 18.8964 44.0908 19.6088C43.965 20.3182 44.4494 20.4923 44.6846 20.4923H45.593L46.2872 16.5523C46.3858 15.9875 46.0066 15.5261 45.4418 15.5261Z" fill="white"/>
<path d="M38.7568 28.1147C37.9985 28.1147 37.4868 27.4906 37.6193 26.7329L38.3226 22.7511C38.455 21.9903 39.1874 21.3693 39.9488 21.3693H44.1966C44.9532 21.3693 45.4678 21.9903 45.3336 22.7511L44.6308 26.7329C44.4966 27.49 43.7654 28.1147 43.0064 28.1147H38.7568ZM42.7143 26.2533L43.2502 23.2301H40.2391L39.7045 26.2533H42.7143Z" fill="white"/>
<path d="M34.6378 26.2533H31.6243L32.1583 23.2301H37.0429L37.3652 21.3687H31.8692C31.1084 21.3687 30.3791 21.9897 30.2454 22.7505L29.5421 26.7322C29.4091 27.4894 29.9189 28.1141 30.6784 28.1141H34.9287C35.6889 28.1141 36.4206 27.49 36.5531 26.7322L36.983 24.2884H34.9825L34.6378 26.2533Z" fill="white"/>
<path d="M30.465 30.5011L27.9051 35.7776H26.2807L26.0878 32.5839L24.5372 35.7776H22.9037L22.5917 30.5011H23.748L23.95 34.6395L25.9414 30.5011H27.1159L27.3179 34.6395L29.3093 30.5011H30.465Z" fill="#FDDB00"/>
<path d="M35.3006 35.7776H34.1721L35.2915 30.5011H36.42L35.3006 35.7776Z" fill="#FDDB00"/>
<path d="M37.1542 35.7776H36.0258L37.1452 30.5011H38.2736L37.1542 35.7776Z" fill="#FDDB00"/>
<path d="M44.9544 35.7776H44.0461C43.624 35.7776 43.3306 35.7365 43.1649 35.6536C42.9998 35.5708 42.917 35.4045 42.917 35.1535C42.917 35.0126 42.9382 34.8475 42.9811 34.6582L43.8622 30.5011H44.9907L44.7065 31.8134H45.7987L45.5876 32.7677H44.5142L44.193 34.273C44.1622 34.426 44.1471 34.527 44.1471 34.576C44.1471 34.68 44.1821 34.7471 44.2523 34.7779C44.3224 34.8088 44.4646 34.8239 44.6793 34.8239H45.1564L44.9544 35.7776Z" fill="#FDDB00"/>
<path d="M30.465 30.5011L27.9051 35.7776H26.2807L26.0878 32.5839L24.5372 35.7776H22.9037L22.5917 30.5011H23.748L23.95 34.6395L25.9414 30.5011H27.1159L27.3179 34.6395L29.3093 30.5011H30.465Z" fill="#FDDB00"/>
<path d="M35.3006 35.7776H34.1721L35.2915 30.5011H36.42L35.3006 35.7776Z" fill="#FDDB00"/>
<path d="M37.1542 35.7776H36.0258L37.1452 30.5011H38.2736L37.1542 35.7776Z" fill="#FDDB00"/>
<path d="M44.9544 35.7776H44.0461C43.624 35.7776 43.3306 35.7365 43.1649 35.6536C42.9998 35.5708 42.917 35.4045 42.917 35.1535C42.917 35.0126 42.9382 34.8475 42.9811 34.6582L43.8622 30.5011H44.9907L44.7065 31.8134H45.7987L45.5876 32.7677H44.5142L44.193 34.273C44.1622 34.426 44.1471 34.527 44.1471 34.576C44.1471 34.68 44.1821 34.7471 44.2523 34.7779C44.3224 34.8088 44.4646 34.8239 44.6793 34.8239H45.1564L44.9544 35.7776Z" fill="#FDDB00"/>
<path d="M30.465 30.5011L27.9051 35.7776H26.2807L26.0878 32.5839L24.5372 35.7776H22.9037L22.5917 30.5011H23.748L23.95 34.6395L25.9414 30.5011H27.1159L27.3179 34.6395L29.3093 30.5011H30.465Z" fill="#FDDB00"/>
<path d="M35.3006 35.7776H34.1721L35.2915 30.5011H36.42L35.3006 35.7776Z" fill="#FDDB00"/>
<path d="M37.1542 35.7776H36.0258L37.1452 30.5011H38.2736L37.1542 35.7776Z" fill="#FDDB00"/>
<path d="M44.9544 35.7776H44.0461C43.624 35.7776 43.3306 35.7365 43.1649 35.6536C42.9998 35.5708 42.917 35.4045 42.917 35.1535C42.917 35.0126 42.9382 34.8475 42.9811 34.6582L43.8622 30.5011H44.9907L44.7065 31.8134H45.7987L45.5876 32.7677H44.5142L44.193 34.273C44.1622 34.426 44.1471 34.527 44.1471 34.576C44.1471 34.68 44.1821 34.7471 44.2523 34.7779C44.3224 34.8088 44.4646 34.8239 44.6793 34.8239H45.1564L44.9544 35.7776Z" fill="#FDDB00"/>
<path d="M21.8878 31.9325C21.7227 31.8467 21.4288 31.8043 21.0066 31.8043H19.3919C18.9269 31.8043 18.5737 31.8914 18.3318 32.0656C18.0899 32.2397 17.9266 32.5288 17.8407 32.9328L17.4827 34.6491C17.4579 34.7531 17.4398 34.8462 17.4277 34.9291C17.4156 35.012 17.4095 35.0869 17.4095 35.1541C17.4095 35.2768 17.4277 35.376 17.4646 35.4522C17.5015 35.529 17.5625 35.5913 17.6478 35.6403C17.7337 35.6893 17.8498 35.7225 17.9968 35.7413C18.1437 35.7594 18.327 35.7691 18.5471 35.7691H21.2909L21.4929 34.8239H19.1809C18.9668 34.8239 18.8247 34.8069 18.7539 34.7737C18.6838 34.7398 18.6487 34.6715 18.6487 34.5669C18.6487 34.4937 18.6608 34.3957 18.6856 34.2735L18.6862 34.2705H19.1633L19.1627 34.2735H21.7874L22.0716 32.934C22.1146 32.7381 22.1357 32.5699 22.1357 32.429C22.1357 32.1835 22.0529 32.0184 21.8878 31.9325ZM20.8966 33.318H19.6351V33.3168H18.887C18.9112 33.1953 18.9402 33.0973 18.9741 33.0241C19.0079 32.9509 19.0503 32.8941 19.1029 32.8542C19.1549 32.8143 19.222 32.7883 19.3049 32.7762C19.3877 32.7641 19.4899 32.758 19.6121 32.758H20.5113C20.8053 32.758 20.9516 32.8499 20.9516 33.0332C20.9516 33.0519 20.9335 33.1469 20.8966 33.318Z" fill="#FDDB00"/>
<path d="M34.0114 32.1249C33.9715 32.0457 33.9074 31.9828 33.8185 31.9368C33.7302 31.8909 33.6135 31.8588 33.4701 31.8407C33.3262 31.8225 33.1472 31.8129 32.9331 31.8129H30.1984L29.9964 32.7672H32.309C32.5231 32.7672 32.6652 32.7823 32.736 32.8131C32.8061 32.844 32.8418 32.9111 32.8418 33.0151C32.8418 33.0641 32.8267 33.1645 32.7958 33.3169H31.8917V33.3181H31.0064C30.7433 33.3181 30.5244 33.332 30.3502 33.3592C30.176 33.3864 30.0303 33.4403 29.9142 33.5195C29.7981 33.5993 29.7061 33.7124 29.639 33.8594C29.5719 34.0063 29.5108 34.1986 29.4558 34.4375L29.4098 34.6576C29.3669 34.8475 29.3457 35.0126 29.3457 35.1529C29.3457 35.2812 29.3657 35.3858 29.4056 35.465C29.4455 35.5448 29.5096 35.6071 29.5985 35.6531C29.6868 35.699 29.8035 35.7311 29.9474 35.7492C30.0914 35.7674 30.2698 35.7771 30.4845 35.7771H33.4024L34.0084 32.9323C34.0507 32.743 34.0725 32.5779 34.0725 32.437C34.0713 32.3088 34.0513 32.2047 34.0114 32.1249ZM30.7772 34.8233C30.6121 34.8233 30.5292 34.7532 30.5292 34.6123C30.5292 34.5264 30.5625 34.4484 30.6302 34.3782C30.6973 34.3081 30.7862 34.2724 30.8963 34.2724H32.1167L32.1173 34.2694H32.5926L32.4747 34.8227H30.7772V34.8233Z" fill="#FDDB00"/>
<path d="M42.5046 31.9325C42.3395 31.8467 42.0456 31.8043 41.6235 31.8043H40.0082C39.5431 31.8043 39.1899 31.8914 38.948 32.0656C38.7061 32.2397 38.5428 32.5288 38.4569 32.9328L38.0989 34.6491C38.0741 34.7531 38.056 34.8462 38.0439 34.9291C38.0318 35.012 38.0258 35.0869 38.0258 35.1541C38.0258 35.2768 38.0439 35.376 38.0808 35.4522C38.1177 35.529 38.1788 35.5913 38.264 35.6403C38.3499 35.6893 38.466 35.7225 38.613 35.7413C38.7599 35.7594 38.9432 35.7691 39.1639 35.7691H41.9077L42.1097 34.8239H39.7971C39.583 34.8239 39.4403 34.8069 39.3701 34.7737C39.3 34.7398 39.2643 34.6715 39.2643 34.5669C39.2643 34.4937 39.2764 34.3957 39.3012 34.2735L39.3018 34.2705H39.7789L39.7783 34.2735H42.403L42.6872 32.934C42.7302 32.7381 42.7513 32.5699 42.7513 32.429C42.7519 32.1835 42.6697 32.0184 42.5046 31.9325ZM41.5134 33.318H40.325V33.3168H39.5038C39.528 33.1953 39.557 33.0973 39.5909 33.0241C39.6241 32.9509 39.6671 32.8941 39.7191 32.8542C39.7711 32.8143 39.8382 32.7883 39.9211 32.7762C40.0039 32.7641 40.1061 32.758 40.2283 32.758H41.1276C41.4209 32.758 41.5678 32.8499 41.5678 33.0332C41.5684 33.0519 41.5503 33.1469 41.5134 33.318Z" fill="#FDDB00"/>
</svg>