<svg width="38" height="24" viewBox="0 0 48 15" fill="none" xmlns="http://www.w3.org/2000/svg">
<g clip-path="url(#clip0_1229_328)">
<path d="M45.8699 10.1485L46.4687 11.7642C46.531 11.9453 46.5987 12.1598 46.6436 12.3234H46.655C46.706 12.1598 46.7623 11.9506 46.83 11.7528L47.3724 10.1485H47.898L47.1518 12.0981C46.7958 13.0367 46.5531 13.5168 46.2132 13.8104C46.0661 13.9428 45.8934 14.0435 45.7057 14.1061C45.6648 14.033 45.4784 13.7139 45.4784 13.7139C45.6376 13.6615 45.7853 13.5791 45.9135 13.4712C46.0941 13.3216 46.2374 13.132 46.3319 12.9174C46.352 12.8805 46.3654 12.8403 46.3714 12.7987C46.3669 12.7539 46.3554 12.71 46.3372 12.6687L45.3255 10.1485H45.8699ZM34.418 10.0861C35.2541 10.0861 35.4579 10.6567 35.4579 11.2051V12.2282C35.4541 12.4476 35.4692 12.667 35.5028 12.8839H35.0509L35.0114 12.5393H34.9953C34.8982 12.6686 34.7718 12.773 34.6264 12.8437C34.481 12.9145 34.3209 12.9496 34.1592 12.9462C33.6055 12.9462 33.3232 12.556 33.3232 12.1605C33.3232 11.4994 33.9105 11.138 34.9678 11.1434V11.0871C34.9678 10.8611 34.9054 10.4542 34.3463 10.4542C34.1173 10.4554 33.8922 10.5134 33.6913 10.6231L33.5203 10.3295C33.7911 10.1665 34.102 10.0825 34.418 10.0868V10.0861ZM43.7232 10.0861C44.5592 10.0861 44.763 10.6567 44.763 11.2051V12.2282C44.7593 12.4476 44.7743 12.667 44.808 12.8839H44.3561L44.3165 12.5393H44.2998C44.2027 12.6686 44.0763 12.773 43.9309 12.8437C43.7855 12.9145 43.6254 12.9496 43.4637 12.9462C42.9099 12.9462 42.6277 12.556 42.6277 12.1605C42.6277 11.4994 43.2156 11.138 44.2723 11.1434V11.0871C44.2723 10.8611 44.2099 10.4542 43.6508 10.4542C43.4218 10.4553 43.1967 10.5134 42.9957 10.6231L42.8261 10.3295C43.0967 10.1666 43.4074 10.0826 43.7232 10.0868V10.0861ZM28.565 9.01339C29.0397 9.01339 29.3394 9.1153 29.4688 9.18302C29.4688 9.18302 29.3186 9.44449 29.2569 9.54372C29.041 9.46352 28.8121 9.42375 28.5818 9.42639C27.6888 9.42639 27.0954 9.99694 27.0954 10.9972C27.0954 11.9298 27.6318 12.5285 28.559 12.5285C28.7981 12.5299 29.0357 12.4907 29.2616 12.4126C29.3065 12.491 29.4628 12.7605 29.4628 12.7605C29.2817 12.851 28.9204 12.9415 28.4571 12.9415C27.3844 12.9415 26.5751 12.2637 26.5751 11.0147C26.5758 9.82262 27.3837 9.01272 28.565 9.01272V9.01339ZM24.8702 10.0861C25.7632 10.0861 26.0006 10.8719 26.0006 11.3747C25.9998 11.4523 25.9942 11.5298 25.9838 11.6067H24.0623C24.0737 12.2771 24.5028 12.556 25.0009 12.556C25.2238 12.5618 25.4459 12.5275 25.6566 12.4548C25.7022 12.5299 25.843 12.7706 25.843 12.7706C25.5551 12.8906 25.245 12.9484 24.9332 12.9402C24.0911 12.9402 23.5883 12.3864 23.5883 11.5611C23.5883 10.7358 24.073 10.0868 24.8715 10.0868L24.8702 10.0861ZM37.0053 9.3627V10.1485H37.7173V10.5273H37.0066V12.0022C37.0066 12.3415 37.1025 12.5332 37.3794 12.5332C37.4203 12.5332 37.4572 12.5332 37.4914 12.5285C37.5497 12.6271 37.6925 12.8718 37.6925 12.8718C37.551 12.921 37.4017 12.9438 37.252 12.9389C37.02 12.9389 36.8337 12.8651 36.7157 12.7297C36.5742 12.5829 36.5232 12.3402 36.5232 12.0177V10.5273H36.0995V10.1485H36.5232V9.36337L37.0053 9.3627ZM40.7739 9.04625C41.2599 9.04625 41.616 9.15955 41.8419 9.3627C42.0511 9.54372 42.1771 9.82061 42.1771 10.1592C42.1771 10.4978 42.0752 10.7753 41.8835 10.9731C41.6233 11.25 41.1996 11.3915 40.7196 11.3915C40.5868 11.3956 40.4541 11.3841 40.324 11.3573V12.8832H39.8326V9.11999C40.1438 9.06966 40.4586 9.04521 40.7739 9.04692V9.04625ZM19.2143 9.0744L19.6662 11.0013C19.7795 11.4759 19.8807 11.9506 19.9484 12.318H19.9598C20.0222 11.9392 20.1409 11.4873 20.2709 10.9959L20.7818 9.07508H21.296L21.7593 11.0073C21.8666 11.4592 21.9685 11.9111 22.0275 12.3127H22.0389C22.118 11.8943 22.2253 11.4706 22.3439 10.9959L22.8468 9.0744H23.3496L22.2702 12.8832H21.756L21.2759 10.9C21.1702 10.4906 21.0871 10.0756 21.0272 9.65702H21.0158C20.9378 10.0765 20.8373 10.4914 20.7148 10.9L20.1784 12.8832H19.6642L18.6981 9.0744H19.2143ZM30.7286 8.87327V10.5796H30.74C30.8241 10.4322 30.9473 10.3108 31.096 10.2289C31.2503 10.1381 31.4258 10.0893 31.6048 10.0875C31.9722 10.0875 32.5596 10.3134 32.5596 11.2574V12.8846H32.0621V11.313C32.0621 10.8725 31.8985 10.4991 31.4292 10.4991C31.2799 10.5019 31.1353 10.5514 31.0157 10.6406C30.896 10.7298 30.8073 10.8543 30.7621 10.9966C30.7349 11.0726 30.7233 11.1533 30.7279 11.2339V12.8839H30.2304V8.87193L30.7286 8.87327ZM33.8187 12.1021C33.8187 12.424 34.0332 12.5768 34.288 12.5768C34.4325 12.5806 34.5745 12.5383 34.6934 12.456C34.8122 12.3736 34.9018 12.2556 34.949 12.1189C34.9666 12.0679 34.9761 12.0146 34.9772 11.9607V11.486C34.4348 11.4766 33.8187 11.5725 33.8187 12.1021ZM43.1238 12.1021C43.1238 12.424 43.3383 12.5768 43.5931 12.5768C43.7376 12.5806 43.8796 12.5383 43.9985 12.456C44.1174 12.3736 44.2069 12.2556 44.2542 12.1189C44.2717 12.0679 44.2812 12.0146 44.2823 11.9607V11.486C43.7399 11.4766 43.1238 11.5725 43.1238 12.1021ZM24.8306 10.4428C24.3278 10.4428 24.1072 10.9061 24.0677 11.2507H25.5199C25.5252 10.9342 25.3898 10.4428 24.8306 10.4428ZM40.7873 9.43712C40.6319 9.43282 40.4764 9.44609 40.324 9.47667V10.957C40.4575 10.987 40.5942 11.0003 40.731 10.9966C41.3243 10.9966 41.6857 10.7083 41.6857 10.1827C41.6837 9.67982 41.3277 9.43645 40.7853 9.43645L40.7873 9.43712ZM37.4391 0.850699V1.85101H40.3984V2.3706H37.4391V3.45673H39.8279C39.8279 3.45673 39.5215 5.01753 37.7314 6.3316C38.4555 6.71309 39.4075 6.98328 40.5727 7.16564C40.5727 7.16564 40.3843 7.50087 40.2234 7.75899C38.9496 7.53774 37.9567 7.15022 37.1776 6.69566C36.3925 7.16162 35.3774 7.56724 34.0647 7.79519C33.9735 7.6611 33.7241 7.21861 33.7241 7.21861C34.9142 7.03222 35.8937 6.73119 36.6258 6.33831C34.8263 5.0477 34.4804 3.45539 34.4804 3.45539H36.8625V2.36926H33.7885V1.85101H36.8625V0.850699H37.4391ZM19.9102 2.76282L20.3715 3.00753C20.1523 3.52847 19.9484 3.88313 19.8921 3.99443V7.77441H19.3739V4.81103C19.0762 5.2133 18.9046 5.41913 18.8147 5.51768L18.5217 5.01015C19.0769 4.42083 19.569 3.6116 19.9102 2.76282ZM42.7799 0.871483L43.3833 1.00557L43.3645 1.05519C43.1191 1.6968 42.8891 2.24322 42.6813 2.67901V7.77441H42.102V3.77653C41.8911 4.11872 41.6612 4.44887 41.4135 4.76544L41.0964 4.20763C41.7762 3.28241 42.3481 2.15874 42.7644 0.91037L42.7799 0.871483ZM27.6036 0.871483L28.15 1.00557C28.15 1.00557 27.8021 2.10175 27.5359 2.68169V7.77709H26.9586V3.79664C26.7273 4.23243 26.5725 4.51872 26.3767 4.77483L26.0643 4.23378C26.8735 3.21202 27.6016 0.870143 27.6016 0.870143L27.6036 0.871483ZM23.9289 0.843994L24.4485 0.947915L24.4364 0.994845C24.3291 1.40583 24.2105 1.80944 24.0838 2.19562H25.6385V2.68705H25.2637C25.1672 4.08226 24.9198 5.16302 24.5296 5.90051C24.8394 6.50391 25.4361 7.06843 25.6023 7.22129C25.5648 7.29303 25.3046 7.7382 25.3046 7.7382C25.3046 7.7382 24.4404 6.85321 24.2447 6.4248C24.0248 6.79421 23.6191 7.27291 23.0694 7.76569L22.7931 7.27492C22.7931 7.27492 23.5454 6.65074 23.9718 5.89716C23.7024 5.20231 23.5263 4.47478 23.4482 3.73362C23.357 3.89386 23.3074 3.98035 23.2155 4.11779C23.2155 4.11779 22.9728 3.69608 22.9232 3.61696C23.3597 2.8493 23.6869 1.94487 23.9202 0.887575L23.9289 0.843994ZM47.0003 0.902994V2.53888H48.002V3.08731H46.9963V6.64873C46.9961 6.92098 46.8881 7.18206 46.6958 7.37482C46.5036 7.56758 46.2428 7.67631 45.9705 7.67719H45.3001V7.07379H45.9705C46.0839 7.07361 46.1926 7.02849 46.2728 6.94831C46.353 6.86813 46.3981 6.75944 46.3983 6.64604V3.08597H43.1915V2.53754H46.3976V0.901654L47.0003 0.902994ZM32.6259 5.25487V7.64769H28.559V5.25353L32.6259 5.25487ZM22.6363 4.96926V6.29071C22.7335 6.20824 23.0312 5.94677 23.1311 5.8576L23.3704 6.27194L22.2736 7.19782C22.2736 7.19782 22.0416 6.79555 21.9946 6.72113C22.0617 6.6494 22.1455 6.50123 22.1455 6.2183V5.45868H21.1485C21.1485 6.58906 21.1029 7.00071 20.3494 7.58735C20.3494 7.58735 20.1677 7.26688 20.0866 7.13279C20.7342 6.62124 20.6571 5.92196 20.6571 4.96792L22.6363 4.96926ZM32.0768 5.77379H29.1362V7.15559H32.0755L32.0768 5.77379ZM39.018 3.96962H35.3037C35.5162 4.41212 36.0412 5.26626 37.1809 6.00912C38.31 5.25487 38.8209 4.392 39.018 3.96962ZM44.3594 3.93409L45.408 5.59881L44.8616 5.89716L43.8801 4.22104L44.3594 3.93409ZM24.771 2.68571H23.9155C23.9068 2.72058 23.8263 2.92305 23.8082 2.96261C23.9148 3.98571 24.0724 4.77281 24.2775 5.29643C24.5316 4.68633 24.6979 3.80938 24.771 2.68571ZM32.6822 4.10974V4.60118H28.502V4.10974H32.6822ZM22.8937 3.85229V4.34373H20.5471V3.85564L22.8937 3.85229ZM32.6822 2.96596V3.4574H28.502V2.96596H32.6822ZM22.006 0.965347V2.76684H22.537V1.47958H22.9996V3.22878H20.4935V1.50908H20.9829V2.76684H21.5133V0.965347H22.006ZM19.935 0.846005L20.3883 1.14302C20.0194 1.91407 19.5088 2.60888 18.8831 3.19123L18.6096 2.71588C19.1057 2.23718 19.575 1.56204 19.9357 0.845336L19.935 0.846005ZM30.5884 0.870814L30.9961 1.79469H33.0812V2.31362H28.1306V1.79402H30.4181L30.1211 1.07329L30.5884 0.870814Z" fill="#4D4D4D"/>
<path d="M5.83088 8.95108C5.70787 9.01254 5.56596 9.0244 5.43445 8.98423C5.30294 8.94405 5.19189 8.8549 5.12423 8.7352L5.08937 8.65877L3.63047 5.45403C3.61421 5.41867 3.60554 5.3803 3.605 5.34139C3.60576 5.29216 3.62006 5.24408 3.64634 5.20244C3.67262 5.16079 3.70985 5.12719 3.75396 5.1053C3.79808 5.08342 3.84736 5.0741 3.89642 5.07838C3.94547 5.08265 3.99241 5.10035 4.03207 5.12953L5.75445 6.35578C5.85844 6.4242 5.97705 6.46724 6.10072 6.48145C6.22439 6.49565 6.34966 6.48063 6.46646 6.43757L14.5661 2.8299C13.1139 1.11892 10.7231 0.000610352 8.01721 0.000610352C3.59226 0.000610352 0 2.99215 0 6.68229C0 8.69363 1.08009 10.5079 2.77029 11.7328C2.83964 11.7825 2.89613 11.848 2.93507 11.9239C2.97402 11.9998 2.9943 12.0839 2.99422 12.1692C2.99266 12.227 2.98319 12.2843 2.96606 12.3395L2.60469 13.6871C2.58215 13.7501 2.56773 13.8156 2.56178 13.8822C2.56178 13.9533 2.59003 14.0216 2.64033 14.0718C2.69062 14.1221 2.75883 14.1504 2.82996 14.1504C2.88492 14.1482 2.93824 14.1311 2.98416 14.1008L4.73939 13.0877C4.86773 13.0093 5.01474 12.9667 5.16513 12.9644C5.2449 12.9645 5.32421 12.9765 5.40045 12.9999C6.25071 13.2432 7.13081 13.3664 8.0152 13.366C12.4401 13.366 16.0331 10.3744 16.0331 6.6843C16.0293 5.58649 15.7133 4.51241 15.1219 3.5875L5.89055 8.91756L5.83088 8.95108Z" fill="#1AAD19"/>
</g>
<defs>
<clipPath id="clip0_1229_328">
<rect width="48" height="14.1478" fill="white"/>
</clipPath>
</defs>
</svg>